<svg xmlns="http://www.w3.org/2000/svg" id="sprotty_work.carryDelay.behavioral" class="sprotty-graph sprotty-block-diagram blockdiagram" style="font-family:&quot;Noto Sans&quot;, Helvetica, Arial, sans-serif;perspective-origin:0px 0px;transform-origin:0px 0px;" version="1.1" viewBox="7 7 1090.453125 462" width="1090.453125" height="462"><g transform="scale(1) translate(0,0)"><g id="sprotty_ArchitectureBlockImpl$work.carryDelay(behavioral)" transform="translate(12, 12)" class="architecture"><g class="sprotty-block" style="fill:rgb(255, 255, 255);stroke:rgb(48, 48, 48);stroke-dasharray:0px;"><rect x="0" y="0" rx="1" ry="1" width="1080.453125" height="452"/><text x="540.2265625" y="12" class="sprotty-block-name" style="cursor:pointer;font-weight:bold;perspective-origin:539.703px 0px;fill:rgb(48, 48, 48);stroke:rgba(0, 0, 0, 0);dominant-baseline:middle;text-anchor:middle;">work.carryDelay(behavioral)</text><line x1="0" y1="20" x2="1080.453125" y2="20"/></g><g id="sprotty_ArchitectureBlockImpl$work.carryDelay(behavioral)/GPortImpl$data_in_to_ArchitectureBlockImpl$work.carryDelay(behavioral)/InstantiationBlockImpl$inst_IDELAYE3/BPortImpl$IDATAIN" class="sprotty-edge edge" style="fill:none;stroke:rgb(112, 112, 112);stroke-linejoin:round;"><g><path d="M 0 404 L 737.390625 404 C 738.390625 404 739.390625 403 739.390625 402 L 739.390625 331 C 739.390625 330 740.390625 329 741.390625 329 L 749.390625 329 "/><path d="M 0 404 L 737.390625 404 C 738.390625 404 739.390625 403 739.390625 402 L 739.390625 331 C 739.390625 330 740.390625 329 741.390625 329 L 749.390625 329 " class="clickable"/></g></g><g id="sprotty_ArchitectureBlockImpl$work.carryDelay(behavioral)/GPortImpl$start_in_to_ArchitectureBlockImpl$work.carryDelay(behavioral)/ProcessBlockImpl$nextStateLogic/GPortImpl$start_in" class="sprotty-edge edge" style="fill:none;stroke:rgb(112, 112, 112);stroke-linejoin:round;"><g><path d="M 0 305.8571428571429 L 396.5 305.85714285714283 "/><path d="M 0 305.8571428571429 L 396.5 305.85714285714283 " class="clickable"/></g></g><g id="sprotty_ArchitectureBlockImpl$work.carryDelay(behavioral)/GPortImpl$incDec_in_to_ArchitectureBlockImpl$work.carryDelay(behavioral)/ProcessBlockImpl$nextStateLogic/GPortImpl$incDec_in" class="sprotty-edge edge" style="fill:none;stroke:rgb(112, 112, 112);stroke-linejoin:round;"><g><path d="M 0 339.8571428571429 L 354.5 339.8571428571429 C 355.5 339.8571428571429 356.5 338.8571428571429 356.5 337.8571428571429 L 356.5 319.2857142857143 C 356.5 318.2857142857143 357.5 317.2857142857143 358.5 317.2857142857143 L 396.5 317.2857142857143 "/><path d="M 0 339.8571428571429 L 354.5 339.8571428571429 C 355.5 339.8571428571429 356.5 338.8571428571429 356.5 337.8571428571429 L 356.5 319.2857142857143 C 356.5 318.2857142857143 357.5 317.2857142857143 358.5 317.2857142857143 L 396.5 317.2857142857143 " class="clickable"/></g></g><g id="sprotty_ArchitectureBlockImpl$work.carryDelay(behavioral)/GPortImpl$clk_to_ArchitectureBlockImpl$work.carryDelay(behavioral)/InstantiationBlockImpl$inst_IDELAYE3/BPortImpl$CLK" class="sprotty-edge edge" style="fill:none;stroke:rgb(112, 112, 112);stroke-linejoin:round;"><g><path d="M 0 36 L 717.390625 36 C 718.390625 36 719.390625 37 719.390625 38 L 719.390625 215 C 719.390625 216 720.390625 217 721.390625 217 L 749.390625 217 "/><path d="M 0 36 L 717.390625 36 C 718.390625 36 719.390625 37 719.390625 38 L 719.390625 215 C 719.390625 216 720.390625 217 721.390625 217 L 749.390625 217 " class="clickable"/></g></g><g id="sprotty_ArchitectureBlockImpl$work.carryDelay(behavioral)/GPortImpl$clk_to_ArchitectureBlockImpl$work.carryDelay(behavioral)/InstantiationBlockImpl$inst_IDELAYCTRL/BPortImpl$REFCLK" class="sprotty-edge edge" style="fill:none;stroke:rgb(112, 112, 112);stroke-linejoin:round;"><g><path d="M 0 36 L 84.734375 36 C 85.734375 36 86.734375 37 86.734375 38 L 86.734375 241.85714285714286 C 86.734375 242.85714285714286 87.734375 243.85714285714286 88.734375 243.85714285714286 L 96.734375 243.85714285714286 "/><path d="M 0 36 L 84.734375 36 C 85.734375 36 86.734375 37 86.734375 38 L 86.734375 241.85714285714286 C 86.734375 242.85714285714286 87.734375 243.85714285714286 88.734375 243.85714285714286 L 96.734375 243.85714285714286 " class="clickable"/></g><circle r="2" id="sprotty_ArchitectureBlockImpl$work.carryDelay(behavioral)/GPortImpl$clk_to_ArchitectureBlockImpl$work.carryDelay(behavioral)/InstantiationBlockImpl$inst_IDELAYCTRL/BPortImpl$REFCLK/junction0" transform="translate(86.734375, 36)" class="sprotty-junction junction" style="fill:rgb(112, 112, 112);stroke:none;"/></g><g id="sprotty_ArchitectureBlockImpl$work.carryDelay(behavioral)/GPortImpl$clk_to_ArchitectureBlockImpl$work.carryDelay(behavioral)/ProcessBlockImpl$stateRegister/GPortImpl$clk" class="sprotty-edge edge" style="fill:none;stroke:rgb(112, 112, 112);stroke-linejoin:round;"><g><path d="M 0 36 L 572.125 36 C 573.125 36 574.125 37 574.125 38 L 574.125 321 C 574.125 322 575.125 323 576.125 323 L 584.125 323 "/><path d="M 0 36 L 572.125 36 C 573.125 36 574.125 37 574.125 38 L 574.125 321 C 574.125 322 575.125 323 576.125 323 L 584.125 323 " class="clickable"/></g><circle r="2" id="sprotty_ArchitectureBlockImpl$work.carryDelay(behavioral)/GPortImpl$clk_to_ArchitectureBlockImpl$work.carryDelay(behavioral)/ProcessBlockImpl$stateRegister/GPortImpl$clk/junction0" transform="translate(574.125, 36)" class="sprotty-junction junction" style="fill:rgb(112, 112, 112);stroke:none;"/></g><g id="sprotty_ArchitectureBlockImpl$work.carryDelay(behavioral)/GPortImpl$reset_to_ArchitectureBlockImpl$work.carryDelay(behavioral)/InstantiationBlockImpl$inst_IDELAYCTRL/BPortImpl$RST" class="sprotty-edge edge" style="fill:none;stroke:rgb(112, 112, 112);stroke-linejoin:round;"><g><path d="M 0 271.8571428571429 L 96.734375 271.8571428571429 "/><path d="M 0 271.8571428571429 L 96.734375 271.8571428571429 " class="clickable"/></g></g><g id="sprotty_ArchitectureBlockImpl$work.carryDelay(behavioral)/InstantiationBlockImpl$inst_IDELAYE3/BPortImpl$CNTVALUEOUT_to_ArchitectureBlockImpl$work.carryDelay(behavioral)/GPortImpl$delayTaps_out" class="sprotty-edge thick edge" style="fill:none;stroke:rgb(112, 112, 112);stroke-linejoin:round;stroke-width:3px;"><g><path d="M 957.296875 273 L 1080.453125 273 "/><path d="M 957.296875 273 L 1080.453125 273 " class="clickable"/></g></g><g id="sprotty_ArchitectureBlockImpl$work.carryDelay(behavioral)/InstantiationBlockImpl$inst_IDELAYE3/BPortImpl$DATAOUT_to_ArchitectureBlockImpl$work.carryDelay(behavioral)/GPortImpl$data_out" class="sprotty-edge edge" style="fill:none;stroke:rgb(112, 112, 112);stroke-linejoin:round;"><g><path d="M 957.296875 413 L 1080.453125 413 "/><path d="M 957.296875 413 L 1080.453125 413 " class="clickable"/></g></g><g id="sprotty_ArchitectureBlockImpl$work.carryDelay(behavioral)/InstantiationBlockImpl$inst_IDELAYCTRL/BPortImpl$RDY_to_ArchitectureBlockImpl$work.carryDelay(behavioral)/ProcessBlockImpl$nextStateLogic/GPortImpl$idelayCtrlRdy" class="sprotty-edge edge" style="fill:none;stroke:rgb(112, 112, 112);stroke-linejoin:round;"><g><path d="M 346.5 257.8571428571429 L 354.5 257.8571428571429 C 355.5 257.8571428571429 356.5 258.8571428571429 356.5 259.8571428571429 L 356.5 292.42857142857144 C 356.5 293.42857142857144 357.5 294.42857142857144 358.5 294.42857142857144 L 396.5 294.42857142857144 "/><path d="M 346.5 257.8571428571429 L 354.5 257.8571428571429 C 355.5 257.8571428571429 356.5 258.8571428571429 356.5 259.8571428571429 L 356.5 292.42857142857144 C 356.5 293.42857142857144 357.5 294.42857142857144 358.5 294.42857142857144 L 396.5 294.42857142857144 " class="clickable"/></g></g><g id="sprotty_ArchitectureBlockImpl$work.carryDelay(behavioral)/ProcessBlockImpl$nextStateLogic/GPortImpl$ready_out_to_ArchitectureBlockImpl$work.carryDelay(behavioral)/GPortImpl$ready_out" class="sprotty-edge edge" style="fill:none;stroke:rgb(112, 112, 112);stroke-linejoin:round;"><g><path d="M 524.125 303 L 542.125 303 C 543.125 303 544.125 302 544.125 301 L 544.125 85 C 544.125 84 545.125 83 546.125 83 L 1080.453125 83 "/><path d="M 524.125 303 L 542.125 303 C 543.125 303 544.125 302 544.125 301 L 544.125 85 C 544.125 84 545.125 83 546.125 83 L 1080.453125 83 " class="clickable"/></g></g><g id="sprotty_ArchitectureBlockImpl$work.carryDelay(behavioral)/ProcessBlockImpl$nextStateLogic/GPortImpl$idelayCtrlRdy_out_to_ArchitectureBlockImpl$work.carryDelay(behavioral)/GPortImpl$idelayCtrlRdy_out" class="sprotty-edge edge" style="fill:none;stroke:rgb(112, 112, 112);stroke-linejoin:round;"><g><path d="M 524.125 293 L 532.125 293 C 533.125 293 534.125 292 534.125 291 L 534.125 51 C 534.125 50 535.125 49 536.125 49 L 1080.453125 49 "/><path d="M 524.125 293 L 532.125 293 C 533.125 293 534.125 292 534.125 291 L 534.125 51 C 534.125 50 535.125 49 536.125 49 L 1080.453125 49 " class="clickable"/></g></g><g id="sprotty_ArchitectureBlockImpl$work.carryDelay(behavioral)/ProcessBlockImpl$nextStateLogic/GPortImpl$fsmState_next_to_ArchitectureBlockImpl$work.carryDelay(behavioral)/ProcessBlockImpl$stateRegister/GPortImpl$fsmState_next" class="sprotty-edge thick edge" style="fill:none;stroke:rgb(112, 112, 112);stroke-linejoin:round;stroke-width:3px;"><g><path d="M 524.125 353 L 584.125 353 "/><path d="M 524.125 353 L 584.125 353 " class="clickable"/></g></g><g id="sprotty_ArchitectureBlockImpl$work.carryDelay(behavioral)/ProcessBlockImpl$nextStateLogic/GPortImpl$delayVTC_to_ArchitectureBlockImpl$work.carryDelay(behavioral)/InstantiationBlockImpl$inst_IDELAYE3/BPortImpl$EN_VTC" class="sprotty-edge edge" style="fill:none;stroke:rgb(112, 112, 112);stroke-linejoin:round;"><g><path d="M 524.125 323 L 562.125 323 C 563.125 323 564.125 322 564.125 321 L 564.125 303 C 564.125 302 565.125 301 566.125 301 L 749.390625 301 "/><path d="M 524.125 323 L 562.125 323 C 563.125 323 564.125 322 564.125 321 L 564.125 303 C 564.125 302 565.125 301 566.125 301 L 749.390625 301 " class="clickable"/></g></g><g id="sprotty_ArchitectureBlockImpl$work.carryDelay(behavioral)/ProcessBlockImpl$nextStateLogic/GPortImpl$delayCE_to_ArchitectureBlockImpl$work.carryDelay(behavioral)/InstantiationBlockImpl$inst_IDELAYE3/BPortImpl$CE" class="sprotty-edge edge" style="fill:none;stroke:rgb(112, 112, 112);stroke-linejoin:round;"><g><path d="M 524.125 313 L 552.125 313 C 553.125 313 554.125 312 554.125 311 L 554.125 290 C 554.125 289 555.125 288 556.125 288 L 707.390625 288 C 708.390625 288 709.390625 287 709.390625 286 L 709.390625 191 C 709.390625 190 710.390625 189 711.390625 189 L 749.390625 189 "/><path d="M 524.125 313 L 552.125 313 C 553.125 313 554.125 312 554.125 311 L 554.125 290 C 554.125 289 555.125 288 556.125 288 L 707.390625 288 C 708.390625 288 709.390625 287 709.390625 286 L 709.390625 191 C 709.390625 190 710.390625 189 711.390625 189 L 749.390625 189 " class="clickable"/></g></g><g id="sprotty_ArchitectureBlockImpl$work.carryDelay(behavioral)/ProcessBlockImpl$nextStateLogic/GPortImpl$cnt_next_to_ArchitectureBlockImpl$work.carryDelay(behavioral)/ProcessBlockImpl$stateRegister/GPortImpl$cnt_next" class="sprotty-edge thick edge" style="fill:none;stroke:rgb(112, 112, 112);stroke-linejoin:round;stroke-width:3px;"><g><path d="M 524.125 343 L 584.125 343 "/><path d="M 524.125 343 L 584.125 343 " class="clickable"/></g></g><g id="sprotty_ArchitectureBlockImpl$work.carryDelay(behavioral)/ProcessBlockImpl$nextStateLogic/GPortImpl$incDecSave_next_to_ArchitectureBlockImpl$work.carryDelay(behavioral)/ProcessBlockImpl$stateRegister/GPortImpl$incDecSave_next" class="sprotty-edge edge" style="fill:none;stroke:rgb(112, 112, 112);stroke-linejoin:round;"><g><path d="M 524.125 333 L 584.125 333 "/><path d="M 524.125 333 L 584.125 333 " class="clickable"/></g></g><g id="sprotty_ArchitectureBlockImpl$work.carryDelay(behavioral)/ProcessBlockImpl$stateRegister/GPortImpl$fsmState_pres_to_ArchitectureBlockImpl$work.carryDelay(behavioral)/ProcessBlockImpl$nextStateLogic/GPortImpl$fsmState_pres" class="sprotty-edge thick edge" style="fill:none;stroke:rgb(112, 112, 112);stroke-linejoin:round;stroke-width:3px;"><g><path d="M 699.390625 325.5 L 727.390625 325.5 C 728.390625 325.5 729.390625 326.5 729.390625 327.5 L 729.390625 391 C 729.390625 392 728.390625 393 727.390625 393 L 368.5 393 C 367.5 393 366.5 392 366.5 391 L 366.5 330.7142857142857 C 366.5 329.7142857142857 367.5 328.7142857142857 368.5 328.7142857142857 L 396.5 328.7142857142857 "/><path d="M 699.390625 325.5 L 727.390625 325.5 C 728.390625 325.5 729.390625 326.5 729.390625 327.5 L 729.390625 391 C 729.390625 392 728.390625 393 727.390625 393 L 368.5 393 C 367.5 393 366.5 392 366.5 391 L 366.5 330.7142857142857 C 366.5 329.7142857142857 367.5 328.7142857142857 368.5 328.7142857142857 L 396.5 328.7142857142857 " class="clickable"/></g></g><g id="sprotty_ArchitectureBlockImpl$work.carryDelay(behavioral)/ProcessBlockImpl$stateRegister/GPortImpl$cnt_pres_to_ArchitectureBlockImpl$work.carryDelay(behavioral)/ProcessBlockImpl$nextStateLogic/GPortImpl$cnt_pres" class="sprotty-edge thick edge" style="fill:none;stroke:rgb(112, 112, 112);stroke-linejoin:round;stroke-width:3px;"><g><path d="M 699.390625 350.5 L 707.390625 350.5 C 708.390625 350.5 709.390625 351.5 709.390625 352.5 L 709.390625 371 C 709.390625 372 708.390625 373 707.390625 373 L 388.5 373 C 387.5 373 386.5 372 386.5 371 L 386.5 353.57142857142856 C 386.5 352.57142857142856 387.5 351.57142857142856 388.5 351.57142857142856 L 396.5 351.57142857142856 "/><path d="M 699.390625 350.5 L 707.390625 350.5 C 708.390625 350.5 709.390625 351.5 709.390625 352.5 L 709.390625 371 C 709.390625 372 708.390625 373 707.390625 373 L 388.5 373 C 387.5 373 386.5 372 386.5 371 L 386.5 353.57142857142856 C 386.5 352.57142857142856 387.5 351.57142857142856 388.5 351.57142857142856 L 396.5 351.57142857142856 " class="clickable"/></g></g><g id="sprotty_ArchitectureBlockImpl$work.carryDelay(behavioral)/ProcessBlockImpl$stateRegister/GPortImpl$incDecSave_pres_to_ArchitectureBlockImpl$work.carryDelay(behavioral)/InstantiationBlockImpl$inst_IDELAYE3/BPortImpl$INC" class="sprotty-edge edge" style="fill:none;stroke:rgb(112, 112, 112);stroke-linejoin:round;"><g><path d="M 699.390625 338 L 717.390625 338 C 718.390625 338 719.390625 339 719.390625 340 L 719.390625 355 C 719.390625 356 720.390625 357 721.390625 357 L 749.390625 357 "/><path d="M 699.390625 338 L 717.390625 338 C 718.390625 338 719.390625 339 719.390625 340 L 719.390625 355 C 719.390625 356 720.390625 357 721.390625 357 L 749.390625 357 " class="clickable"/></g><circle r="2" id="sprotty_ArchitectureBlockImpl$work.carryDelay(behavioral)/ProcessBlockImpl$stateRegister/GPortImpl$incDecSave_pres_to_ArchitectureBlockImpl$work.carryDelay(behavioral)/InstantiationBlockImpl$inst_IDELAYE3/BPortImpl$INC/junction0" transform="translate(719.390625, 357)" class="sprotty-junction junction" style="fill:rgb(112, 112, 112);stroke:none;"/></g><g id="sprotty_ArchitectureBlockImpl$work.carryDelay(behavioral)/ProcessBlockImpl$stateRegister/GPortImpl$incDecSave_pres_to_ArchitectureBlockImpl$work.carryDelay(behavioral)/ProcessBlockImpl$nextStateLogic/GPortImpl$incDecSave_pres" class="sprotty-edge edge" style="fill:none;stroke:rgb(112, 112, 112);stroke-linejoin:round;"><g><path d="M 699.390625 338 L 717.390625 338 C 718.390625 338 719.390625 339 719.390625 340 L 719.390625 381 C 719.390625 382 718.390625 383 717.390625 383 L 378.5 383 C 377.5 383 376.5 382 376.5 381 L 376.5 342.14285714285717 C 376.5 341.14285714285717 377.5 340.14285714285717 378.5 340.14285714285717 L 396.5 340.14285714285717 "/><path d="M 699.390625 338 L 717.390625 338 C 718.390625 338 719.390625 339 719.390625 340 L 719.390625 381 C 719.390625 382 718.390625 383 717.390625 383 L 378.5 383 C 377.5 383 376.5 382 376.5 381 L 376.5 342.14285714285717 C 376.5 341.14285714285717 377.5 340.14285714285717 378.5 340.14285714285717 L 396.5 340.14285714285717 " class="clickable"/></g></g><g id="sprotty_ArchitectureBlockImpl$work.carryDelay(behavioral)/ProcessBlockImpl$stateRegister" transform="translate(584.125, 313)" class="statement"><rect x="0" y="0" rx="10" ry="5" width="115.265625" height="50" class="sprotty-node" style="fill:rgb(245, 245, 245);stroke:rgb(112, 112, 112);"/><text class="clickable sprotty-label statementtext" id="sprotty_ArchitectureBlockImpl$work.carryDelay(behavioral)/ProcessBlockImpl$stateRegister/labeltext" transform="translate(5, 13) translate(52.609375, 19)" style="cursor:default;font-weight:bold;perspective-origin:0.015625px 0px;fill:rgb(112, 112, 112);text-anchor:middle;">stateRegister</text><g id="sprotty_ArchitectureBlockImpl$work.carryDelay(behavioral)/ProcessBlockImpl$stateRegister/GPortImpl$incDecSave_next" transform="translate(0, 20)" class="sprotty-hidden hidden" style="display:block;"/><g id="sprotty_ArchitectureBlockImpl$work.carryDelay(behavioral)/ProcessBlockImpl$stateRegister/GPortImpl$cnt_next" transform="translate(0, 30)" class="sprotty-hidden hidden" style="display:block;"/><g id="sprotty_ArchitectureBlockImpl$work.carryDelay(behavioral)/ProcessBlockImpl$stateRegister/GPortImpl$fsmState_next" transform="translate(0, 40)" class="sprotty-hidden hidden" style="display:block;"/><g id="sprotty_ArchitectureBlockImpl$work.carryDelay(behavioral)/ProcessBlockImpl$stateRegister/GPortImpl$clk" transform="translate(0, 10)" class="sprotty-hidden hidden" style="display:block;"/><g id="sprotty_ArchitectureBlockImpl$work.carryDelay(behavioral)/ProcessBlockImpl$stateRegister/GPortImpl$fsmState_pres" transform="translate(115.265625, 12.5)" class="sprotty-hidden hidden" style="display:block;"/><g id="sprotty_ArchitectureBlockImpl$work.carryDelay(behavioral)/ProcessBlockImpl$stateRegister/GPortImpl$cnt_pres" transform="translate(115.265625, 37.5)" class="sprotty-hidden hidden" style="display:block;"/><g id="sprotty_ArchitectureBlockImpl$work.carryDelay(behavioral)/ProcessBlockImpl$stateRegister/GPortImpl$incDecSave_pres" transform="translate(115.265625, 25)" class="sprotty-hidden hidden" style="display:block;"/></g><g id="sprotty_ArchitectureBlockImpl$work.carryDelay(behavioral)/ProcessBlockImpl$nextStateLogic" transform="translate(396.5, 283)" class="statement"><rect x="0" y="0" rx="10" ry="5" width="127.625" height="80" class="sprotty-node" style="fill:rgb(245, 245, 245);stroke:rgb(112, 112, 112);"/><text class="clickable sprotty-label statementtext" id="sprotty_ArchitectureBlockImpl$work.carryDelay(behavioral)/ProcessBlockImpl$nextStateLogic/labeltext" transform="translate(5, 28) translate(58.53125, 19)" style="cursor:default;font-weight:bold;perspective-origin:0.28125px 0px;fill:rgb(112, 112, 112);text-anchor:middle;">nextStateLogic</text><g id="sprotty_ArchitectureBlockImpl$work.carryDelay(behavioral)/ProcessBlockImpl$nextStateLogic/GPortImpl$incDecSave_pres" transform="translate(0, 57.142857142857146)" class="sprotty-hidden hidden" style="display:block;"/><g id="sprotty_ArchitectureBlockImpl$work.carryDelay(behavioral)/ProcessBlockImpl$nextStateLogic/GPortImpl$cnt_pres" transform="translate(0, 68.57142857142857)" class="sprotty-hidden hidden" style="display:block;"/><g id="sprotty_ArchitectureBlockImpl$work.carryDelay(behavioral)/ProcessBlockImpl$nextStateLogic/GPortImpl$idelayCtrlRdy" transform="translate(0, 11.428571428571429)" class="sprotty-hidden hidden" style="display:block;"/><g id="sprotty_ArchitectureBlockImpl$work.carryDelay(behavioral)/ProcessBlockImpl$nextStateLogic/GPortImpl$fsmState_pres" transform="translate(0, 45.714285714285715)" class="sprotty-hidden hidden" style="display:block;"/><g id="sprotty_ArchitectureBlockImpl$work.carryDelay(behavioral)/ProcessBlockImpl$nextStateLogic/GPortImpl$incDec_in" transform="translate(0, 34.285714285714285)" class="sprotty-hidden hidden" style="display:block;"/><g id="sprotty_ArchitectureBlockImpl$work.carryDelay(behavioral)/ProcessBlockImpl$nextStateLogic/GPortImpl$start_in" transform="translate(0, 22.857142857142858)" class="sprotty-hidden hidden" style="display:block;"/><g id="sprotty_ArchitectureBlockImpl$work.carryDelay(behavioral)/ProcessBlockImpl$nextStateLogic/GPortImpl$ready_out" transform="translate(127.625, 20)" class="sprotty-hidden hidden" style="display:block;"/><g id="sprotty_ArchitectureBlockImpl$work.carryDelay(behavioral)/ProcessBlockImpl$nextStateLogic/GPortImpl$idelayCtrlRdy_out" transform="translate(127.625, 10)" class="sprotty-hidden hidden" style="display:block;"/><g id="sprotty_ArchitectureBlockImpl$work.carryDelay(behavioral)/ProcessBlockImpl$nextStateLogic/GPortImpl$fsmState_next" transform="translate(127.625, 70)" class="sprotty-hidden hidden" style="display:block;"/><g id="sprotty_ArchitectureBlockImpl$work.carryDelay(behavioral)/ProcessBlockImpl$nextStateLogic/GPortImpl$delayVTC" transform="translate(127.625, 40)" class="sprotty-hidden hidden" style="display:block;"/><g id="sprotty_ArchitectureBlockImpl$work.carryDelay(behavioral)/ProcessBlockImpl$nextStateLogic/GPortImpl$delayCE" transform="translate(127.625, 30)" class="sprotty-hidden hidden" style="display:block;"/><g id="sprotty_ArchitectureBlockImpl$work.carryDelay(behavioral)/ProcessBlockImpl$nextStateLogic/GPortImpl$cnt_next" transform="translate(127.625, 60)" class="sprotty-hidden hidden" style="display:block;"/><g id="sprotty_ArchitectureBlockImpl$work.carryDelay(behavioral)/ProcessBlockImpl$nextStateLogic/GPortImpl$incDecSave_next" transform="translate(127.625, 50)" class="sprotty-hidden hidden" style="display:block;"/></g><g id="sprotty_ArchitectureBlockImpl$work.carryDelay(behavioral)/InstantiationBlockImpl$inst_IDELAYCTRL" transform="translate(96.734375, 205.85714285714286)" class="instantiation"><g class="sprotty-block" style="fill:rgb(255, 255, 255);stroke:rgb(48, 48, 48);stroke-dasharray:0px;"><rect x="0" y="0" rx="1" ry="1" width="249.765625" height="84"/><text x="124.8828125" y="12" class="sprotty-block-name" style="cursor:pointer;font-weight:bold;perspective-origin:125.25px 0px;fill:rgb(48, 48, 48);stroke:rgba(0, 0, 0, 0);dominant-baseline:middle;text-anchor:middle;">inst_IDELAYCTRL : IDELAYCTRL</text><line x1="0" y1="20" x2="249.765625" y2="20"/></g><g id="sprotty_ArchitectureBlockImpl$work.carryDelay(behavioral)/InstantiationBlockImpl$inst_IDELAYCTRL/BPortImpl$RST" transform="translate(0, 66)" class="triangle"><path d="M 0,0 L 5,2.5 L 0,5 Z" transform="translate(-1.67, -2.5)" class="sprotty-port" style="fill:rgb(48, 48, 48);stroke:rgb(48, 48, 48);"/><text class="clickable sprotty-label port" id="sprotty_ArchitectureBlockImpl$work.carryDelay(behavioral)/InstantiationBlockImpl$inst_IDELAYCTRL/BPortImpl$RST/label" transform="translate(6, -9) translate(10.75, 14)" style="cursor:default;font-size:12px;perspective-origin:0.90625px 0px;fill:rgb(48, 48, 48);text-anchor:middle;">RST</text></g><g id="sprotty_ArchitectureBlockImpl$work.carryDelay(behavioral)/InstantiationBlockImpl$inst_IDELAYCTRL/BPortImpl$REFCLK" transform="translate(0, 38)" class="triangle"><path d="M 0,0 L 5,2.5 L 0,5 Z" transform="translate(-1.67, -2.5)" class="sprotty-port" style="fill:rgb(48, 48, 48);stroke:rgb(48, 48, 48);"/><text class="clickable sprotty-label port" id="sprotty_ArchitectureBlockImpl$work.carryDelay(behavioral)/InstantiationBlockImpl$inst_IDELAYCTRL/BPortImpl$REFCLK/label" transform="translate(6, -9) translate(21.53125, 14)" style="cursor:default;font-size:12px;perspective-origin:0.625px 0px;fill:rgb(48, 48, 48);text-anchor:middle;">REFCLK</text></g><g id="sprotty_ArchitectureBlockImpl$work.carryDelay(behavioral)/InstantiationBlockImpl$inst_IDELAYCTRL/BPortImpl$RDY" transform="translate(249.765625, 52)" class="triangle"><path d="M 0,0 L 5,2.5 L 0,5 Z" transform="translate(-1.67, -2.5)" class="sprotty-port" style="fill:rgb(48, 48, 48);stroke:rgb(48, 48, 48);"/><text class="clickable sprotty-label port" id="sprotty_ArchitectureBlockImpl$work.carryDelay(behavioral)/InstantiationBlockImpl$inst_IDELAYCTRL/BPortImpl$RDY/label" transform="translate(-29.59375, -9) translate(10.984375, 14)" style="cursor:default;font-size:12px;perspective-origin:0.8125px 0px;fill:rgb(48, 48, 48);text-anchor:middle;">RDY</text></g></g><g id="sprotty_ArchitectureBlockImpl$work.carryDelay(behavioral)/InstantiationBlockImpl$inst_IDELAYE3" transform="translate(749.390625, 95)" class="instantiation"><g class="sprotty-block" style="fill:rgb(255, 255, 255);stroke:rgb(48, 48, 48);stroke-dasharray:0px;"><rect x="0" y="0" rx="1" ry="1" width="207.90625" height="336"/><text x="103.953125" y="12" class="sprotty-block-name" style="cursor:pointer;font-weight:bold;perspective-origin:104.219px 0px;fill:rgb(48, 48, 48);stroke:rgba(0, 0, 0, 0);dominant-baseline:middle;text-anchor:middle;">inst_IDELAYE3 : IDELAYE3</text><line x1="0" y1="20" x2="207.90625" y2="20"/></g><g id="sprotty_ArchitectureBlockImpl$work.carryDelay(behavioral)/InstantiationBlockImpl$inst_IDELAYE3/BPortImpl$RST" transform="translate(0, 318)" class="triangle"><path d="M 0,0 L 5,2.5 L 0,5 Z" transform="translate(-1.67, -2.5)" class="sprotty-port" style="fill:rgb(48, 48, 48);stroke:rgb(48, 48, 48);"/><text class="clickable sprotty-label port" id="sprotty_ArchitectureBlockImpl$work.carryDelay(behavioral)/InstantiationBlockImpl$inst_IDELAYE3/BPortImpl$RST/label" transform="translate(6, -9) translate(10.75, 14)" style="cursor:default;font-size:12px;perspective-origin:0.90625px 0px;fill:rgb(48, 48, 48);text-anchor:middle;">RST</text></g><g id="sprotty_ArchitectureBlockImpl$work.carryDelay(behavioral)/InstantiationBlockImpl$inst_IDELAYE3/BPortImpl$LOAD" transform="translate(0, 290)" class="triangle"><path d="M 0,0 L 5,2.5 L 0,5 Z" transform="translate(-1.67, -2.5)" class="sprotty-port" style="fill:rgb(48, 48, 48);stroke:rgb(48, 48, 48);"/><text class="clickable sprotty-label port" id="sprotty_ArchitectureBlockImpl$work.carryDelay(behavioral)/InstantiationBlockImpl$inst_IDELAYE3/BPortImpl$LOAD/label" transform="translate(6, -9) translate(15.21875, 14)" style="cursor:default;font-size:12px;perspective-origin:0.375px 0px;fill:rgb(48, 48, 48);text-anchor:middle;">LOAD</text></g><g id="sprotty_ArchitectureBlockImpl$work.carryDelay(behavioral)/InstantiationBlockImpl$inst_IDELAYE3/BPortImpl$INC" transform="translate(0, 262)" class="triangle"><path d="M 0,0 L 5,2.5 L 0,5 Z" transform="translate(-1.67, -2.5)" class="sprotty-port" style="fill:rgb(48, 48, 48);stroke:rgb(48, 48, 48);"/><text class="clickable sprotty-label port" id="sprotty_ArchitectureBlockImpl$work.carryDelay(behavioral)/InstantiationBlockImpl$inst_IDELAYE3/BPortImpl$INC/label" transform="translate(6, -9) translate(9.90625, 14)" style="cursor:default;font-size:12px;perspective-origin:0.671875px 0px;fill:rgb(48, 48, 48);text-anchor:middle;">INC</text></g><g id="sprotty_ArchitectureBlockImpl$work.carryDelay(behavioral)/InstantiationBlockImpl$inst_IDELAYE3/BPortImpl$IDATAIN" transform="translate(0, 234)" class="triangle"><path d="M 0,0 L 5,2.5 L 0,5 Z" transform="translate(-1.67, -2.5)" class="sprotty-port" style="fill:rgb(48, 48, 48);stroke:rgb(48, 48, 48);"/><text class="clickable sprotty-label port" id="sprotty_ArchitectureBlockImpl$work.carryDelay(behavioral)/InstantiationBlockImpl$inst_IDELAYE3/BPortImpl$IDATAIN/label" transform="translate(6, -9) translate(22.140625, 14)" style="cursor:default;font-size:12px;perspective-origin:0.171875px 0px;fill:rgb(48, 48, 48);text-anchor:middle;">IDATAIN</text></g><g id="sprotty_ArchitectureBlockImpl$work.carryDelay(behavioral)/InstantiationBlockImpl$inst_IDELAYE3/BPortImpl$EN_VTC" transform="translate(0, 206)" class="triangle"><path d="M 0,0 L 5,2.5 L 0,5 Z" transform="translate(-1.67, -2.5)" class="sprotty-port" style="fill:rgb(48, 48, 48);stroke:rgb(48, 48, 48);"/><text class="clickable sprotty-label port" id="sprotty_ArchitectureBlockImpl$work.carryDelay(behavioral)/InstantiationBlockImpl$inst_IDELAYE3/BPortImpl$EN_VTC/label" transform="translate(6, -9) translate(21.921875, 14)" style="cursor:default;font-size:12px;perspective-origin:0.671875px 0px;fill:rgb(48, 48, 48);text-anchor:middle;">EN_VTC</text></g><g id="sprotty_ArchitectureBlockImpl$work.carryDelay(behavioral)/InstantiationBlockImpl$inst_IDELAYE3/BPortImpl$DATAIN" transform="translate(0, 178)" class="triangle"><path d="M 0,0 L 5,2.5 L 0,5 Z" transform="translate(-1.67, -2.5)" class="sprotty-port" style="fill:rgb(48, 48, 48);stroke:rgb(48, 48, 48);"/><text class="clickable sprotty-label port" id="sprotty_ArchitectureBlockImpl$work.carryDelay(behavioral)/InstantiationBlockImpl$inst_IDELAYE3/BPortImpl$DATAIN/label" transform="translate(6, -9) translate(20.375, 14)" style="cursor:default;font-size:12px;perspective-origin:0.171875px 0px;fill:rgb(48, 48, 48);text-anchor:middle;">DATAIN</text></g><g id="sprotty_ArchitectureBlockImpl$work.carryDelay(behavioral)/InstantiationBlockImpl$inst_IDELAYE3/BPortImpl$CNTVALUEIN" transform="translate(0, 150)" class="triangle"><path d="M 0,0 L 5,2.5 L 0,5 Z" transform="translate(-1.67, -2.5)" class="sprotty-port" style="fill:rgb(48, 48, 48);stroke:rgb(48, 48, 48);"/><text class="clickable sprotty-label port" id="sprotty_ArchitectureBlockImpl$work.carryDelay(behavioral)/InstantiationBlockImpl$inst_IDELAYE3/BPortImpl$CNTVALUEIN/label" transform="translate(6, -9) translate(36.75, 14)" style="cursor:default;font-size:12px;perspective-origin:-0.328125px 0px;fill:rgb(48, 48, 48);text-anchor:middle;">CNTVALUEIN</text></g><g id="sprotty_ArchitectureBlockImpl$work.carryDelay(behavioral)/InstantiationBlockImpl$inst_IDELAYE3/BPortImpl$CLK" transform="translate(0, 122)" class="triangle"><path d="M 0,0 L 5,2.5 L 0,5 Z" transform="translate(-1.67, -2.5)" class="sprotty-port" style="fill:rgb(48, 48, 48);stroke:rgb(48, 48, 48);"/><text class="clickable sprotty-label port" id="sprotty_ArchitectureBlockImpl$work.carryDelay(behavioral)/InstantiationBlockImpl$inst_IDELAYE3/BPortImpl$CLK/label" transform="translate(6, -9) translate(11.953125, 14)" style="cursor:default;font-size:12px;perspective-origin:0.125px 0px;fill:rgb(48, 48, 48);text-anchor:middle;">CLK</text></g><g id="sprotty_ArchitectureBlockImpl$work.carryDelay(behavioral)/InstantiationBlockImpl$inst_IDELAYE3/BPortImpl$CE" transform="translate(0, 94)" class="triangle"><path d="M 0,0 L 5,2.5 L 0,5 Z" transform="translate(-1.67, -2.5)" class="sprotty-port" style="fill:rgb(48, 48, 48);stroke:rgb(48, 48, 48);"/><text class="clickable sprotty-label port" id="sprotty_ArchitectureBlockImpl$work.carryDelay(behavioral)/InstantiationBlockImpl$inst_IDELAYE3/BPortImpl$CE/label" transform="translate(6, -9) translate(8.34375, 14)" style="cursor:default;font-size:12px;perspective-origin:-0.015625px 0px;fill:rgb(48, 48, 48);text-anchor:middle;">CE</text></g><g id="sprotty_ArchitectureBlockImpl$work.carryDelay(behavioral)/InstantiationBlockImpl$inst_IDELAYE3/BPortImpl$CASC_RETURN" transform="translate(0, 66)" class="triangle"><path d="M 0,0 L 5,2.5 L 0,5 Z" transform="translate(-1.67, -2.5)" class="sprotty-port" style="fill:rgb(48, 48, 48);stroke:rgb(48, 48, 48);"/><text class="clickable sprotty-label port" id="sprotty_ArchitectureBlockImpl$work.carryDelay(behavioral)/InstantiationBlockImpl$inst_IDELAYE3/BPortImpl$CASC_RETURN/label" transform="translate(6, -9) translate(42.625, 14)" style="cursor:default;font-size:12px;perspective-origin:-0.328125px 0px;fill:rgb(48, 48, 48);text-anchor:middle;">CASC_RETURN</text></g><g id="sprotty_ArchitectureBlockImpl$work.carryDelay(behavioral)/InstantiationBlockImpl$inst_IDELAYE3/BPortImpl$CASC_IN" transform="translate(0, 38)" class="triangle"><path d="M 0,0 L 5,2.5 L 0,5 Z" transform="translate(-1.67, -2.5)" class="sprotty-port" style="fill:rgb(48, 48, 48);stroke:rgb(48, 48, 48);"/><text class="clickable sprotty-label port" id="sprotty_ArchitectureBlockImpl$work.carryDelay(behavioral)/InstantiationBlockImpl$inst_IDELAYE3/BPortImpl$CASC_IN/label" transform="translate(6, -9) translate(25.3125, 14)" style="cursor:default;font-size:12px;perspective-origin:-0.328125px 0px;fill:rgb(48, 48, 48);text-anchor:middle;">CASC_IN</text></g><g id="sprotty_ArchitectureBlockImpl$work.carryDelay(behavioral)/InstantiationBlockImpl$inst_IDELAYE3/BPortImpl$CASC_OUT" transform="translate(207.90625, 38)" class="triangle"><path d="M 0,0 L 5,2.5 L 0,5 Z" transform="translate(-1.67, -2.5)" class="sprotty-port" style="fill:rgb(48, 48, 48);stroke:rgb(48, 48, 48);"/><text class="clickable sprotty-label port" id="sprotty_ArchitectureBlockImpl$work.carryDelay(behavioral)/InstantiationBlockImpl$inst_IDELAYE3/BPortImpl$CASC_OUT/label" transform="translate(-70.015625, -9) translate(31.59375, 14)" style="cursor:default;font-size:12px;perspective-origin:0.40625px 0px;fill:rgb(48, 48, 48);text-anchor:middle;">CASC_OUT</text></g><g id="sprotty_ArchitectureBlockImpl$work.carryDelay(behavioral)/InstantiationBlockImpl$inst_IDELAYE3/BPortImpl$CNTVALUEOUT" transform="translate(207.90625, 178)" class="triangle"><path d="M 0,0 L 5,2.5 L 0,5 Z" transform="translate(-1.67, -2.5)" class="sprotty-port" style="fill:rgb(48, 48, 48);stroke:rgb(48, 48, 48);"/><text class="clickable sprotty-label port" id="sprotty_ArchitectureBlockImpl$work.carryDelay(behavioral)/InstantiationBlockImpl$inst_IDELAYE3/BPortImpl$CNTVALUEOUT/label" transform="translate(-92.890625, -9) translate(43.03125, 14)" style="cursor:default;font-size:12px;perspective-origin:0.40625px 0px;fill:rgb(48, 48, 48);text-anchor:middle;">CNTVALUEOUT</text></g><g id="sprotty_ArchitectureBlockImpl$work.carryDelay(behavioral)/InstantiationBlockImpl$inst_IDELAYE3/BPortImpl$DATAOUT" transform="translate(207.90625, 318)" class="triangle"><path d="M 0,0 L 5,2.5 L 0,5 Z" transform="translate(-1.67, -2.5)" class="sprotty-port" style="fill:rgb(48, 48, 48);stroke:rgb(48, 48, 48);"/><text class="clickable sprotty-label port" id="sprotty_ArchitectureBlockImpl$work.carryDelay(behavioral)/InstantiationBlockImpl$inst_IDELAYE3/BPortImpl$DATAOUT/label" transform="translate(-61.015625, -9) translate(26.59375, 14)" style="cursor:default;font-size:12px;perspective-origin:0.90625px 0px;fill:rgb(48, 48, 48);text-anchor:middle;">DATAOUT</text></g></g><g id="sprotty_ArchitectureBlockImpl$work.carryDelay(behavioral)/GPortImpl$reset" transform="translate(0, 271.8571428571429)" class="triangle"><path d="M 0,0 L 5,2.5 L 0,5 Z" transform="translate(-1.67, -2.5)" class="sprotty-port" style="fill:rgb(48, 48, 48);stroke:rgb(48, 48, 48);"/><text class="clickable sprotty-label port" id="sprotty_ArchitectureBlockImpl$work.carryDelay(behavioral)/GPortImpl$reset/label" transform="translate(6, 6) translate(13.90625, 14)" style="cursor:default;font-size:12px;perspective-origin:0.734375px 0px;fill:rgb(48, 48, 48);text-anchor:middle;">reset</text></g><g id="sprotty_ArchitectureBlockImpl$work.carryDelay(behavioral)/GPortImpl$clk" transform="translate(0, 36)" class="triangle"><path d="M 0,0 L 5,2.5 L 0,5 Z" transform="translate(-1.67, -2.5)" class="sprotty-port" style="fill:rgb(48, 48, 48);stroke:rgb(48, 48, 48);"/><text class="clickable sprotty-label port" id="sprotty_ArchitectureBlockImpl$work.carryDelay(behavioral)/GPortImpl$clk/label" transform="translate(6, 6) translate(9.0625, 14)" style="cursor:default;font-size:12px;perspective-origin:0.1875px 0px;fill:rgb(48, 48, 48);text-anchor:middle;">clk</text></g><g id="sprotty_ArchitectureBlockImpl$work.carryDelay(behavioral)/GPortImpl$incDec_in" transform="translate(0, 339.8571428571429)" class="triangle"><path d="M 0,0 L 5,2.5 L 0,5 Z" transform="translate(-1.67, -2.5)" class="sprotty-port" style="fill:rgb(48, 48, 48);stroke:rgb(48, 48, 48);"/><text class="clickable sprotty-label port" id="sprotty_ArchitectureBlockImpl$work.carryDelay(behavioral)/GPortImpl$incDec_in/label" transform="translate(6, 6) translate(27.53125, 14)" style="cursor:default;font-size:12px;perspective-origin:0.328125px 0px;fill:rgb(48, 48, 48);text-anchor:middle;">incDec_in</text></g><g id="sprotty_ArchitectureBlockImpl$work.carryDelay(behavioral)/GPortImpl$start_in" transform="translate(0, 305.8571428571429)" class="triangle"><path d="M 0,0 L 5,2.5 L 0,5 Z" transform="translate(-1.67, -2.5)" class="sprotty-port" style="fill:rgb(48, 48, 48);stroke:rgb(48, 48, 48);"/><text class="clickable sprotty-label port" id="sprotty_ArchitectureBlockImpl$work.carryDelay(behavioral)/GPortImpl$start_in/label" transform="translate(6, 6) translate(22.4375, 14)" style="cursor:default;font-size:12px;perspective-origin:-0.171875px 0px;fill:rgb(48, 48, 48);text-anchor:middle;">start_in</text></g><g id="sprotty_ArchitectureBlockImpl$work.carryDelay(behavioral)/GPortImpl$data_in" transform="translate(0, 404)" class="triangle"><path d="M 0,0 L 5,2.5 L 0,5 Z" transform="translate(-1.67, -2.5)" class="sprotty-port" style="fill:rgb(48, 48, 48);stroke:rgb(48, 48, 48);"/><text class="clickable sprotty-label port" id="sprotty_ArchitectureBlockImpl$work.carryDelay(behavioral)/GPortImpl$data_in/label" transform="translate(6, 6) translate(22.171875, 14)" style="cursor:default;font-size:12px;perspective-origin:-0.15625px 0px;fill:rgb(48, 48, 48);text-anchor:middle;">data_in</text></g><g id="sprotty_ArchitectureBlockImpl$work.carryDelay(behavioral)/GPortImpl$data_out" transform="translate(1080.453125, 413)" class="triangle"><path d="M 0,0 L 5,2.5 L 0,5 Z" transform="translate(-1.67, -2.5)" class="sprotty-port" style="fill:rgb(48, 48, 48);stroke:rgb(48, 48, 48);"/><text class="clickable sprotty-label port" id="sprotty_ArchitectureBlockImpl$work.carryDelay(behavioral)/GPortImpl$data_out/label" transform="translate(-59.28125, 6) translate(26.40625, 14)" style="cursor:default;font-size:12px;perspective-origin:0.234375px 0px;fill:rgb(48, 48, 48);text-anchor:middle;">data_out</text></g><g id="sprotty_ArchitectureBlockImpl$work.carryDelay(behavioral)/GPortImpl$ready_out" transform="translate(1080.453125, 83)" class="triangle"><path d="M 0,0 L 5,2.5 L 0,5 Z" transform="translate(-1.67, -2.5)" class="sprotty-port" style="fill:rgb(48, 48, 48);stroke:rgb(48, 48, 48);"/><text class="clickable sprotty-label port" id="sprotty_ArchitectureBlockImpl$work.carryDelay(behavioral)/GPortImpl$ready_out/label" transform="translate(-64.703125, 6) translate(28.609375, 14)" style="cursor:default;font-size:12px;perspective-origin:0.734375px 0px;fill:rgb(48, 48, 48);text-anchor:middle;">ready_out</text></g><g id="sprotty_ArchitectureBlockImpl$work.carryDelay(behavioral)/GPortImpl$idelayCtrlRdy_out" transform="translate(1080.453125, 49)" class="triangle"><path d="M 0,0 L 5,2.5 L 0,5 Z" transform="translate(-1.67, -2.5)" class="sprotty-port" style="fill:rgb(48, 48, 48);stroke:rgb(48, 48, 48);"/><text class="clickable sprotty-label port" id="sprotty_ArchitectureBlockImpl$work.carryDelay(behavioral)/GPortImpl$idelayCtrlRdy_out/label" transform="translate(-108.15625, 6) translate(50.34375, 14)" style="cursor:default;font-size:12px;perspective-origin:0.734375px 0px;fill:rgb(48, 48, 48);text-anchor:middle;">idelayCtrlRdy_out</text></g><g id="sprotty_ArchitectureBlockImpl$work.carryDelay(behavioral)/GPortImpl$delayTaps_out" transform="translate(1080.453125, 273)" class="triangle"><path d="M 0,0 L 5,2.5 L 0,5 Z" transform="translate(-1.67, -2.5)" class="sprotty-port" style="fill:rgb(48, 48, 48);stroke:rgb(48, 48, 48);"/><text class="clickable sprotty-label port" id="sprotty_ArchitectureBlockImpl$work.carryDelay(behavioral)/GPortImpl$delayTaps_out/label" transform="translate(-90.5625, 6) translate(42.03125, 14)" style="cursor:default;font-size:12px;perspective-origin:0.25px 0px;fill:rgb(48, 48, 48);text-anchor:middle;">delayTaps_out</text></g></g></g></svg>