<svg xmlns="http://www.w3.org/2000/svg" id="sprotty_work.inlCorrectionCalc.behavioral" class="sprotty-graph sprotty-block-diagram blockdiagram" style="font-family:&quot;Noto Sans&quot;, Helvetica, Arial, sans-serif;perspective-origin:0px 0px;transform-origin:0px 0px;" version="1.1" viewBox="7 7 426.734375 254" width="426.734375" height="254"><g transform="scale(1) translate(0,0)"><g id="sprotty_ArchitectureBlockImpl$work.inlCorrectionCalc(behavioral)" transform="translate(12, 12)" class="architecture"><g class="sprotty-block" style="fill:rgb(255, 255, 255);stroke:rgb(48, 48, 48);stroke-dasharray:0px;"><rect x="0" y="0" rx="1" ry="1" width="416.734375" height="244"/><text x="208.3671875" y="12" class="sprotty-block-name" style="cursor:pointer;font-weight:bold;perspective-origin:207.859px 0px;fill:rgb(48, 48, 48);stroke:rgba(0, 0, 0, 0);dominant-baseline:middle;text-anchor:middle;">work.inlCorrectionCalc(behavioral)</text><line x1="0" y1="20" x2="416.734375" y2="20"/></g><g id="sprotty_ArchitectureBlockImpl$work.inlCorrectionCalc(behavioral)/GPortImpl$inlData_in_to_ArchitectureBlockImpl$work.inlCorrectionCalc(behavioral)/ProcessBlockImpl$corrPipe/GPortImpl$inlData_in" class="sprotty-edge thick edge" style="fill:none;stroke:rgb(112, 112, 112);stroke-linejoin:round;stroke-width:3px;"><g><path d="M 0 35 L 182.421875 35 C 183.421875 35 184.421875 36 184.421875 37 L 184.421875 81 C 184.421875 82 185.421875 83 186.421875 83 L 204.421875 83 "/><path d="M 0 35 L 182.421875 35 C 183.421875 35 184.421875 36 184.421875 37 L 184.421875 81 C 184.421875 82 185.421875 83 186.421875 83 L 204.421875 83 " class="clickable"/></g></g><g id="sprotty_ArchitectureBlockImpl$work.inlCorrectionCalc(behavioral)/GPortImpl$minLengthCarryChain_in_to_ArchitectureBlockImpl$work.inlCorrectionCalc(behavioral)/ProcessBlockImpl$corrPipe/GPortImpl$minLengthCarryChain_in" class="sprotty-edge thick edge" style="fill:none;stroke:rgb(112, 112, 112);stroke-linejoin:round;stroke-width:3px;"><g><path d="M 0 205 L 192.421875 205 C 193.421875 205 194.421875 204 194.421875 203 L 194.421875 135 C 194.421875 134 195.421875 133 196.421875 133 L 204.421875 133 "/><path d="M 0 205 L 192.421875 205 C 193.421875 205 194.421875 204 194.421875 203 L 194.421875 135 C 194.421875 134 195.421875 133 196.421875 133 L 204.421875 133 " class="clickable"/></g></g><g id="sprotty_ArchitectureBlockImpl$work.inlCorrectionCalc(behavioral)/GPortImpl$maxLengthCarryChain_in_to_ArchitectureBlockImpl$work.inlCorrectionCalc(behavioral)/ProcessBlockImpl$corrPipe/GPortImpl$maxLengthCarryChain_in" class="sprotty-edge thick edge" style="fill:none;stroke:rgb(112, 112, 112);stroke-linejoin:round;stroke-width:3px;"><g><path d="M 0 171 L 182.421875 171 C 183.421875 171 184.421875 170 184.421875 169 L 184.421875 125 C 184.421875 124 185.421875 123 186.421875 123 L 204.421875 123 "/><path d="M 0 171 L 182.421875 171 C 183.421875 171 184.421875 170 184.421875 169 L 184.421875 125 C 184.421875 124 185.421875 123 186.421875 123 L 204.421875 123 " class="clickable"/></g></g><g id="sprotty_ArchitectureBlockImpl$work.inlCorrectionCalc(behavioral)/GPortImpl$transition_in_to_ArchitectureBlockImpl$work.inlCorrectionCalc(behavioral)/ProcessBlockImpl$corrPipe/GPortImpl$transition_in" class="sprotty-edge thick edge" style="fill:none;stroke:rgb(112, 112, 112);stroke-linejoin:round;stroke-width:3px;"><g><path d="M 0 137 L 172.421875 137 C 173.421875 137 174.421875 136 174.421875 135 L 174.421875 115 C 174.421875 114 175.421875 113 176.421875 113 L 204.421875 113 "/><path d="M 0 137 L 172.421875 137 C 173.421875 137 174.421875 136 174.421875 135 L 174.421875 115 C 174.421875 114 175.421875 113 176.421875 113 L 204.421875 113 " class="clickable"/></g></g><g id="sprotty_ArchitectureBlockImpl$work.inlCorrectionCalc(behavioral)/GPortImpl$dataValid_in_to_ArchitectureBlockImpl$work.inlCorrectionCalc(behavioral)/ProcessBlockImpl$corrPipe/GPortImpl$dataValid_in" class="sprotty-edge edge" style="fill:none;stroke:rgb(112, 112, 112);stroke-linejoin:round;"><g><path d="M 0 103 L 204.421875 103 "/><path d="M 0 103 L 204.421875 103 " class="clickable"/></g></g><g id="sprotty_ArchitectureBlockImpl$work.inlCorrectionCalc(behavioral)/GPortImpl$clk_to_ArchitectureBlockImpl$work.inlCorrectionCalc(behavioral)/ProcessBlockImpl$corrPipe/GPortImpl$clk" class="sprotty-edge edge" style="fill:none;stroke:rgb(112, 112, 112);stroke-linejoin:round;"><g><path d="M 0 69 L 172.421875 69 C 173.421875 69 174.421875 70 174.421875 71 L 174.421875 91 C 174.421875 92 175.421875 93 176.421875 93 L 204.421875 93 "/><path d="M 0 69 L 172.421875 69 C 173.421875 69 174.421875 70 174.421875 71 L 174.421875 91 C 174.421875 92 175.421875 93 176.421875 93 L 204.421875 93 " class="clickable"/></g></g><g id="sprotty_ArchitectureBlockImpl$work.inlCorrectionCalc(behavioral)/ProcessBlockImpl$corrPipe/GPortImpl$inlAddr_out_to_ArchitectureBlockImpl$work.inlCorrectionCalc(behavioral)/GPortImpl$inlAddr_out" class="sprotty-edge thick edge" style="fill:none;stroke:rgb(112, 112, 112);stroke-linejoin:round;stroke-width:3px;"><g><path d="M 283.171875 108 L 301.171875 108 C 302.171875 108 303.171875 109 303.171875 110 L 303.171875 122.5 C 303.171875 123.5 304.171875 124.5 305.171875 124.5 L 416.734375 124.5 "/><path d="M 283.171875 108 L 301.171875 108 C 302.171875 108 303.171875 109 303.171875 110 L 303.171875 122.5 C 303.171875 123.5 304.171875 124.5 305.171875 124.5 L 416.734375 124.5 " class="clickable"/></g></g><g id="sprotty_ArchitectureBlockImpl$work.inlCorrectionCalc(behavioral)/ProcessBlockImpl$corrPipe/GPortImpl$transition_out_to_ArchitectureBlockImpl$work.inlCorrectionCalc(behavioral)/GPortImpl$transition_out" class="sprotty-edge thick edge" style="fill:none;stroke:rgb(112, 112, 112);stroke-linejoin:round;stroke-width:3px;"><g><path d="M 283.171875 125.5 L 291.171875 125.5 C 292.171875 125.5 293.171875 126.5 293.171875 127.5 L 293.171875 156.5 C 293.171875 157.5 294.171875 158.5 295.171875 158.5 L 416.734375 158.5 "/><path d="M 283.171875 125.5 L 291.171875 125.5 C 292.171875 125.5 293.171875 126.5 293.171875 127.5 L 293.171875 156.5 C 293.171875 157.5 294.171875 158.5 295.171875 158.5 L 416.734375 158.5 " class="clickable"/></g></g><g id="sprotty_ArchitectureBlockImpl$work.inlCorrectionCalc(behavioral)/ProcessBlockImpl$corrPipe/GPortImpl$dataValid_out_to_ArchitectureBlockImpl$work.inlCorrectionCalc(behavioral)/GPortImpl$dataValid_out" class="sprotty-edge edge" style="fill:none;stroke:rgb(112, 112, 112);stroke-linejoin:round;"><g><path d="M 283.171875 90.5 L 416.734375 90.5 "/><path d="M 283.171875 90.5 L 416.734375 90.5 " class="clickable"/></g></g><g id="sprotty_ArchitectureBlockImpl$work.inlCorrectionCalc(behavioral)/ProcessBlockImpl$corrPipe" transform="translate(204.421875, 73)" class="statement"><rect x="0" y="0" rx="10" ry="5" width="78.75" height="70" class="sprotty-node" style="fill:rgb(245, 245, 245);stroke:rgb(112, 112, 112);"/><text class="clickable sprotty-label statementtext" id="sprotty_ArchitectureBlockImpl$work.inlCorrectionCalc(behavioral)/ProcessBlockImpl$corrPipe/labeltext" transform="translate(5, 23) translate(34.515625, 19)" style="cursor:default;font-weight:bold;perspective-origin:-0.140625px 0px;fill:rgb(112, 112, 112);text-anchor:middle;">corrPipe</text><g id="sprotty_ArchitectureBlockImpl$work.inlCorrectionCalc(behavioral)/ProcessBlockImpl$corrPipe/GPortImpl$clk" transform="translate(0, 20)" class="sprotty-hidden hidden" style="display:block;"/><g id="sprotty_ArchitectureBlockImpl$work.inlCorrectionCalc(behavioral)/ProcessBlockImpl$corrPipe/GPortImpl$dataValid_in" transform="translate(0, 30)" class="sprotty-hidden hidden" style="display:block;"/><g id="sprotty_ArchitectureBlockImpl$work.inlCorrectionCalc(behavioral)/ProcessBlockImpl$corrPipe/GPortImpl$transition_in" transform="translate(0, 40)" class="sprotty-hidden hidden" style="display:block;"/><g id="sprotty_ArchitectureBlockImpl$work.inlCorrectionCalc(behavioral)/ProcessBlockImpl$corrPipe/GPortImpl$maxLengthCarryChain_in" transform="translate(0, 50)" class="sprotty-hidden hidden" style="display:block;"/><g id="sprotty_ArchitectureBlockImpl$work.inlCorrectionCalc(behavioral)/ProcessBlockImpl$corrPipe/GPortImpl$minLengthCarryChain_in" transform="translate(0, 60)" class="sprotty-hidden hidden" style="display:block;"/><g id="sprotty_ArchitectureBlockImpl$work.inlCorrectionCalc(behavioral)/ProcessBlockImpl$corrPipe/GPortImpl$inlData_in" transform="translate(0, 10)" class="sprotty-hidden hidden" style="display:block;"/><g id="sprotty_ArchitectureBlockImpl$work.inlCorrectionCalc(behavioral)/ProcessBlockImpl$corrPipe/GPortImpl$inlAddr_out" transform="translate(78.75, 35)" class="sprotty-hidden hidden" style="display:block;"/><g id="sprotty_ArchitectureBlockImpl$work.inlCorrectionCalc(behavioral)/ProcessBlockImpl$corrPipe/GPortImpl$transition_out" transform="translate(78.75, 52.5)" class="sprotty-hidden hidden" style="display:block;"/><g id="sprotty_ArchitectureBlockImpl$work.inlCorrectionCalc(behavioral)/ProcessBlockImpl$corrPipe/GPortImpl$dataValid_out" transform="translate(78.75, 17.5)" class="sprotty-hidden hidden" style="display:block;"/></g><g id="sprotty_ArchitectureBlockImpl$work.inlCorrectionCalc(behavioral)/GPortImpl$clk" transform="translate(0, 69)" class="triangle"><path d="M 0,0 L 5,2.5 L 0,5 Z" transform="translate(-1.67, -2.5)" class="sprotty-port" style="fill:rgb(48, 48, 48);stroke:rgb(48, 48, 48);"/><text class="clickable sprotty-label port" id="sprotty_ArchitectureBlockImpl$work.inlCorrectionCalc(behavioral)/GPortImpl$clk/label" transform="translate(6, 6) translate(9.0625, 14)" style="cursor:default;font-size:12px;perspective-origin:0.1875px 0px;fill:rgb(48, 48, 48);text-anchor:middle;">clk</text></g><g id="sprotty_ArchitectureBlockImpl$work.inlCorrectionCalc(behavioral)/GPortImpl$dataValid_in" transform="translate(0, 103)" class="triangle"><path d="M 0,0 L 5,2.5 L 0,5 Z" transform="translate(-1.67, -2.5)" class="sprotty-port" style="fill:rgb(48, 48, 48);stroke:rgb(48, 48, 48);"/><text class="clickable sprotty-label port" id="sprotty_ArchitectureBlockImpl$work.inlCorrectionCalc(behavioral)/GPortImpl$dataValid_in/label" transform="translate(6, 6) translate(35.828125, 14)" style="cursor:default;font-size:12px;perspective-origin:-0.15625px 0px;fill:rgb(48, 48, 48);text-anchor:middle;">dataValid_in</text></g><g id="sprotty_ArchitectureBlockImpl$work.inlCorrectionCalc(behavioral)/GPortImpl$transition_in" transform="translate(0, 137)" class="triangle"><path d="M 0,0 L 5,2.5 L 0,5 Z" transform="translate(-1.67, -2.5)" class="sprotty-port" style="fill:rgb(48, 48, 48);stroke:rgb(48, 48, 48);"/><text class="clickable sprotty-label port" id="sprotty_ArchitectureBlockImpl$work.inlCorrectionCalc(behavioral)/GPortImpl$transition_in/label" transform="translate(6, 6) translate(36.8125, 14)" style="cursor:default;font-size:12px;perspective-origin:-0.15625px 0px;fill:rgb(48, 48, 48);text-anchor:middle;">transition_in</text></g><g id="sprotty_ArchitectureBlockImpl$work.inlCorrectionCalc(behavioral)/GPortImpl$maxLengthCarryChain_in" transform="translate(0, 171)" class="triangle"><path d="M 0,0 L 5,2.5 L 0,5 Z" transform="translate(-1.67, -2.5)" class="sprotty-port" style="fill:rgb(48, 48, 48);stroke:rgb(48, 48, 48);"/><text class="clickable sprotty-label port" id="sprotty_ArchitectureBlockImpl$work.inlCorrectionCalc(behavioral)/GPortImpl$maxLengthCarryChain_in/label" transform="translate(6, 6) translate(71.375, 14)" style="cursor:default;font-size:12px;perspective-origin:0.328125px 0px;fill:rgb(48, 48, 48);text-anchor:middle;">maxLengthCarryChain_in</text></g><g id="sprotty_ArchitectureBlockImpl$work.inlCorrectionCalc(behavioral)/GPortImpl$minLengthCarryChain_in" transform="translate(0, 205)" class="triangle"><path d="M 0,0 L 5,2.5 L 0,5 Z" transform="translate(-1.67, -2.5)" class="sprotty-port" style="fill:rgb(48, 48, 48);stroke:rgb(48, 48, 48);"/><text class="clickable sprotty-label port" id="sprotty_ArchitectureBlockImpl$work.inlCorrectionCalc(behavioral)/GPortImpl$minLengthCarryChain_in/label" transform="translate(6, 6) translate(70.3125, 14)" style="cursor:default;font-size:12px;perspective-origin:0.34375px 0px;fill:rgb(48, 48, 48);text-anchor:middle;">minLengthCarryChain_in</text></g><g id="sprotty_ArchitectureBlockImpl$work.inlCorrectionCalc(behavioral)/GPortImpl$inlData_in" transform="translate(0, 35)" class="triangle"><path d="M 0,0 L 5,2.5 L 0,5 Z" transform="translate(-1.67, -2.5)" class="sprotty-port" style="fill:rgb(48, 48, 48);stroke:rgb(48, 48, 48);"/><text class="clickable sprotty-label port" id="sprotty_ArchitectureBlockImpl$work.inlCorrectionCalc(behavioral)/GPortImpl$inlData_in/label" transform="translate(6, 6) translate(28.609375, 14)" style="cursor:default;font-size:12px;perspective-origin:0.328125px 0px;fill:rgb(48, 48, 48);text-anchor:middle;">inlData_in</text></g><g id="sprotty_ArchitectureBlockImpl$work.inlCorrectionCalc(behavioral)/GPortImpl$inlAddr_out" transform="translate(416.734375, 124.5)" class="triangle"><path d="M 0,0 L 5,2.5 L 0,5 Z" transform="translate(-1.67, -2.5)" class="sprotty-port" style="fill:rgb(48, 48, 48);stroke:rgb(48, 48, 48);"/><text class="clickable sprotty-label port" id="sprotty_ArchitectureBlockImpl$work.inlCorrectionCalc(behavioral)/GPortImpl$inlAddr_out/label" transform="translate(-74.125, 6) translate(33.328125, 14)" style="cursor:default;font-size:12px;perspective-origin:0.734375px 0px;fill:rgb(48, 48, 48);text-anchor:middle;">inlAddr_out</text></g><g id="sprotty_ArchitectureBlockImpl$work.inlCorrectionCalc(behavioral)/GPortImpl$transition_out" transform="translate(416.734375, 158.5)" class="triangle"><path d="M 0,0 L 5,2.5 L 0,5 Z" transform="translate(-1.67, -2.5)" class="sprotty-port" style="fill:rgb(48, 48, 48);stroke:rgb(48, 48, 48);"/><text class="clickable sprotty-label port" id="sprotty_ArchitectureBlockImpl$work.inlCorrectionCalc(behavioral)/GPortImpl$transition_out/label" transform="translate(-88.5625, 6) translate(41.03125, 14)" style="cursor:default;font-size:12px;perspective-origin:0.25px 0px;fill:rgb(48, 48, 48);text-anchor:middle;">transition_out</text></g><g id="sprotty_ArchitectureBlockImpl$work.inlCorrectionCalc(behavioral)/GPortImpl$dataValid_out" transform="translate(416.734375, 90.5)" class="triangle"><path d="M 0,0 L 5,2.5 L 0,5 Z" transform="translate(-1.67, -2.5)" class="sprotty-port" style="fill:rgb(48, 48, 48);stroke:rgb(48, 48, 48);"/><text class="clickable sprotty-label port" id="sprotty_ArchitectureBlockImpl$work.inlCorrectionCalc(behavioral)/GPortImpl$dataValid_out/label" transform="translate(-86.59375, 6) translate(40.0625, 14)" style="cursor:default;font-size:12px;perspective-origin:0.234375px 0px;fill:rgb(48, 48, 48);text-anchor:middle;">dataValid_out</text></g></g></g></svg>