<svg xmlns="http://www.w3.org/2000/svg" id="sprotty_work.tdcSingle.behavioral" class="sprotty-graph sprotty-block-diagram blockdiagram" style="font-family:&quot;Noto Sans&quot;, Helvetica, Arial, sans-serif;perspective-origin:0px 0px;transform-origin:0px 0px;" version="1.1" viewBox="7 7 909.625 331" width="909.625" height="331"><g transform="scale(1) translate(0,0)"><g id="sprotty_ArchitectureBlockImpl$work.tdcSingle(behavioral)" transform="translate(12, 12)" class="architecture"><g class="sprotty-block" style="fill:rgb(255, 255, 255);stroke:rgb(48, 48, 48);stroke-dasharray:0px;"><rect x="0" y="0" rx="1" ry="1" width="899.625" height="321"/><text x="449.8125" y="12" class="sprotty-block-name" style="cursor:pointer;font-weight:bold;perspective-origin:449.297px 0px;fill:rgb(48, 48, 48);stroke:rgba(0, 0, 0, 0);dominant-baseline:middle;text-anchor:middle;">work.tdcSingle(behavioral)</text><line x1="0" y1="20" x2="899.625" y2="20"/></g><g id="sprotty_ArchitectureBlockImpl$work.tdcSingle(behavioral)/GPortImpl$comparator_in_to_ArchitectureBlockImpl$work.tdcSingle(behavioral)/InstantiationBlockImpl$inst_carryChain/BPortImpl$carry_chain_in" class="sprotty-edge edge" style="fill:none;stroke:rgb(112, 112, 112);stroke-linejoin:round;"><g><path d="M 0 89 L 217.984375 89 C 218.984375 89 219.984375 90 219.984375 91 L 219.984375 99 C 219.984375 100 220.984375 101 221.984375 101 L 229.984375 101 "/><path d="M 0 89 L 217.984375 89 C 218.984375 89 219.984375 90 219.984375 91 L 219.984375 99 C 219.984375 100 220.984375 101 221.984375 101 L 229.984375 101 " class="clickable"/></g></g><g id="sprotty_ArchitectureBlockImpl$work.tdcSingle(behavioral)/GPortImpl$runLength_in_to_ArchitectureBlockImpl$work.tdcSingle(behavioral)/AssignmentBlockImpl$inst_carryChain.carry_mux_sel_in/GPortImpl$runLength_in" class="sprotty-edge edge" style="fill:none;stroke:rgb(112, 112, 112);stroke-linejoin:round;"><g><path d="M 0 248 L 178.28125 248 "/><path d="M 0 248 L 178.28125 248 " class="clickable"/></g></g><g id="sprotty_ArchitectureBlockImpl$work.tdcSingle(behavioral)/GPortImpl$runINL_in_to_ArchitectureBlockImpl$work.tdcSingle(behavioral)/AssignmentBlockImpl$inst_carryChain.carry_mux_sel_in/GPortImpl$runINL_in" class="sprotty-edge edge" style="fill:none;stroke:rgb(112, 112, 112);stroke-linejoin:round;"><g><path d="M 0 282 L 166.28125 282 C 167.28125 282 168.28125 281 168.28125 280 L 168.28125 260 C 168.28125 259 169.28125 258 170.28125 258 L 178.28125 258 "/><path d="M 0 282 L 166.28125 282 C 167.28125 282 168.28125 281 168.28125 280 L 168.28125 260 C 168.28125 259 169.28125 258 170.28125 258 L 178.28125 258 " class="clickable"/></g></g><g id="sprotty_ArchitectureBlockImpl$work.tdcSingle(behavioral)/GPortImpl$clk_600MHz_to_ArchitectureBlockImpl$work.tdcSingle(behavioral)/InstantiationBlockImpl$inst_carryChain/BPortImpl$clk" class="sprotty-edge edge" style="fill:none;stroke:rgb(112, 112, 112);stroke-linejoin:round;"><g><path d="M 0 214 L 207.984375 214 C 208.984375 214 209.984375 213 209.984375 212 L 209.984375 75 C 209.984375 74 210.984375 73 211.984375 73 L 229.984375 73 "/><path d="M 0 214 L 207.984375 214 C 208.984375 214 209.984375 213 209.984375 212 L 209.984375 75 C 209.984375 74 210.984375 73 211.984375 73 L 229.984375 73 " class="clickable"/></g><circle r="2" id="sprotty_ArchitectureBlockImpl$work.tdcSingle(behavioral)/GPortImpl$clk_600MHz_to_ArchitectureBlockImpl$work.tdcSingle(behavioral)/InstantiationBlockImpl$inst_carryChain/BPortImpl$clk/junction0" transform="translate(209.984375, 214)" class="sprotty-junction junction" style="fill:rgb(112, 112, 112);stroke:none;"/></g><g id="sprotty_ArchitectureBlockImpl$work.tdcSingle(behavioral)/GPortImpl$clk_600MHz_to_ArchitectureBlockImpl$work.tdcSingle(behavioral)/InstantiationBlockImpl$inst_transDet/BPortImpl$clk" class="sprotty-edge edge" style="fill:none;stroke:rgb(112, 112, 112);stroke-linejoin:round;"><g><path d="M 0 214 L 469.671875 214 C 470.671875 214 471.671875 213 471.671875 212 L 471.671875 187 C 471.671875 186 472.671875 185 473.671875 185 L 481.671875 185 "/><path d="M 0 214 L 469.671875 214 C 470.671875 214 471.671875 213 471.671875 212 L 471.671875 187 C 471.671875 186 472.671875 185 473.671875 185 L 481.671875 185 " class="clickable"/></g></g><g id="sprotty_ArchitectureBlockImpl$work.tdcSingle(behavioral)/GPortImpl$clk_600MHz_Calibration_to_ArchitectureBlockImpl$work.tdcSingle(behavioral)/InstantiationBlockImpl$inst_carryChain/BPortImpl$carry_chain2_in" class="sprotty-edge edge" style="fill:none;stroke:rgb(112, 112, 112);stroke-linejoin:round;"><g><path d="M 0 123 L 217.984375 123 C 218.984375 123 219.984375 124 219.984375 125 L 219.984375 127 C 219.984375 128 220.984375 129 221.984375 129 L 229.984375 129 "/><path d="M 0 123 L 217.984375 123 C 218.984375 123 219.984375 124 219.984375 125 L 219.984375 127 C 219.984375 128 220.984375 129 221.984375 129 L 229.984375 129 " class="clickable"/></g></g><g id="sprotty_ArchitectureBlockImpl$work.tdcSingle(behavioral)/GPortImpl$clk_571Mhz_to_ArchitectureBlockImpl$work.tdcSingle(behavioral)/InstantiationBlockImpl$inst_carryChain/BPortImpl$carry_chain3_in" class="sprotty-edge edge" style="fill:none;stroke:rgb(112, 112, 112);stroke-linejoin:round;"><g><path d="M 0 157 L 229.984375 157 "/><path d="M 0 157 L 229.984375 157 " class="clickable"/></g></g><g id="sprotty_ArchitectureBlockImpl$work.tdcSingle(behavioral)/InstantiationBlockImpl$inst_carryChain/BPortImpl$carry_chain_out_to_ArchitectureBlockImpl$work.tdcSingle(behavioral)/InstantiationBlockImpl$inst_transDet/BPortImpl$carry_chain_in" class="sprotty-edge thick edge" style="fill:none;stroke:rgb(112, 112, 112);stroke-linejoin:round;stroke-width:3px;"><g><path d="M 461.671875 129 L 481.671875 129 "/><path d="M 461.671875 129 L 481.671875 129 " class="clickable"/></g></g><g id="sprotty_ArchitectureBlockImpl$work.tdcSingle(behavioral)/AssignmentBlockImpl$inst_carryChain.carry_mux_sel_in/GPortImpl$null0_to_ArchitectureBlockImpl$work.tdcSingle(behavioral)/InstantiationBlockImpl$inst_carryChain/BPortImpl$carry_mux_sel_in" class="sprotty-edge thick edge" style="fill:none;stroke:rgb(112, 112, 112);stroke-linejoin:round;stroke-width:3px;"><g><path d="M 199.984375 253 L 217.984375 253 C 218.984375 253 219.984375 252 219.984375 251 L 219.984375 187 C 219.984375 186 220.984375 185 221.984375 185 L 229.984375 185 "/><path d="M 199.984375 253 L 217.984375 253 C 218.984375 253 219.984375 252 219.984375 251 L 219.984375 187 C 219.984375 186 220.984375 185 221.984375 185 L 229.984375 185 " class="clickable"/></g></g><g id="sprotty_ArchitectureBlockImpl$work.tdcSingle(behavioral)/InstantiationBlockImpl$inst_transDet/BPortImpl$fallTransition_out_to_ArchitectureBlockImpl$work.tdcSingle(behavioral)/GPortImpl$fallTransition_out" class="sprotty-edge thick edge" style="fill:none;stroke:rgb(112, 112, 112);stroke-linejoin:round;stroke-width:3px;"><g><path d="M 755.140625 129 L 899.625 129 "/><path d="M 755.140625 129 L 899.625 129 " class="clickable"/></g></g><g id="sprotty_ArchitectureBlockImpl$work.tdcSingle(behavioral)/InstantiationBlockImpl$inst_transDet/BPortImpl$riseTransition_out_to_ArchitectureBlockImpl$work.tdcSingle(behavioral)/GPortImpl$riseTransition_out" class="sprotty-edge thick edge" style="fill:none;stroke:rgb(112, 112, 112);stroke-linejoin:round;stroke-width:3px;"><g><path d="M 755.140625 157 L 763.140625 157 C 764.140625 157 765.140625 158 765.140625 159 L 765.140625 161 C 765.140625 162 766.140625 163 767.140625 163 L 899.625 163 "/><path d="M 755.140625 157 L 763.140625 157 C 764.140625 157 765.140625 158 765.140625 159 L 765.140625 161 C 765.140625 162 766.140625 163 767.140625 163 L 899.625 163 " class="clickable"/></g></g><g id="sprotty_ArchitectureBlockImpl$work.tdcSingle(behavioral)/InstantiationBlockImpl$inst_transDet/BPortImpl$sumOnes_out_to_ArchitectureBlockImpl$work.tdcSingle(behavioral)/GPortImpl$sumOnes_out" class="sprotty-edge thick edge" style="fill:none;stroke:rgb(112, 112, 112);stroke-linejoin:round;stroke-width:3px;"><g><path d="M 755.140625 185 L 763.140625 185 C 764.140625 185 765.140625 186 765.140625 187 L 765.140625 195 C 765.140625 196 766.140625 197 767.140625 197 L 899.625 197 "/><path d="M 755.140625 185 L 763.140625 185 C 764.140625 185 765.140625 186 765.140625 187 L 765.140625 195 C 765.140625 196 766.140625 197 767.140625 197 L 899.625 197 " class="clickable"/></g></g><g id="sprotty_ArchitectureBlockImpl$work.tdcSingle(behavioral)/InstantiationBlockImpl$inst_transDet" transform="translate(481.671875, 91)" class="instantiation"><g class="sprotty-block" style="fill:rgb(255, 255, 255);stroke:rgb(48, 48, 48);stroke-dasharray:0px;"><rect x="0" y="0" rx="1" ry="1" width="273.46875" height="112"/><text x="136.734375" y="12" class="sprotty-block-name" style="cursor:pointer;font-weight:bold;perspective-origin:137.234px 0px;fill:rgb(48, 48, 48);stroke:rgba(0, 0, 0, 0);dominant-baseline:middle;text-anchor:middle;">inst_transDet : transitionDetector</text><line x1="0" y1="20" x2="273.46875" y2="20"/></g><g id="sprotty_ArchitectureBlockImpl$work.tdcSingle(behavioral)/InstantiationBlockImpl$inst_transDet/BPortImpl$clk" transform="translate(0, 94)" class="triangle"><path d="M 0,0 L 5,2.5 L 0,5 Z" transform="translate(-1.67, -2.5)" class="sprotty-port" style="fill:rgb(48, 48, 48);stroke:rgb(48, 48, 48);"/><text class="clickable sprotty-label port" id="sprotty_ArchitectureBlockImpl$work.tdcSingle(behavioral)/InstantiationBlockImpl$inst_transDet/BPortImpl$clk/label" transform="translate(6, -9) translate(9.0625, 14)" style="cursor:default;font-size:12px;perspective-origin:0.1875px 0px;fill:rgb(48, 48, 48);text-anchor:middle;">clk</text></g><g id="sprotty_ArchitectureBlockImpl$work.tdcSingle(behavioral)/InstantiationBlockImpl$inst_transDet/BPortImpl$carry_chain_in" transform="translate(0, 38)" class="triangle"><path d="M 0,0 L 5,2.5 L 0,5 Z" transform="translate(-1.67, -2.5)" class="sprotty-port" style="fill:rgb(48, 48, 48);stroke:rgb(48, 48, 48);"/><text class="clickable sprotty-label port" id="sprotty_ArchitectureBlockImpl$work.tdcSingle(behavioral)/InstantiationBlockImpl$inst_transDet/BPortImpl$carry_chain_in/label" transform="translate(6, -9) translate(42.734375, 14)" style="cursor:default;font-size:12px;perspective-origin:-0.15625px 0px;fill:rgb(48, 48, 48);text-anchor:middle;">carry_chain_in</text></g><g id="sprotty_ArchitectureBlockImpl$work.tdcSingle(behavioral)/InstantiationBlockImpl$inst_transDet/BPortImpl$fallTransition_out" transform="translate(273.46875, 38)" class="triangle"><path d="M 0,0 L 5,2.5 L 0,5 Z" transform="translate(-1.67, -2.5)" class="sprotty-port" style="fill:rgb(48, 48, 48);stroke:rgb(48, 48, 48);"/><text class="clickable sprotty-label port" id="sprotty_ArchitectureBlockImpl$work.tdcSingle(behavioral)/InstantiationBlockImpl$inst_transDet/BPortImpl$fallTransition_out/label" transform="translate(-107.84375, -9) translate(50.671875, 14)" style="cursor:default;font-size:12px;perspective-origin:0.25px 0px;fill:rgb(48, 48, 48);text-anchor:middle;">fallTransition_out</text></g><g id="sprotty_ArchitectureBlockImpl$work.tdcSingle(behavioral)/InstantiationBlockImpl$inst_transDet/BPortImpl$riseTransition_out" transform="translate(273.46875, 66)" class="triangle"><path d="M 0,0 L 5,2.5 L 0,5 Z" transform="translate(-1.67, -2.5)" class="sprotty-port" style="fill:rgb(48, 48, 48);stroke:rgb(48, 48, 48);"/><text class="clickable sprotty-label port" id="sprotty_ArchitectureBlockImpl$work.tdcSingle(behavioral)/InstantiationBlockImpl$inst_transDet/BPortImpl$riseTransition_out/label" transform="translate(-109.484375, -9) translate(51, 14)" style="cursor:default;font-size:12px;perspective-origin:0.734375px 0px;fill:rgb(48, 48, 48);text-anchor:middle;">riseTransition_out</text></g><g id="sprotty_ArchitectureBlockImpl$work.tdcSingle(behavioral)/InstantiationBlockImpl$inst_transDet/BPortImpl$sumOnes_out" transform="translate(273.46875, 94)" class="triangle"><path d="M 0,0 L 5,2.5 L 0,5 Z" transform="translate(-1.67, -2.5)" class="sprotty-port" style="fill:rgb(48, 48, 48);stroke:rgb(48, 48, 48);"/><text class="clickable sprotty-label port" id="sprotty_ArchitectureBlockImpl$work.tdcSingle(behavioral)/InstantiationBlockImpl$inst_transDet/BPortImpl$sumOnes_out/label" transform="translate(-86.765625, -9) translate(40.140625, 14)" style="cursor:default;font-size:12px;perspective-origin:0.234375px 0px;fill:rgb(48, 48, 48);text-anchor:middle;">sumOnes_out</text></g></g><g id="sprotty_ArchitectureBlockImpl$work.tdcSingle(behavioral)/AssignmentBlockImpl$inst_carryChain.carry_mux_sel_in" transform="translate(178.28125, 238)" class="statement"><rect x="0" y="0" rx="10" ry="5" width="21.703125" height="30" class="sprotty-node" style="fill:rgb(245, 245, 245);stroke:rgb(112, 112, 112);"/><text class="clickable sprotty-label statementtype" id="sprotty_ArchitectureBlockImpl$work.tdcSingle(behavioral)/AssignmentBlockImpl$inst_carryChain.carry_mux_sel_in/labeltype" transform="translate(5, 9) translate(5.703125, 9)" style="cursor:default;font-size:8px;font-weight:bold;perspective-origin:0.140625px 0px;fill:rgb(112, 112, 112);text-anchor:middle;">&lt;=</text><g id="sprotty_ArchitectureBlockImpl$work.tdcSingle(behavioral)/AssignmentBlockImpl$inst_carryChain.carry_mux_sel_in/GPortImpl$runINL_in" transform="translate(0, 20)" class="sprotty-hidden hidden" style="display:block;"/><g id="sprotty_ArchitectureBlockImpl$work.tdcSingle(behavioral)/AssignmentBlockImpl$inst_carryChain.carry_mux_sel_in/GPortImpl$runLength_in" transform="translate(0, 10)" class="sprotty-hidden hidden" style="display:block;"/><g id="sprotty_ArchitectureBlockImpl$work.tdcSingle(behavioral)/AssignmentBlockImpl$inst_carryChain.carry_mux_sel_in/GPortImpl$null0" transform="translate(21.703125, 15)" class="sprotty-hidden hidden" style="display:block;"/></g><g id="sprotty_ArchitectureBlockImpl$work.tdcSingle(behavioral)/InstantiationBlockImpl$inst_carryChain" transform="translate(229.984375, 35)" class="instantiation"><g class="sprotty-block" style="fill:rgb(255, 255, 255);stroke:rgb(48, 48, 48);stroke-dasharray:0px;"><rect x="0" y="0" rx="1" ry="1" width="231.6875" height="168"/><text x="115.84375" y="12" class="sprotty-block-name" style="cursor:pointer;font-weight:bold;perspective-origin:115.828px 0px;fill:rgb(48, 48, 48);stroke:rgba(0, 0, 0, 0);dominant-baseline:middle;text-anchor:middle;">inst_carryChain : carryChain</text><line x1="0" y1="20" x2="231.6875" y2="20"/></g><g id="sprotty_ArchitectureBlockImpl$work.tdcSingle(behavioral)/InstantiationBlockImpl$inst_carryChain/BPortImpl$carry_mux_sel_in" transform="translate(0, 150)" class="triangle"><path d="M 0,0 L 5,2.5 L 0,5 Z" transform="translate(-1.67, -2.5)" class="sprotty-port" style="fill:rgb(48, 48, 48);stroke:rgb(48, 48, 48);"/><text class="clickable sprotty-label port" id="sprotty_ArchitectureBlockImpl$work.tdcSingle(behavioral)/InstantiationBlockImpl$inst_carryChain/BPortImpl$carry_mux_sel_in/label" transform="translate(6, -9) translate(50.71875, 14)" style="cursor:default;font-size:12px;perspective-origin:-0.15625px 0px;fill:rgb(48, 48, 48);text-anchor:middle;">carry_mux_sel_in</text></g><g id="sprotty_ArchitectureBlockImpl$work.tdcSingle(behavioral)/InstantiationBlockImpl$inst_carryChain/BPortImpl$carry_chain3_in" transform="translate(0, 122)" class="triangle"><path d="M 0,0 L 5,2.5 L 0,5 Z" transform="translate(-1.67, -2.5)" class="sprotty-port" style="fill:rgb(48, 48, 48);stroke:rgb(48, 48, 48);"/><text class="clickable sprotty-label port" id="sprotty_ArchitectureBlockImpl$work.tdcSingle(behavioral)/InstantiationBlockImpl$inst_carryChain/BPortImpl$carry_chain3_in/label" transform="translate(6, -9) translate(46.0625, 14)" style="cursor:default;font-size:12px;perspective-origin:-0.15625px 0px;fill:rgb(48, 48, 48);text-anchor:middle;">carry_chain3_in</text></g><g id="sprotty_ArchitectureBlockImpl$work.tdcSingle(behavioral)/InstantiationBlockImpl$inst_carryChain/BPortImpl$carry_chain2_in" transform="translate(0, 94)" class="triangle"><path d="M 0,0 L 5,2.5 L 0,5 Z" transform="translate(-1.67, -2.5)" class="sprotty-port" style="fill:rgb(48, 48, 48);stroke:rgb(48, 48, 48);"/><text class="clickable sprotty-label port" id="sprotty_ArchitectureBlockImpl$work.tdcSingle(behavioral)/InstantiationBlockImpl$inst_carryChain/BPortImpl$carry_chain2_in/label" transform="translate(6, -9) translate(46.0625, 14)" style="cursor:default;font-size:12px;perspective-origin:-0.15625px 0px;fill:rgb(48, 48, 48);text-anchor:middle;">carry_chain2_in</text></g><g id="sprotty_ArchitectureBlockImpl$work.tdcSingle(behavioral)/InstantiationBlockImpl$inst_carryChain/BPortImpl$carry_chain_in" transform="translate(0, 66)" class="triangle"><path d="M 0,0 L 5,2.5 L 0,5 Z" transform="translate(-1.67, -2.5)" class="sprotty-port" style="fill:rgb(48, 48, 48);stroke:rgb(48, 48, 48);"/><text class="clickable sprotty-label port" id="sprotty_ArchitectureBlockImpl$work.tdcSingle(behavioral)/InstantiationBlockImpl$inst_carryChain/BPortImpl$carry_chain_in/label" transform="translate(6, -9) translate(42.734375, 14)" style="cursor:default;font-size:12px;perspective-origin:-0.15625px 0px;fill:rgb(48, 48, 48);text-anchor:middle;">carry_chain_in</text></g><g id="sprotty_ArchitectureBlockImpl$work.tdcSingle(behavioral)/InstantiationBlockImpl$inst_carryChain/BPortImpl$clk" transform="translate(0, 38)" class="triangle"><path d="M 0,0 L 5,2.5 L 0,5 Z" transform="translate(-1.67, -2.5)" class="sprotty-port" style="fill:rgb(48, 48, 48);stroke:rgb(48, 48, 48);"/><text class="clickable sprotty-label port" id="sprotty_ArchitectureBlockImpl$work.tdcSingle(behavioral)/InstantiationBlockImpl$inst_carryChain/BPortImpl$clk/label" transform="translate(6, -9) translate(9.0625, 14)" style="cursor:default;font-size:12px;perspective-origin:0.1875px 0px;fill:rgb(48, 48, 48);text-anchor:middle;">clk</text></g><g id="sprotty_ArchitectureBlockImpl$work.tdcSingle(behavioral)/InstantiationBlockImpl$inst_carryChain/BPortImpl$carry_chain_out" transform="translate(231.6875, 94)" class="triangle"><path d="M 0,0 L 5,2.5 L 0,5 Z" transform="translate(-1.67, -2.5)" class="sprotty-port" style="fill:rgb(48, 48, 48);stroke:rgb(48, 48, 48);"/><text class="clickable sprotty-label port" id="sprotty_ArchitectureBlockImpl$work.tdcSingle(behavioral)/InstantiationBlockImpl$inst_carryChain/BPortImpl$carry_chain_out/label" transform="translate(-100.40625, -9) translate(46.96875, 14)" style="cursor:default;font-size:12px;perspective-origin:0.234375px 0px;fill:rgb(48, 48, 48);text-anchor:middle;">carry_chain_out</text></g></g><g id="sprotty_ArchitectureBlockImpl$work.tdcSingle(behavioral)/GPortImpl$clk_571Mhz" transform="translate(0, 157)" class="triangle"><path d="M 0,0 L 5,2.5 L 0,5 Z" transform="translate(-1.67, -2.5)" class="sprotty-port" style="fill:rgb(48, 48, 48);stroke:rgb(48, 48, 48);"/><text class="clickable sprotty-label port" id="sprotty_ArchitectureBlockImpl$work.tdcSingle(behavioral)/GPortImpl$clk_571Mhz/label" transform="translate(6, 6) translate(33.765625, 14)" style="cursor:default;font-size:12px;perspective-origin:0.15625px 0px;fill:rgb(48, 48, 48);text-anchor:middle;">clk_571Mhz</text></g><g id="sprotty_ArchitectureBlockImpl$work.tdcSingle(behavioral)/GPortImpl$clk_600MHz_Calibration" transform="translate(0, 123)" class="triangle"><path d="M 0,0 L 5,2.5 L 0,5 Z" transform="translate(-1.67, -2.5)" class="sprotty-port" style="fill:rgb(48, 48, 48);stroke:rgb(48, 48, 48);"/><text class="clickable sprotty-label port" id="sprotty_ArchitectureBlockImpl$work.tdcSingle(behavioral)/GPortImpl$clk_600MHz_Calibration/label" transform="translate(6, 6) translate(68.796875, 14)" style="cursor:default;font-size:12px;perspective-origin:-0.15625px 0px;fill:rgb(48, 48, 48);text-anchor:middle;">clk_600MHz_Calibration</text></g><g id="sprotty_ArchitectureBlockImpl$work.tdcSingle(behavioral)/GPortImpl$clk_600MHz" transform="translate(0, 214)" class="triangle"><path d="M 0,0 L 5,2.5 L 0,5 Z" transform="translate(-1.67, -2.5)" class="sprotty-port" style="fill:rgb(48, 48, 48);stroke:rgb(48, 48, 48);"/><text class="clickable sprotty-label port" id="sprotty_ArchitectureBlockImpl$work.tdcSingle(behavioral)/GPortImpl$clk_600MHz/label" transform="translate(6, 6) translate(34.5, 14)" style="cursor:default;font-size:12px;perspective-origin:0.15625px 0px;fill:rgb(48, 48, 48);text-anchor:middle;">clk_600MHz</text></g><g id="sprotty_ArchitectureBlockImpl$work.tdcSingle(behavioral)/GPortImpl$runINL_in" transform="translate(0, 282)" class="triangle"><path d="M 0,0 L 5,2.5 L 0,5 Z" transform="translate(-1.67, -2.5)" class="sprotty-port" style="fill:rgb(48, 48, 48);stroke:rgb(48, 48, 48);"/><text class="clickable sprotty-label port" id="sprotty_ArchitectureBlockImpl$work.tdcSingle(behavioral)/GPortImpl$runINL_in/label" transform="translate(6, 6) translate(27.640625, 14)" style="cursor:default;font-size:12px;perspective-origin:0.328125px 0px;fill:rgb(48, 48, 48);text-anchor:middle;">runINL_in</text></g><g id="sprotty_ArchitectureBlockImpl$work.tdcSingle(behavioral)/GPortImpl$runLength_in" transform="translate(0, 248)" class="triangle"><path d="M 0,0 L 5,2.5 L 0,5 Z" transform="translate(-1.67, -2.5)" class="sprotty-port" style="fill:rgb(48, 48, 48);stroke:rgb(48, 48, 48);"/><text class="clickable sprotty-label port" id="sprotty_ArchitectureBlockImpl$work.tdcSingle(behavioral)/GPortImpl$runLength_in/label" transform="translate(6, 6) translate(37.75, 14)" style="cursor:default;font-size:12px;perspective-origin:0.328125px 0px;fill:rgb(48, 48, 48);text-anchor:middle;">runLength_in</text></g><g id="sprotty_ArchitectureBlockImpl$work.tdcSingle(behavioral)/GPortImpl$comparator_in" transform="translate(0, 89)" class="triangle"><path d="M 0,0 L 5,2.5 L 0,5 Z" transform="translate(-1.67, -2.5)" class="sprotty-port" style="fill:rgb(48, 48, 48);stroke:rgb(48, 48, 48);"/><text class="clickable sprotty-label port" id="sprotty_ArchitectureBlockImpl$work.tdcSingle(behavioral)/GPortImpl$comparator_in/label" transform="translate(6, 6) translate(42.375, 14)" style="cursor:default;font-size:12px;perspective-origin:-0.171875px 0px;fill:rgb(48, 48, 48);text-anchor:middle;">comparator_in</text></g><g id="sprotty_ArchitectureBlockImpl$work.tdcSingle(behavioral)/GPortImpl$fallTransition_out" transform="translate(899.625, 129)" class="triangle"><path d="M 0,0 L 5,2.5 L 0,5 Z" transform="translate(-1.67, -2.5)" class="sprotty-port" style="fill:rgb(48, 48, 48);stroke:rgb(48, 48, 48);"/><text class="clickable sprotty-label port" id="sprotty_ArchitectureBlockImpl$work.tdcSingle(behavioral)/GPortImpl$fallTransition_out/label" transform="translate(-107.84375, 6) translate(50.671875, 14)" style="cursor:default;font-size:12px;perspective-origin:0.25px 0px;fill:rgb(48, 48, 48);text-anchor:middle;">fallTransition_out</text></g><g id="sprotty_ArchitectureBlockImpl$work.tdcSingle(behavioral)/GPortImpl$riseTransition_out" transform="translate(899.625, 163)" class="triangle"><path d="M 0,0 L 5,2.5 L 0,5 Z" transform="translate(-1.67, -2.5)" class="sprotty-port" style="fill:rgb(48, 48, 48);stroke:rgb(48, 48, 48);"/><text class="clickable sprotty-label port" id="sprotty_ArchitectureBlockImpl$work.tdcSingle(behavioral)/GPortImpl$riseTransition_out/label" transform="translate(-109.484375, 6) translate(51, 14)" style="cursor:default;font-size:12px;perspective-origin:0.734375px 0px;fill:rgb(48, 48, 48);text-anchor:middle;">riseTransition_out</text></g><g id="sprotty_ArchitectureBlockImpl$work.tdcSingle(behavioral)/GPortImpl$sumOnes_out" transform="translate(899.625, 197)" class="triangle"><path d="M 0,0 L 5,2.5 L 0,5 Z" transform="translate(-1.67, -2.5)" class="sprotty-port" style="fill:rgb(48, 48, 48);stroke:rgb(48, 48, 48);"/><text class="clickable sprotty-label port" id="sprotty_ArchitectureBlockImpl$work.tdcSingle(behavioral)/GPortImpl$sumOnes_out/label" transform="translate(-86.765625, 6) translate(40.140625, 14)" style="cursor:default;font-size:12px;perspective-origin:0.234375px 0px;fill:rgb(48, 48, 48);text-anchor:middle;">sumOnes_out</text></g></g></g></svg>