<svg xmlns="http://www.w3.org/2000/svg" id="sprotty_work.division.behavioral" class="sprotty-graph sprotty-block-diagram blockdiagram" style="font-family:&quot;Noto Sans&quot;, Helvetica, Arial, sans-serif;perspective-origin:0px 0px;transform-origin:0px 0px;" version="1.1" viewBox="7 7 645.078125 323" width="645.078125" height="323"><g transform="scale(1) translate(0,0)"><g id="sprotty_ArchitectureBlockImpl$work.division(behavioral)" transform="translate(12, 12)" class="architecture"><g class="sprotty-block" style="fill:rgb(255, 255, 255);stroke:rgb(48, 48, 48);stroke-dasharray:0px;"><rect x="0" y="0" rx="1" ry="1" width="635.078125" height="313"/><text x="317.5390625" y="12" class="sprotty-block-name" style="cursor:pointer;font-weight:bold;perspective-origin:317.016px 0px;fill:rgb(48, 48, 48);stroke:rgba(0, 0, 0, 0);dominant-baseline:middle;text-anchor:middle;">work.division(behavioral)</text><line x1="0" y1="20" x2="635.078125" y2="20"/></g><g id="sprotty_ArchitectureBlockImpl$work.division(behavioral)/GPortImpl$Start_in_to_ArchitectureBlockImpl$work.division(behavioral)/ProcessBlockImpl$nextStateLogic/GPortImpl$Start_in" class="sprotty-edge edge" style="fill:none;stroke:rgb(112, 112, 112);stroke-linejoin:round;"><g><path d="M 0 104 L 96.953125 104 C 97.953125 104 98.953125 105 98.953125 106 L 98.953125 126 C 98.953125 127 99.953125 128 100.953125 128 L 178.953125 128 "/><path d="M 0 104 L 96.953125 104 C 97.953125 104 98.953125 105 98.953125 106 L 98.953125 126 C 98.953125 127 99.953125 128 100.953125 128 L 178.953125 128 " class="clickable"/></g></g><g id="sprotty_ArchitectureBlockImpl$work.division(behavioral)/GPortImpl$Dividend_in_to_ArchitectureBlockImpl$work.division(behavioral)/ProcessBlockImpl$nextStateLogic/GPortImpl$Dividend_in" class="sprotty-edge thick edge" style="fill:none;stroke:rgb(112, 112, 112);stroke-linejoin:round;stroke-width:3px;"><g><path d="M 0 172 L 96.953125 172 C 97.953125 172 98.953125 171 98.953125 170 L 98.953125 150 C 98.953125 149 99.953125 148 100.953125 148 L 178.953125 148 "/><path d="M 0 172 L 96.953125 172 C 97.953125 172 98.953125 171 98.953125 170 L 98.953125 150 C 98.953125 149 99.953125 148 100.953125 148 L 178.953125 148 " class="clickable"/></g></g><g id="sprotty_ArchitectureBlockImpl$work.division(behavioral)/GPortImpl$Divisor_in_to_ArchitectureBlockImpl$work.division(behavioral)/ProcessBlockImpl$nextStateLogic/GPortImpl$Divisor_in" class="sprotty-edge thick edge" style="fill:none;stroke:rgb(112, 112, 112);stroke-linejoin:round;stroke-width:3px;"><g><path d="M 0 138 L 178.953125 138 "/><path d="M 0 138 L 178.953125 138 " class="clickable"/></g></g><g id="sprotty_ArchitectureBlockImpl$work.division(behavioral)/GPortImpl$RESETN_to_ArchitectureBlockImpl$work.division(behavioral)/ProcessBlockImpl$stateRegister/GPortImpl$RESETN" class="sprotty-edge edge" style="fill:none;stroke:rgb(112, 112, 112);stroke-linejoin:round;"><g><path d="M 0 36 L 344.578125 36 C 345.578125 36 346.578125 37 346.578125 38 L 346.578125 129 C 346.578125 130 347.578125 131 348.578125 131 L 356.578125 131 "/><path d="M 0 36 L 344.578125 36 C 345.578125 36 346.578125 37 346.578125 38 L 346.578125 129 C 346.578125 130 347.578125 131 348.578125 131 L 356.578125 131 " class="clickable"/></g></g><g id="sprotty_ArchitectureBlockImpl$work.division(behavioral)/GPortImpl$CLK_to_ArchitectureBlockImpl$work.division(behavioral)/ProcessBlockImpl$stateRegister/GPortImpl$CLK" class="sprotty-edge edge" style="fill:none;stroke:rgb(112, 112, 112);stroke-linejoin:round;"><g><path d="M 0 70 L 334.578125 70 C 335.578125 70 336.578125 71 336.578125 72 L 336.578125 139 C 336.578125 140 337.578125 141 338.578125 141 L 356.578125 141 "/><path d="M 0 70 L 334.578125 70 C 335.578125 70 336.578125 71 336.578125 72 L 336.578125 139 C 336.578125 140 337.578125 141 338.578125 141 L 356.578125 141 " class="clickable"/></g></g><g id="sprotty_ArchitectureBlockImpl$work.division(behavioral)/ProcessBlockImpl$nextStateLogic/GPortImpl$Busy_out_to_ArchitectureBlockImpl$work.division(behavioral)/GPortImpl$Busy_out" class="sprotty-edge edge" style="fill:none;stroke:rgb(112, 112, 112);stroke-linejoin:round;"><g><path d="M 306.578125 129 L 314.578125 129 C 315.578125 129 316.578125 128 316.578125 127 L 316.578125 77 C 316.578125 76 317.578125 75 318.578125 75 L 635.078125 75 "/><path d="M 306.578125 129 L 314.578125 129 C 315.578125 129 316.578125 128 316.578125 127 L 316.578125 77 C 316.578125 76 317.578125 75 318.578125 75 L 635.078125 75 " class="clickable"/></g></g><g id="sprotty_ArchitectureBlockImpl$work.division(behavioral)/ProcessBlockImpl$nextStateLogic/GPortImpl$Result_out_to_ArchitectureBlockImpl$work.division(behavioral)/GPortImpl$Result_out" class="sprotty-edge thick edge" style="fill:none;stroke:rgb(112, 112, 112);stroke-linejoin:round;stroke-width:3px;"><g><path d="M 306.578125 140 L 324.578125 140 C 325.578125 140 326.578125 139 326.578125 138 L 326.578125 111 C 326.578125 110 327.578125 109 328.578125 109 L 635.078125 109 "/><path d="M 306.578125 140 L 324.578125 140 C 325.578125 140 326.578125 139 326.578125 138 L 326.578125 111 C 326.578125 110 327.578125 109 328.578125 109 L 635.078125 109 " class="clickable"/></g></g><g id="sprotty_ArchitectureBlockImpl$work.division(behavioral)/ProcessBlockImpl$nextStateLogic/GPortImpl$fsm_state_next_to_ArchitectureBlockImpl$work.division(behavioral)/ProcessBlockImpl$stateRegister/GPortImpl$fsm_state_next" class="sprotty-edge thick edge" style="fill:none;stroke:rgb(112, 112, 112);stroke-linejoin:round;stroke-width:3px;"><g><path d="M 306.578125 217 L 314.578125 217 C 315.578125 217 316.578125 216 316.578125 215 L 316.578125 213 C 316.578125 212 317.578125 211 318.578125 211 L 356.578125 211 "/><path d="M 306.578125 217 L 314.578125 217 C 315.578125 217 316.578125 216 316.578125 215 L 316.578125 213 C 316.578125 212 317.578125 211 318.578125 211 L 356.578125 211 " class="clickable"/></g></g><g id="sprotty_ArchitectureBlockImpl$work.division(behavioral)/ProcessBlockImpl$nextStateLogic/GPortImpl$curr_dividend_next_to_ArchitectureBlockImpl$work.division(behavioral)/ProcessBlockImpl$stateRegister/GPortImpl$curr_dividend_next" class="sprotty-edge thick edge" style="fill:none;stroke:rgb(112, 112, 112);stroke-linejoin:round;stroke-width:3px;"><g><path d="M 306.578125 206 L 314.578125 206 C 315.578125 206 316.578125 205 316.578125 204 L 316.578125 203 C 316.578125 202 317.578125 201 318.578125 201 L 356.578125 201 "/><path d="M 306.578125 206 L 314.578125 206 C 315.578125 206 316.578125 205 316.578125 204 L 316.578125 203 C 316.578125 202 317.578125 201 318.578125 201 L 356.578125 201 " class="clickable"/></g></g><g id="sprotty_ArchitectureBlockImpl$work.division(behavioral)/ProcessBlockImpl$nextStateLogic/GPortImpl$curr_divisor_next_to_ArchitectureBlockImpl$work.division(behavioral)/ProcessBlockImpl$stateRegister/GPortImpl$curr_divisor_next" class="sprotty-edge thick edge" style="fill:none;stroke:rgb(112, 112, 112);stroke-linejoin:round;stroke-width:3px;"><g><path d="M 306.578125 195 L 314.578125 195 C 315.578125 195 316.578125 194 316.578125 193 L 316.578125 193 C 316.578125 192 317.578125 191 318.578125 191 L 356.578125 191 "/><path d="M 306.578125 195 L 314.578125 195 C 315.578125 195 316.578125 194 316.578125 193 L 316.578125 193 C 316.578125 192 317.578125 191 318.578125 191 L 356.578125 191 " class="clickable"/></g></g><g id="sprotty_ArchitectureBlockImpl$work.division(behavioral)/ProcessBlockImpl$nextStateLogic/GPortImpl$curr_result_next_to_ArchitectureBlockImpl$work.division(behavioral)/ProcessBlockImpl$stateRegister/GPortImpl$curr_result_next" class="sprotty-edge thick edge" style="fill:none;stroke:rgb(112, 112, 112);stroke-linejoin:round;stroke-width:3px;"><g><path d="M 306.578125 184 L 314.578125 184 C 315.578125 184 316.578125 183 316.578125 182 L 316.578125 182 C 316.578125 181.5 317.578125 181 318.578125 181 L 356.578125 181 "/><path d="M 306.578125 184 L 314.578125 184 C 315.578125 184 316.578125 183 316.578125 182 L 316.578125 182 C 316.578125 181.5 317.578125 181 318.578125 181 L 356.578125 181 " class="clickable"/></g></g><g id="sprotty_ArchitectureBlockImpl$work.division(behavioral)/ProcessBlockImpl$nextStateLogic/GPortImpl$curr_neg_next_to_ArchitectureBlockImpl$work.division(behavioral)/ProcessBlockImpl$stateRegister/GPortImpl$curr_neg_next" class="sprotty-edge edge" style="fill:none;stroke:rgb(112, 112, 112);stroke-linejoin:round;"><g><path d="M 306.578125 173 L 316.578125 173 L 316.578125 171 L 356.578125 171 "/><path d="M 306.578125 173 L 316.578125 173 L 316.578125 171 L 356.578125 171 " class="clickable"/></g></g><g id="sprotty_ArchitectureBlockImpl$work.division(behavioral)/ProcessBlockImpl$nextStateLogic/GPortImpl$counter_next_to_ArchitectureBlockImpl$work.division(behavioral)/ProcessBlockImpl$stateRegister/GPortImpl$counter_next" class="sprotty-edge thick edge" style="fill:none;stroke:rgb(112, 112, 112);stroke-linejoin:round;stroke-width:3px;"><g><path d="M 306.578125 162 L 316.578125 162 L 316.578125 161 L 356.578125 161 "/><path d="M 306.578125 162 L 316.578125 162 L 316.578125 161 L 356.578125 161 " class="clickable"/></g></g><g id="sprotty_ArchitectureBlockImpl$work.division(behavioral)/ProcessBlockImpl$nextStateLogic/GPortImpl$temp_next_to_ArchitectureBlockImpl$work.division(behavioral)/ProcessBlockImpl$stateRegister/GPortImpl$temp_next" class="sprotty-edge thick edge" style="fill:none;stroke:rgb(112, 112, 112);stroke-linejoin:round;stroke-width:3px;"><g><path d="M 306.578125 151 L 356.578125 151 "/><path d="M 306.578125 151 L 356.578125 151 " class="clickable"/></g></g><g id="sprotty_ArchitectureBlockImpl$work.division(behavioral)/ProcessBlockImpl$stateRegister/GPortImpl$fsm_state_pres_to_ArchitectureBlockImpl$work.division(behavioral)/ProcessBlockImpl$nextStateLogic/GPortImpl$fsm_state_pres" class="sprotty-edge thick edge" style="fill:none;stroke:rgb(112, 112, 112);stroke-linejoin:round;stroke-width:3px;"><g><path d="M 471.84375 208.5 L 479.84375 208.5 C 480.84375 208.5 481.84375 209.5 481.84375 210.5 L 481.84375 236 C 481.84375 237 480.84375 238 479.84375 238 L 170.953125 238 C 169.953125 238 168.953125 237 168.953125 236 L 168.953125 220 C 168.953125 219 169.953125 218 170.953125 218 L 178.953125 218 "/><path d="M 471.84375 208.5 L 479.84375 208.5 C 480.84375 208.5 481.84375 209.5 481.84375 210.5 L 481.84375 236 C 481.84375 237 480.84375 238 479.84375 238 L 170.953125 238 C 169.953125 238 168.953125 237 168.953125 236 L 168.953125 220 C 168.953125 219 169.953125 218 170.953125 218 L 178.953125 218 " class="clickable"/></g></g><g id="sprotty_ArchitectureBlockImpl$work.division(behavioral)/ProcessBlockImpl$stateRegister/GPortImpl$curr_dividend_pres_to_ArchitectureBlockImpl$work.division(behavioral)/ProcessBlockImpl$nextStateLogic/GPortImpl$curr_dividend_pres" class="sprotty-edge thick edge" style="fill:none;stroke:rgb(112, 112, 112);stroke-linejoin:round;stroke-width:3px;"><g><path d="M 471.84375 196 L 489.84375 196 C 490.84375 196 491.84375 197 491.84375 198 L 491.84375 246 C 491.84375 247 490.84375 248 489.84375 248 L 160.953125 248 C 159.953125 248 158.953125 247 158.953125 246 L 158.953125 210 C 158.953125 209 159.953125 208 160.953125 208 L 178.953125 208 "/><path d="M 471.84375 196 L 489.84375 196 C 490.84375 196 491.84375 197 491.84375 198 L 491.84375 246 C 491.84375 247 490.84375 248 489.84375 248 L 160.953125 248 C 159.953125 248 158.953125 247 158.953125 246 L 158.953125 210 C 158.953125 209 159.953125 208 160.953125 208 L 178.953125 208 " class="clickable"/></g></g><g id="sprotty_ArchitectureBlockImpl$work.division(behavioral)/ProcessBlockImpl$stateRegister/GPortImpl$curr_divisor_pres_to_ArchitectureBlockImpl$work.division(behavioral)/ProcessBlockImpl$nextStateLogic/GPortImpl$curr_divisor_pres" class="sprotty-edge thick edge" style="fill:none;stroke:rgb(112, 112, 112);stroke-linejoin:round;stroke-width:3px;"><g><path d="M 471.84375 158.5 L 519.84375 158.5 C 520.84375 158.5 521.84375 159.5 521.84375 160.5 L 521.84375 276 C 521.84375 277 520.84375 278 519.84375 278 L 130.953125 278 C 129.953125 278 128.953125 277 128.953125 276 L 128.953125 180 C 128.953125 179 129.953125 178 130.953125 178 L 178.953125 178 "/><path d="M 471.84375 158.5 L 519.84375 158.5 C 520.84375 158.5 521.84375 159.5 521.84375 160.5 L 521.84375 276 C 521.84375 277 520.84375 278 519.84375 278 L 130.953125 278 C 129.953125 278 128.953125 277 128.953125 276 L 128.953125 180 C 128.953125 179 129.953125 178 130.953125 178 L 178.953125 178 " class="clickable"/></g></g><g id="sprotty_ArchitectureBlockImpl$work.division(behavioral)/ProcessBlockImpl$stateRegister/GPortImpl$curr_result_pres_to_ArchitectureBlockImpl$work.division(behavioral)/ProcessBlockImpl$nextStateLogic/GPortImpl$curr_result_pres" class="sprotty-edge thick edge" style="fill:none;stroke:rgb(112, 112, 112);stroke-linejoin:round;stroke-width:3px;"><g><path d="M 471.84375 171 L 509.84375 171 C 510.84375 171 511.84375 172 511.84375 173 L 511.84375 266 C 511.84375 267 510.84375 268 509.84375 268 L 140.953125 268 C 139.953125 268 138.953125 267 138.953125 266 L 138.953125 190 C 138.953125 189 139.953125 188 140.953125 188 L 178.953125 188 "/><path d="M 471.84375 171 L 509.84375 171 C 510.84375 171 511.84375 172 511.84375 173 L 511.84375 266 C 511.84375 267 510.84375 268 509.84375 268 L 140.953125 268 C 139.953125 268 138.953125 267 138.953125 266 L 138.953125 190 C 138.953125 189 139.953125 188 140.953125 188 L 178.953125 188 " class="clickable"/></g></g><g id="sprotty_ArchitectureBlockImpl$work.division(behavioral)/ProcessBlockImpl$stateRegister/GPortImpl$curr_neg_pres_to_ArchitectureBlockImpl$work.division(behavioral)/ProcessBlockImpl$nextStateLogic/GPortImpl$curr_neg_pres" class="sprotty-edge edge" style="fill:none;stroke:rgb(112, 112, 112);stroke-linejoin:round;"><g><path d="M 471.84375 133.5 L 539.84375 133.5 C 540.84375 133.5 541.84375 134.5 541.84375 135.5 L 541.84375 296 C 541.84375 297 540.84375 298 539.84375 298 L 110.953125 298 C 109.953125 298 108.953125 297 108.953125 296 L 108.953125 160 C 108.953125 159 109.953125 158 110.953125 158 L 178.953125 158 "/><path d="M 471.84375 133.5 L 539.84375 133.5 C 540.84375 133.5 541.84375 134.5 541.84375 135.5 L 541.84375 296 C 541.84375 297 540.84375 298 539.84375 298 L 110.953125 298 C 109.953125 298 108.953125 297 108.953125 296 L 108.953125 160 C 108.953125 159 109.953125 158 110.953125 158 L 178.953125 158 " class="clickable"/></g></g><g id="sprotty_ArchitectureBlockImpl$work.division(behavioral)/ProcessBlockImpl$stateRegister/GPortImpl$counter_pres_to_ArchitectureBlockImpl$work.division(behavioral)/ProcessBlockImpl$nextStateLogic/GPortImpl$counter_pres" class="sprotty-edge thick edge" style="fill:none;stroke:rgb(112, 112, 112);stroke-linejoin:round;stroke-width:3px;"><g><path d="M 471.84375 146 L 529.84375 146 C 530.84375 146 531.84375 147 531.84375 148 L 531.84375 286 C 531.84375 287 530.84375 288 529.84375 288 L 120.953125 288 C 119.953125 288 118.953125 287 118.953125 286 L 118.953125 170 C 118.953125 169 119.953125 168 120.953125 168 L 178.953125 168 "/><path d="M 471.84375 146 L 529.84375 146 C 530.84375 146 531.84375 147 531.84375 148 L 531.84375 286 C 531.84375 287 530.84375 288 529.84375 288 L 120.953125 288 C 119.953125 288 118.953125 287 118.953125 286 L 118.953125 170 C 118.953125 169 119.953125 168 120.953125 168 L 178.953125 168 " class="clickable"/></g></g><g id="sprotty_ArchitectureBlockImpl$work.division(behavioral)/ProcessBlockImpl$stateRegister/GPortImpl$temp_pres_to_ArchitectureBlockImpl$work.division(behavioral)/ProcessBlockImpl$nextStateLogic/GPortImpl$temp_pres" class="sprotty-edge thick edge" style="fill:none;stroke:rgb(112, 112, 112);stroke-linejoin:round;stroke-width:3px;"><g><path d="M 471.84375 183.5 L 499.84375 183.5 C 500.84375 183.5 501.84375 184.5 501.84375 185.5 L 501.84375 256 C 501.84375 257 500.84375 258 499.84375 258 L 150.953125 258 C 149.953125 258 148.953125 257 148.953125 256 L 148.953125 200 C 148.953125 199 149.953125 198 150.953125 198 L 178.953125 198 "/><path d="M 471.84375 183.5 L 499.84375 183.5 C 500.84375 183.5 501.84375 184.5 501.84375 185.5 L 501.84375 256 C 501.84375 257 500.84375 258 499.84375 258 L 150.953125 258 C 149.953125 258 148.953125 257 148.953125 256 L 148.953125 200 C 148.953125 199 149.953125 198 150.953125 198 L 178.953125 198 " class="clickable"/></g></g><g id="sprotty_ArchitectureBlockImpl$work.division(behavioral)/ProcessBlockImpl$stateRegister" transform="translate(356.578125, 121)" class="statement"><rect x="0" y="0" rx="10" ry="5" width="115.265625" height="100" class="sprotty-node" style="fill:rgb(245, 245, 245);stroke:rgb(112, 112, 112);"/><text class="clickable sprotty-label statementtext" id="sprotty_ArchitectureBlockImpl$work.division(behavioral)/ProcessBlockImpl$stateRegister/labeltext" transform="translate(5, 38) translate(52.609375, 19)" style="cursor:default;font-weight:bold;perspective-origin:0.015625px 0px;fill:rgb(112, 112, 112);text-anchor:middle;">stateRegister</text><g id="sprotty_ArchitectureBlockImpl$work.division(behavioral)/ProcessBlockImpl$stateRegister/GPortImpl$temp_next" transform="translate(0, 30)" class="sprotty-hidden hidden" style="display:block;"/><g id="sprotty_ArchitectureBlockImpl$work.division(behavioral)/ProcessBlockImpl$stateRegister/GPortImpl$counter_next" transform="translate(0, 40)" class="sprotty-hidden hidden" style="display:block;"/><g id="sprotty_ArchitectureBlockImpl$work.division(behavioral)/ProcessBlockImpl$stateRegister/GPortImpl$curr_neg_next" transform="translate(0, 50)" class="sprotty-hidden hidden" style="display:block;"/><g id="sprotty_ArchitectureBlockImpl$work.division(behavioral)/ProcessBlockImpl$stateRegister/GPortImpl$curr_result_next" transform="translate(0, 60)" class="sprotty-hidden hidden" style="display:block;"/><g id="sprotty_ArchitectureBlockImpl$work.division(behavioral)/ProcessBlockImpl$stateRegister/GPortImpl$curr_divisor_next" transform="translate(0, 70)" class="sprotty-hidden hidden" style="display:block;"/><g id="sprotty_ArchitectureBlockImpl$work.division(behavioral)/ProcessBlockImpl$stateRegister/GPortImpl$curr_dividend_next" transform="translate(0, 80)" class="sprotty-hidden hidden" style="display:block;"/><g id="sprotty_ArchitectureBlockImpl$work.division(behavioral)/ProcessBlockImpl$stateRegister/GPortImpl$fsm_state_next" transform="translate(0, 90)" class="sprotty-hidden hidden" style="display:block;"/><g id="sprotty_ArchitectureBlockImpl$work.division(behavioral)/ProcessBlockImpl$stateRegister/GPortImpl$CLK" transform="translate(0, 20)" class="sprotty-hidden hidden" style="display:block;"/><g id="sprotty_ArchitectureBlockImpl$work.division(behavioral)/ProcessBlockImpl$stateRegister/GPortImpl$RESETN" transform="translate(0, 10)" class="sprotty-hidden hidden" style="display:block;"/><g id="sprotty_ArchitectureBlockImpl$work.division(behavioral)/ProcessBlockImpl$stateRegister/GPortImpl$fsm_state_pres" transform="translate(115.265625, 87.5)" class="sprotty-hidden hidden" style="display:block;"/><g id="sprotty_ArchitectureBlockImpl$work.division(behavioral)/ProcessBlockImpl$stateRegister/GPortImpl$curr_dividend_pres" transform="translate(115.265625, 75)" class="sprotty-hidden hidden" style="display:block;"/><g id="sprotty_ArchitectureBlockImpl$work.division(behavioral)/ProcessBlockImpl$stateRegister/GPortImpl$curr_divisor_pres" transform="translate(115.265625, 37.5)" class="sprotty-hidden hidden" style="display:block;"/><g id="sprotty_ArchitectureBlockImpl$work.division(behavioral)/ProcessBlockImpl$stateRegister/GPortImpl$curr_result_pres" transform="translate(115.265625, 50)" class="sprotty-hidden hidden" style="display:block;"/><g id="sprotty_ArchitectureBlockImpl$work.division(behavioral)/ProcessBlockImpl$stateRegister/GPortImpl$curr_neg_pres" transform="translate(115.265625, 12.5)" class="sprotty-hidden hidden" style="display:block;"/><g id="sprotty_ArchitectureBlockImpl$work.division(behavioral)/ProcessBlockImpl$stateRegister/GPortImpl$counter_pres" transform="translate(115.265625, 25)" class="sprotty-hidden hidden" style="display:block;"/><g id="sprotty_ArchitectureBlockImpl$work.division(behavioral)/ProcessBlockImpl$stateRegister/GPortImpl$temp_pres" transform="translate(115.265625, 62.5)" class="sprotty-hidden hidden" style="display:block;"/></g><g id="sprotty_ArchitectureBlockImpl$work.division(behavioral)/ProcessBlockImpl$nextStateLogic" transform="translate(178.953125, 118)" class="statement"><rect x="0" y="0" rx="10" ry="5" width="127.625" height="110" class="sprotty-node" style="fill:rgb(245, 245, 245);stroke:rgb(112, 112, 112);"/><text class="clickable sprotty-label statementtext" id="sprotty_ArchitectureBlockImpl$work.division(behavioral)/ProcessBlockImpl$nextStateLogic/labeltext" transform="translate(5, 43) translate(58.53125, 19)" style="cursor:default;font-weight:bold;perspective-origin:0.28125px 0px;fill:rgb(112, 112, 112);text-anchor:middle;">nextStateLogic</text><g id="sprotty_ArchitectureBlockImpl$work.division(behavioral)/ProcessBlockImpl$nextStateLogic/GPortImpl$temp_pres" transform="translate(0, 80)" class="sprotty-hidden hidden" style="display:block;"/><g id="sprotty_ArchitectureBlockImpl$work.division(behavioral)/ProcessBlockImpl$nextStateLogic/GPortImpl$counter_pres" transform="translate(0, 50)" class="sprotty-hidden hidden" style="display:block;"/><g id="sprotty_ArchitectureBlockImpl$work.division(behavioral)/ProcessBlockImpl$nextStateLogic/GPortImpl$curr_neg_pres" transform="translate(0, 40)" class="sprotty-hidden hidden" style="display:block;"/><g id="sprotty_ArchitectureBlockImpl$work.division(behavioral)/ProcessBlockImpl$nextStateLogic/GPortImpl$curr_result_pres" transform="translate(0, 70)" class="sprotty-hidden hidden" style="display:block;"/><g id="sprotty_ArchitectureBlockImpl$work.division(behavioral)/ProcessBlockImpl$nextStateLogic/GPortImpl$curr_divisor_pres" transform="translate(0, 60)" class="sprotty-hidden hidden" style="display:block;"/><g id="sprotty_ArchitectureBlockImpl$work.division(behavioral)/ProcessBlockImpl$nextStateLogic/GPortImpl$curr_dividend_pres" transform="translate(0, 90)" class="sprotty-hidden hidden" style="display:block;"/><g id="sprotty_ArchitectureBlockImpl$work.division(behavioral)/ProcessBlockImpl$nextStateLogic/GPortImpl$fsm_state_pres" transform="translate(0, 100)" class="sprotty-hidden hidden" style="display:block;"/><g id="sprotty_ArchitectureBlockImpl$work.division(behavioral)/ProcessBlockImpl$nextStateLogic/GPortImpl$Divisor_in" transform="translate(0, 20)" class="sprotty-hidden hidden" style="display:block;"/><g id="sprotty_ArchitectureBlockImpl$work.division(behavioral)/ProcessBlockImpl$nextStateLogic/GPortImpl$Dividend_in" transform="translate(0, 30)" class="sprotty-hidden hidden" style="display:block;"/><g id="sprotty_ArchitectureBlockImpl$work.division(behavioral)/ProcessBlockImpl$nextStateLogic/GPortImpl$Start_in" transform="translate(0, 10)" class="sprotty-hidden hidden" style="display:block;"/><g id="sprotty_ArchitectureBlockImpl$work.division(behavioral)/ProcessBlockImpl$nextStateLogic/GPortImpl$Busy_out" transform="translate(127.625, 11)" class="sprotty-hidden hidden" style="display:block;"/><g id="sprotty_ArchitectureBlockImpl$work.division(behavioral)/ProcessBlockImpl$nextStateLogic/GPortImpl$Result_out" transform="translate(127.625, 22)" class="sprotty-hidden hidden" style="display:block;"/><g id="sprotty_ArchitectureBlockImpl$work.division(behavioral)/ProcessBlockImpl$nextStateLogic/GPortImpl$fsm_state_next" transform="translate(127.625, 99)" class="sprotty-hidden hidden" style="display:block;"/><g id="sprotty_ArchitectureBlockImpl$work.division(behavioral)/ProcessBlockImpl$nextStateLogic/GPortImpl$curr_dividend_next" transform="translate(127.625, 88)" class="sprotty-hidden hidden" style="display:block;"/><g id="sprotty_ArchitectureBlockImpl$work.division(behavioral)/ProcessBlockImpl$nextStateLogic/GPortImpl$curr_divisor_next" transform="translate(127.625, 77)" class="sprotty-hidden hidden" style="display:block;"/><g id="sprotty_ArchitectureBlockImpl$work.division(behavioral)/ProcessBlockImpl$nextStateLogic/GPortImpl$curr_result_next" transform="translate(127.625, 66)" class="sprotty-hidden hidden" style="display:block;"/><g id="sprotty_ArchitectureBlockImpl$work.division(behavioral)/ProcessBlockImpl$nextStateLogic/GPortImpl$curr_neg_next" transform="translate(127.625, 55)" class="sprotty-hidden hidden" style="display:block;"/><g id="sprotty_ArchitectureBlockImpl$work.division(behavioral)/ProcessBlockImpl$nextStateLogic/GPortImpl$counter_next" transform="translate(127.625, 44)" class="sprotty-hidden hidden" style="display:block;"/><g id="sprotty_ArchitectureBlockImpl$work.division(behavioral)/ProcessBlockImpl$nextStateLogic/GPortImpl$temp_next" transform="translate(127.625, 33)" class="sprotty-hidden hidden" style="display:block;"/></g><g id="sprotty_ArchitectureBlockImpl$work.division(behavioral)/GPortImpl$CLK" transform="translate(0, 70)" class="triangle"><path d="M 0,0 L 5,2.5 L 0,5 Z" transform="translate(-1.67, -2.5)" class="sprotty-port" style="fill:rgb(48, 48, 48);stroke:rgb(48, 48, 48);"/><text class="clickable sprotty-label port" id="sprotty_ArchitectureBlockImpl$work.division(behavioral)/GPortImpl$CLK/label" transform="translate(6, 6) translate(11.953125, 14)" style="cursor:default;font-size:12px;perspective-origin:0.125px 0px;fill:rgb(48, 48, 48);text-anchor:middle;">CLK</text></g><g id="sprotty_ArchitectureBlockImpl$work.division(behavioral)/GPortImpl$RESETN" transform="translate(0, 36)" class="triangle"><path d="M 0,0 L 5,2.5 L 0,5 Z" transform="translate(-1.67, -2.5)" class="sprotty-port" style="fill:rgb(48, 48, 48);stroke:rgb(48, 48, 48);"/><text class="clickable sprotty-label port" id="sprotty_ArchitectureBlockImpl$work.division(behavioral)/GPortImpl$RESETN/label" transform="translate(6, 6) translate(22.359375, 14)" style="cursor:default;font-size:12px;perspective-origin:0.171875px 0px;fill:rgb(48, 48, 48);text-anchor:middle;">RESETN</text></g><g id="sprotty_ArchitectureBlockImpl$work.division(behavioral)/GPortImpl$Divisor_in" transform="translate(0, 138)" class="triangle"><path d="M 0,0 L 5,2.5 L 0,5 Z" transform="translate(-1.67, -2.5)" class="sprotty-port" style="fill:rgb(48, 48, 48);stroke:rgb(48, 48, 48);"/><text class="clickable sprotty-label port" id="sprotty_ArchitectureBlockImpl$work.division(behavioral)/GPortImpl$Divisor_in/label" transform="translate(6, 6) translate(27.984375, 14)" style="cursor:default;font-size:12px;perspective-origin:0.328125px 0px;fill:rgb(48, 48, 48);text-anchor:middle;">Divisor_in</text></g><g id="sprotty_ArchitectureBlockImpl$work.division(behavioral)/GPortImpl$Dividend_in" transform="translate(0, 172)" class="triangle"><path d="M 0,0 L 5,2.5 L 0,5 Z" transform="translate(-1.67, -2.5)" class="sprotty-port" style="fill:rgb(48, 48, 48);stroke:rgb(48, 48, 48);"/><text class="clickable sprotty-label port" id="sprotty_ArchitectureBlockImpl$work.division(behavioral)/GPortImpl$Dividend_in/label" transform="translate(6, 6) translate(33.640625, 14)" style="cursor:default;font-size:12px;perspective-origin:0.328125px 0px;fill:rgb(48, 48, 48);text-anchor:middle;">Dividend_in</text></g><g id="sprotty_ArchitectureBlockImpl$work.division(behavioral)/GPortImpl$Start_in" transform="translate(0, 104)" class="triangle"><path d="M 0,0 L 5,2.5 L 0,5 Z" transform="translate(-1.67, -2.5)" class="sprotty-port" style="fill:rgb(48, 48, 48);stroke:rgb(48, 48, 48);"/><text class="clickable sprotty-label port" id="sprotty_ArchitectureBlockImpl$work.division(behavioral)/GPortImpl$Start_in/label" transform="translate(6, 6) translate(23.171875, 14)" style="cursor:default;font-size:12px;perspective-origin:-0.15625px 0px;fill:rgb(48, 48, 48);text-anchor:middle;">Start_in</text></g><g id="sprotty_ArchitectureBlockImpl$work.division(behavioral)/GPortImpl$Busy_out" transform="translate(635.078125, 75)" class="triangle"><path d="M 0,0 L 5,2.5 L 0,5 Z" transform="translate(-1.67, -2.5)" class="sprotty-port" style="fill:rgb(48, 48, 48);stroke:rgb(48, 48, 48);"/><text class="clickable sprotty-label port" id="sprotty_ArchitectureBlockImpl$work.division(behavioral)/GPortImpl$Busy_out/label" transform="translate(-60.296875, 6) translate(26.40625, 14)" style="cursor:default;font-size:12px;perspective-origin:0.734375px 0px;fill:rgb(48, 48, 48);text-anchor:middle;">Busy_out</text></g><g id="sprotty_ArchitectureBlockImpl$work.division(behavioral)/GPortImpl$Result_out" transform="translate(635.078125, 109)" class="triangle"><path d="M 0,0 L 5,2.5 L 0,5 Z" transform="translate(-1.67, -2.5)" class="sprotty-port" style="fill:rgb(48, 48, 48);stroke:rgb(48, 48, 48);"/><text class="clickable sprotty-label port" id="sprotty_ArchitectureBlockImpl$work.division(behavioral)/GPortImpl$Result_out/label" transform="translate(-68.234375, 6) translate(30.375, 14)" style="cursor:default;font-size:12px;perspective-origin:0.734375px 0px;fill:rgb(48, 48, 48);text-anchor:middle;">Result_out</text></g></g></g></svg>