<svg xmlns="http://www.w3.org/2000/svg" id="sprotty_work.writeDRP.behavioral" class="sprotty-graph sprotty-block-diagram blockdiagram" style="font-family:&quot;Noto Sans&quot;, Helvetica, Arial, sans-serif;perspective-origin:0px 0px;transform-origin:0px 0px;" version="1.1" viewBox="7 7 626.1875 378" width="626.1875" height="378"><g transform="scale(1) translate(0,0)"><g id="sprotty_ArchitectureBlockImpl$work.writeDRP(behavioral)" transform="translate(12, 12)" class="architecture"><g class="sprotty-block" style="fill:rgb(255, 255, 255);stroke:rgb(48, 48, 48);stroke-dasharray:0px;"><rect x="0" y="0" rx="1" ry="1" width="616.1875" height="368"/><text x="308.09375" y="12" class="sprotty-block-name" style="cursor:pointer;font-weight:bold;perspective-origin:307.578px 0px;fill:rgb(48, 48, 48);stroke:rgba(0, 0, 0, 0);dominant-baseline:middle;text-anchor:middle;">work.writeDRP(behavioral)</text><line x1="0" y1="20" x2="616.1875" y2="20"/></g><g id="sprotty_ArchitectureBlockImpl$work.writeDRP(behavioral)/GPortImpl$addr_in_to_ArchitectureBlockImpl$work.writeDRP(behavioral)/ProcessBlockImpl$nextStateLogic/GPortImpl$addr_in" class="sprotty-edge thick edge" style="fill:none;stroke:rgb(112, 112, 112);stroke-linejoin:round;stroke-width:3px;"><g><path d="M 0 270 L 112.359375 270 C 113.359375 270 114.359375 269 114.359375 268 L 114.359375 200 C 114.359375 199 115.359375 198 116.359375 198 L 154.359375 198 "/><path d="M 0 270 L 112.359375 270 C 113.359375 270 114.359375 269 114.359375 268 L 114.359375 200 C 114.359375 199 115.359375 198 116.359375 198 L 154.359375 198 " class="clickable"/></g></g><g id="sprotty_ArchitectureBlockImpl$work.writeDRP(behavioral)/GPortImpl$data_in_to_ArchitectureBlockImpl$work.writeDRP(behavioral)/ProcessBlockImpl$nextStateLogic/GPortImpl$data_in" class="sprotty-edge thick edge" style="fill:none;stroke:rgb(112, 112, 112);stroke-linejoin:round;stroke-width:3px;"><g><path d="M 0 236 L 102.359375 236 C 103.359375 236 104.359375 235 104.359375 234 L 104.359375 190 C 104.359375 189 105.359375 188 106.359375 188 L 154.359375 188 "/><path d="M 0 236 L 102.359375 236 C 103.359375 236 104.359375 235 104.359375 234 L 104.359375 190 C 104.359375 189 105.359375 188 106.359375 188 L 154.359375 188 " class="clickable"/></g></g><g id="sprotty_ArchitectureBlockImpl$work.writeDRP(behavioral)/GPortImpl$bitmask_in_to_ArchitectureBlockImpl$work.writeDRP(behavioral)/ProcessBlockImpl$nextStateLogic/GPortImpl$bitmask_in" class="sprotty-edge thick edge" style="fill:none;stroke:rgb(112, 112, 112);stroke-linejoin:round;stroke-width:3px;"><g><path d="M 0 134 L 92.359375 134 C 93.359375 134 94.359375 135 94.359375 136 L 94.359375 156 C 94.359375 157 95.359375 158 96.359375 158 L 154.359375 158 "/><path d="M 0 134 L 92.359375 134 C 93.359375 134 94.359375 135 94.359375 136 L 94.359375 156 C 94.359375 157 95.359375 158 96.359375 158 L 154.359375 158 " class="clickable"/></g></g><g id="sprotty_ArchitectureBlockImpl$work.writeDRP(behavioral)/GPortImpl$start_in_to_ArchitectureBlockImpl$work.writeDRP(behavioral)/ProcessBlockImpl$nextStateLogic/GPortImpl$start_in" class="sprotty-edge edge" style="fill:none;stroke:rgb(112, 112, 112);stroke-linejoin:round;"><g><path d="M 0 168 L 154.359375 168 "/><path d="M 0 168 L 154.359375 168 " class="clickable"/></g></g><g id="sprotty_ArchitectureBlockImpl$work.writeDRP(behavioral)/GPortImpl$drp_do_to_ArchitectureBlockImpl$work.writeDRP(behavioral)/ProcessBlockImpl$nextStateLogic/GPortImpl$drp_do" class="sprotty-edge thick edge" style="fill:none;stroke:rgb(112, 112, 112);stroke-linejoin:round;stroke-width:3px;"><g><path d="M 0 202 L 92.359375 202 C 93.359375 202 94.359375 201 94.359375 200 L 94.359375 180 C 94.359375 179 95.359375 178 96.359375 178 L 154.359375 178 "/><path d="M 0 202 L 92.359375 202 C 93.359375 202 94.359375 201 94.359375 200 L 94.359375 180 C 94.359375 179 95.359375 178 96.359375 178 L 154.359375 178 " class="clickable"/></g></g><g id="sprotty_ArchitectureBlockImpl$work.writeDRP(behavioral)/GPortImpl$drp_drdy_to_ArchitectureBlockImpl$work.writeDRP(behavioral)/ProcessBlockImpl$nextStateLogic/GPortImpl$drp_drdy" class="sprotty-edge edge" style="fill:none;stroke:rgb(112, 112, 112);stroke-linejoin:round;"><g><path d="M 0 100 L 102.359375 100 C 103.359375 100 104.359375 101 104.359375 102 L 104.359375 146 C 104.359375 147 105.359375 148 106.359375 148 L 154.359375 148 "/><path d="M 0 100 L 102.359375 100 C 103.359375 100 104.359375 101 104.359375 102 L 104.359375 146 C 104.359375 147 105.359375 148 106.359375 148 L 154.359375 148 " class="clickable"/></g></g><g id="sprotty_ArchitectureBlockImpl$work.writeDRP(behavioral)/GPortImpl$clk_to_ArchitectureBlockImpl$work.writeDRP(behavioral)/ProcessBlockImpl$stateRegister/GPortImpl$clk" class="sprotty-edge edge" style="fill:none;stroke:rgb(112, 112, 112);stroke-linejoin:round;"><g><path d="M 0 36 L 289.984375 36 C 290.984375 36 291.984375 37 291.984375 38 L 291.984375 96 C 291.984375 97 292.984375 98 293.984375 98 L 351.984375 98 "/><path d="M 0 36 L 289.984375 36 C 290.984375 36 291.984375 37 291.984375 38 L 291.984375 96 C 291.984375 97 292.984375 98 293.984375 98 L 351.984375 98 " class="clickable"/></g></g><g id="sprotty_ArchitectureBlockImpl$work.writeDRP(behavioral)/ProcessBlockImpl$nextStateLogic/GPortImpl$ready_out_to_ArchitectureBlockImpl$work.writeDRP(behavioral)/GPortImpl$ready_out" class="sprotty-edge edge" style="fill:none;stroke:rgb(112, 112, 112);stroke-linejoin:round;"><g><path d="M 281.984375 158 L 329.984375 158 C 330.984375 158 331.984375 159 331.984375 160 L 331.984375 191 C 331.984375 192 332.984375 193 333.984375 193 L 616.1875 193 "/><path d="M 281.984375 158 L 329.984375 158 C 330.984375 158 331.984375 159 331.984375 160 L 331.984375 191 C 331.984375 192 332.984375 193 333.984375 193 L 616.1875 193 " class="clickable"/></g></g><g id="sprotty_ArchitectureBlockImpl$work.writeDRP(behavioral)/ProcessBlockImpl$nextStateLogic/GPortImpl$reset_clk_out_to_ArchitectureBlockImpl$work.writeDRP(behavioral)/GPortImpl$reset_clk_out" class="sprotty-edge edge" style="fill:none;stroke:rgb(112, 112, 112);stroke-linejoin:round;"><g><path d="M 281.984375 188 L 299.984375 188 C 300.984375 188 301.984375 189 301.984375 190 L 301.984375 293 C 301.984375 294 302.984375 295 303.984375 295 L 616.1875 295 "/><path d="M 281.984375 188 L 299.984375 188 C 300.984375 188 301.984375 189 301.984375 190 L 301.984375 293 C 301.984375 294 302.984375 295 303.984375 295 L 616.1875 295 " class="clickable"/></g></g><g id="sprotty_ArchitectureBlockImpl$work.writeDRP(behavioral)/ProcessBlockImpl$nextStateLogic/GPortImpl$drp_den_to_ArchitectureBlockImpl$work.writeDRP(behavioral)/GPortImpl$drp_den" class="sprotty-edge edge" style="fill:none;stroke:rgb(112, 112, 112);stroke-linejoin:round;"><g><path d="M 281.984375 148 L 339.984375 148 C 340.984375 148 341.984375 149 341.984375 150 L 341.984375 157 C 341.984375 158 342.984375 159 343.984375 159 L 616.1875 159 "/><path d="M 281.984375 148 L 339.984375 148 C 340.984375 148 341.984375 149 341.984375 150 L 341.984375 157 C 341.984375 158 342.984375 159 343.984375 159 L 616.1875 159 " class="clickable"/></g></g><g id="sprotty_ArchitectureBlockImpl$work.writeDRP(behavioral)/ProcessBlockImpl$nextStateLogic/GPortImpl$drp_daddr_to_ArchitectureBlockImpl$work.writeDRP(behavioral)/GPortImpl$drp_daddr" class="sprotty-edge thick edge" style="fill:none;stroke:rgb(112, 112, 112);stroke-linejoin:round;stroke-width:3px;"><g><path d="M 281.984375 178 L 309.984375 178 C 310.984375 178 311.984375 179 311.984375 180 L 311.984375 259 C 311.984375 260 312.984375 261 313.984375 261 L 616.1875 261 "/><path d="M 281.984375 178 L 309.984375 178 C 310.984375 178 311.984375 179 311.984375 180 L 311.984375 259 C 311.984375 260 312.984375 261 313.984375 261 L 616.1875 261 " class="clickable"/></g></g><g id="sprotty_ArchitectureBlockImpl$work.writeDRP(behavioral)/ProcessBlockImpl$nextStateLogic/GPortImpl$drp_di_to_ArchitectureBlockImpl$work.writeDRP(behavioral)/GPortImpl$drp_di" class="sprotty-edge thick edge" style="fill:none;stroke:rgb(112, 112, 112);stroke-linejoin:round;stroke-width:3px;"><g><path d="M 281.984375 198 L 289.984375 198 C 290.984375 198 291.984375 199 291.984375 200 L 291.984375 327 C 291.984375 328 292.984375 329 293.984375 329 L 616.1875 329 "/><path d="M 281.984375 198 L 289.984375 198 C 290.984375 198 291.984375 199 291.984375 200 L 291.984375 327 C 291.984375 328 292.984375 329 293.984375 329 L 616.1875 329 " class="clickable"/></g></g><g id="sprotty_ArchitectureBlockImpl$work.writeDRP(behavioral)/ProcessBlockImpl$nextStateLogic/GPortImpl$drp_dwe_to_ArchitectureBlockImpl$work.writeDRP(behavioral)/GPortImpl$drp_dwe" class="sprotty-edge edge" style="fill:none;stroke:rgb(112, 112, 112);stroke-linejoin:round;"><g><path d="M 281.984375 168 L 319.984375 168 C 320.984375 168 321.984375 169 321.984375 170 L 321.984375 225 C 321.984375 226 322.984375 227 323.984375 227 L 616.1875 227 "/><path d="M 281.984375 168 L 319.984375 168 C 320.984375 168 321.984375 169 321.984375 170 L 321.984375 225 C 321.984375 226 322.984375 227 323.984375 227 L 616.1875 227 " class="clickable"/></g></g><g id="sprotty_ArchitectureBlockImpl$work.writeDRP(behavioral)/ProcessBlockImpl$nextStateLogic/GPortImpl$fsmState_next_to_ArchitectureBlockImpl$work.writeDRP(behavioral)/ProcessBlockImpl$stateRegister/GPortImpl$fsmState_next" class="sprotty-edge thick edge" style="fill:none;stroke:rgb(112, 112, 112);stroke-linejoin:round;stroke-width:3px;"><g><path d="M 281.984375 138 L 351.984375 138 "/><path d="M 281.984375 138 L 351.984375 138 " class="clickable"/></g></g><g id="sprotty_ArchitectureBlockImpl$work.writeDRP(behavioral)/ProcessBlockImpl$nextStateLogic/GPortImpl$drpAddr_next_to_ArchitectureBlockImpl$work.writeDRP(behavioral)/ProcessBlockImpl$stateRegister/GPortImpl$drpAddr_next" class="sprotty-edge thick edge" style="fill:none;stroke:rgb(112, 112, 112);stroke-linejoin:round;stroke-width:3px;"><g><path d="M 281.984375 128 L 351.984375 128 "/><path d="M 281.984375 128 L 351.984375 128 " class="clickable"/></g></g><g id="sprotty_ArchitectureBlockImpl$work.writeDRP(behavioral)/ProcessBlockImpl$nextStateLogic/GPortImpl$drpDi_next_to_ArchitectureBlockImpl$work.writeDRP(behavioral)/ProcessBlockImpl$stateRegister/GPortImpl$drpDi_next" class="sprotty-edge thick edge" style="fill:none;stroke:rgb(112, 112, 112);stroke-linejoin:round;stroke-width:3px;"><g><path d="M 281.984375 118 L 351.984375 118 "/><path d="M 281.984375 118 L 351.984375 118 " class="clickable"/></g></g><g id="sprotty_ArchitectureBlockImpl$work.writeDRP(behavioral)/ProcessBlockImpl$nextStateLogic/GPortImpl$bitmask_next_to_ArchitectureBlockImpl$work.writeDRP(behavioral)/ProcessBlockImpl$stateRegister/GPortImpl$bitmask_next" class="sprotty-edge thick edge" style="fill:none;stroke:rgb(112, 112, 112);stroke-linejoin:round;stroke-width:3px;"><g><path d="M 281.984375 108 L 351.984375 108 "/><path d="M 281.984375 108 L 351.984375 108 " class="clickable"/></g></g><g id="sprotty_ArchitectureBlockImpl$work.writeDRP(behavioral)/ProcessBlockImpl$stateRegister/GPortImpl$fsmState_pres_to_ArchitectureBlockImpl$work.writeDRP(behavioral)/ProcessBlockImpl$nextStateLogic/GPortImpl$fsmState_pres" class="sprotty-edge thick edge" style="fill:none;stroke:rgb(112, 112, 112);stroke-linejoin:round;stroke-width:3px;"><g><path d="M 467.25 136 L 505.25 136 C 506.25 136 507.25 135 507.25 134 L 507.25 50 C 507.25 49 506.25 48 505.25 48 L 116.359375 48 C 115.359375 48 114.359375 49 114.359375 50 L 114.359375 136 C 114.359375 137 115.359375 138 116.359375 138 L 154.359375 138 "/><path d="M 467.25 136 L 505.25 136 C 506.25 136 507.25 135 507.25 134 L 507.25 50 C 507.25 49 506.25 48 505.25 48 L 116.359375 48 C 115.359375 48 114.359375 49 114.359375 50 L 114.359375 136 C 114.359375 137 115.359375 138 116.359375 138 L 154.359375 138 " class="clickable"/></g></g><g id="sprotty_ArchitectureBlockImpl$work.writeDRP(behavioral)/ProcessBlockImpl$stateRegister/GPortImpl$drpAddr_pres_to_ArchitectureBlockImpl$work.writeDRP(behavioral)/ProcessBlockImpl$nextStateLogic/GPortImpl$drpAddr_pres" class="sprotty-edge thick edge" style="fill:none;stroke:rgb(112, 112, 112);stroke-linejoin:round;stroke-width:3px;"><g><path d="M 467.25 124 L 495.25 124 C 496.25 124 497.25 123 497.25 122 L 497.25 60 C 497.25 59 496.25 58 495.25 58 L 126.359375 58 C 125.359375 58 124.359375 59 124.359375 60 L 124.359375 126 C 124.359375 127 125.359375 128 126.359375 128 L 154.359375 128 "/><path d="M 467.25 124 L 495.25 124 C 496.25 124 497.25 123 497.25 122 L 497.25 60 C 497.25 59 496.25 58 495.25 58 L 126.359375 58 C 125.359375 58 124.359375 59 124.359375 60 L 124.359375 126 C 124.359375 127 125.359375 128 126.359375 128 L 154.359375 128 " class="clickable"/></g></g><g id="sprotty_ArchitectureBlockImpl$work.writeDRP(behavioral)/ProcessBlockImpl$stateRegister/GPortImpl$drpDi_pres_to_ArchitectureBlockImpl$work.writeDRP(behavioral)/ProcessBlockImpl$nextStateLogic/GPortImpl$drpDi_pres" class="sprotty-edge thick edge" style="fill:none;stroke:rgb(112, 112, 112);stroke-linejoin:round;stroke-width:3px;"><g><path d="M 467.25 112 L 485.25 112 C 486.25 112 487.25 111 487.25 110 L 487.25 70 C 487.25 69 486.25 68 485.25 68 L 136.359375 68 C 135.359375 68 134.359375 69 134.359375 70 L 134.359375 116 C 134.359375 117 135.359375 118 136.359375 118 L 154.359375 118 "/><path d="M 467.25 112 L 485.25 112 C 486.25 112 487.25 111 487.25 110 L 487.25 70 C 487.25 69 486.25 68 485.25 68 L 136.359375 68 C 135.359375 68 134.359375 69 134.359375 70 L 134.359375 116 C 134.359375 117 135.359375 118 136.359375 118 L 154.359375 118 " class="clickable"/></g></g><g id="sprotty_ArchitectureBlockImpl$work.writeDRP(behavioral)/ProcessBlockImpl$stateRegister/GPortImpl$bitmask_pres_to_ArchitectureBlockImpl$work.writeDRP(behavioral)/ProcessBlockImpl$nextStateLogic/GPortImpl$bitmask_pres" class="sprotty-edge thick edge" style="fill:none;stroke:rgb(112, 112, 112);stroke-linejoin:round;stroke-width:3px;"><g><path d="M 467.25 100 L 475.25 100 C 476.25 100 477.25 99 477.25 98 L 477.25 80 C 477.25 79 476.25 78 475.25 78 L 146.359375 78 C 145.359375 78 144.359375 79 144.359375 80 L 144.359375 106 C 144.359375 107 145.359375 108 146.359375 108 L 154.359375 108 "/><path d="M 467.25 100 L 475.25 100 C 476.25 100 477.25 99 477.25 98 L 477.25 80 C 477.25 79 476.25 78 475.25 78 L 146.359375 78 C 145.359375 78 144.359375 79 144.359375 80 L 144.359375 106 C 144.359375 107 145.359375 108 146.359375 108 L 154.359375 108 " class="clickable"/></g></g><g id="sprotty_ArchitectureBlockImpl$work.writeDRP(behavioral)/ProcessBlockImpl$stateRegister" transform="translate(351.984375, 88)" class="statement"><rect x="0" y="0" rx="10" ry="5" width="115.265625" height="60" class="sprotty-node" style="fill:rgb(245, 245, 245);stroke:rgb(112, 112, 112);"/><text class="clickable sprotty-label statementtext" id="sprotty_ArchitectureBlockImpl$work.writeDRP(behavioral)/ProcessBlockImpl$stateRegister/labeltext" transform="translate(5, 18) translate(52.609375, 19)" style="cursor:default;font-weight:bold;perspective-origin:0.015625px 0px;fill:rgb(112, 112, 112);text-anchor:middle;">stateRegister</text><g id="sprotty_ArchitectureBlockImpl$work.writeDRP(behavioral)/ProcessBlockImpl$stateRegister/GPortImpl$bitmask_next" transform="translate(0, 20)" class="sprotty-hidden hidden" style="display:block;"/><g id="sprotty_ArchitectureBlockImpl$work.writeDRP(behavioral)/ProcessBlockImpl$stateRegister/GPortImpl$drpDi_next" transform="translate(0, 30)" class="sprotty-hidden hidden" style="display:block;"/><g id="sprotty_ArchitectureBlockImpl$work.writeDRP(behavioral)/ProcessBlockImpl$stateRegister/GPortImpl$drpAddr_next" transform="translate(0, 40)" class="sprotty-hidden hidden" style="display:block;"/><g id="sprotty_ArchitectureBlockImpl$work.writeDRP(behavioral)/ProcessBlockImpl$stateRegister/GPortImpl$fsmState_next" transform="translate(0, 50)" class="sprotty-hidden hidden" style="display:block;"/><g id="sprotty_ArchitectureBlockImpl$work.writeDRP(behavioral)/ProcessBlockImpl$stateRegister/GPortImpl$clk" transform="translate(0, 10)" class="sprotty-hidden hidden" style="display:block;"/><g id="sprotty_ArchitectureBlockImpl$work.writeDRP(behavioral)/ProcessBlockImpl$stateRegister/GPortImpl$fsmState_pres" transform="translate(115.265625, 48)" class="sprotty-hidden hidden" style="display:block;"/><g id="sprotty_ArchitectureBlockImpl$work.writeDRP(behavioral)/ProcessBlockImpl$stateRegister/GPortImpl$drpAddr_pres" transform="translate(115.265625, 36)" class="sprotty-hidden hidden" style="display:block;"/><g id="sprotty_ArchitectureBlockImpl$work.writeDRP(behavioral)/ProcessBlockImpl$stateRegister/GPortImpl$drpDi_pres" transform="translate(115.265625, 24)" class="sprotty-hidden hidden" style="display:block;"/><g id="sprotty_ArchitectureBlockImpl$work.writeDRP(behavioral)/ProcessBlockImpl$stateRegister/GPortImpl$bitmask_pres" transform="translate(115.265625, 12)" class="sprotty-hidden hidden" style="display:block;"/></g><g id="sprotty_ArchitectureBlockImpl$work.writeDRP(behavioral)/ProcessBlockImpl$nextStateLogic" transform="translate(154.359375, 98)" class="statement"><rect x="0" y="0" rx="10" ry="5" width="127.625" height="110" class="sprotty-node" style="fill:rgb(245, 245, 245);stroke:rgb(112, 112, 112);"/><text class="clickable sprotty-label statementtext" id="sprotty_ArchitectureBlockImpl$work.writeDRP(behavioral)/ProcessBlockImpl$nextStateLogic/labeltext" transform="translate(5, 43) translate(58.53125, 19)" style="cursor:default;font-weight:bold;perspective-origin:0.28125px 0px;fill:rgb(112, 112, 112);text-anchor:middle;">nextStateLogic</text><g id="sprotty_ArchitectureBlockImpl$work.writeDRP(behavioral)/ProcessBlockImpl$nextStateLogic/GPortImpl$bitmask_pres" transform="translate(0, 10)" class="sprotty-hidden hidden" style="display:block;"/><g id="sprotty_ArchitectureBlockImpl$work.writeDRP(behavioral)/ProcessBlockImpl$nextStateLogic/GPortImpl$drpDi_pres" transform="translate(0, 20)" class="sprotty-hidden hidden" style="display:block;"/><g id="sprotty_ArchitectureBlockImpl$work.writeDRP(behavioral)/ProcessBlockImpl$nextStateLogic/GPortImpl$drpAddr_pres" transform="translate(0, 30)" class="sprotty-hidden hidden" style="display:block;"/><g id="sprotty_ArchitectureBlockImpl$work.writeDRP(behavioral)/ProcessBlockImpl$nextStateLogic/GPortImpl$fsmState_pres" transform="translate(0, 40)" class="sprotty-hidden hidden" style="display:block;"/><g id="sprotty_ArchitectureBlockImpl$work.writeDRP(behavioral)/ProcessBlockImpl$nextStateLogic/GPortImpl$drp_drdy" transform="translate(0, 50)" class="sprotty-hidden hidden" style="display:block;"/><g id="sprotty_ArchitectureBlockImpl$work.writeDRP(behavioral)/ProcessBlockImpl$nextStateLogic/GPortImpl$drp_do" transform="translate(0, 80)" class="sprotty-hidden hidden" style="display:block;"/><g id="sprotty_ArchitectureBlockImpl$work.writeDRP(behavioral)/ProcessBlockImpl$nextStateLogic/GPortImpl$start_in" transform="translate(0, 70)" class="sprotty-hidden hidden" style="display:block;"/><g id="sprotty_ArchitectureBlockImpl$work.writeDRP(behavioral)/ProcessBlockImpl$nextStateLogic/GPortImpl$bitmask_in" transform="translate(0, 60)" class="sprotty-hidden hidden" style="display:block;"/><g id="sprotty_ArchitectureBlockImpl$work.writeDRP(behavioral)/ProcessBlockImpl$nextStateLogic/GPortImpl$data_in" transform="translate(0, 90)" class="sprotty-hidden hidden" style="display:block;"/><g id="sprotty_ArchitectureBlockImpl$work.writeDRP(behavioral)/ProcessBlockImpl$nextStateLogic/GPortImpl$addr_in" transform="translate(0, 100)" class="sprotty-hidden hidden" style="display:block;"/><g id="sprotty_ArchitectureBlockImpl$work.writeDRP(behavioral)/ProcessBlockImpl$nextStateLogic/GPortImpl$ready_out" transform="translate(127.625, 60)" class="sprotty-hidden hidden" style="display:block;"/><g id="sprotty_ArchitectureBlockImpl$work.writeDRP(behavioral)/ProcessBlockImpl$nextStateLogic/GPortImpl$reset_clk_out" transform="translate(127.625, 90)" class="sprotty-hidden hidden" style="display:block;"/><g id="sprotty_ArchitectureBlockImpl$work.writeDRP(behavioral)/ProcessBlockImpl$nextStateLogic/GPortImpl$drp_den" transform="translate(127.625, 50)" class="sprotty-hidden hidden" style="display:block;"/><g id="sprotty_ArchitectureBlockImpl$work.writeDRP(behavioral)/ProcessBlockImpl$nextStateLogic/GPortImpl$drp_daddr" transform="translate(127.625, 80)" class="sprotty-hidden hidden" style="display:block;"/><g id="sprotty_ArchitectureBlockImpl$work.writeDRP(behavioral)/ProcessBlockImpl$nextStateLogic/GPortImpl$drp_di" transform="translate(127.625, 100)" class="sprotty-hidden hidden" style="display:block;"/><g id="sprotty_ArchitectureBlockImpl$work.writeDRP(behavioral)/ProcessBlockImpl$nextStateLogic/GPortImpl$drp_dwe" transform="translate(127.625, 70)" class="sprotty-hidden hidden" style="display:block;"/><g id="sprotty_ArchitectureBlockImpl$work.writeDRP(behavioral)/ProcessBlockImpl$nextStateLogic/GPortImpl$fsmState_next" transform="translate(127.625, 40)" class="sprotty-hidden hidden" style="display:block;"/><g id="sprotty_ArchitectureBlockImpl$work.writeDRP(behavioral)/ProcessBlockImpl$nextStateLogic/GPortImpl$drpAddr_next" transform="translate(127.625, 30)" class="sprotty-hidden hidden" style="display:block;"/><g id="sprotty_ArchitectureBlockImpl$work.writeDRP(behavioral)/ProcessBlockImpl$nextStateLogic/GPortImpl$drpDi_next" transform="translate(127.625, 20)" class="sprotty-hidden hidden" style="display:block;"/><g id="sprotty_ArchitectureBlockImpl$work.writeDRP(behavioral)/ProcessBlockImpl$nextStateLogic/GPortImpl$bitmask_next" transform="translate(127.625, 10)" class="sprotty-hidden hidden" style="display:block;"/></g><g id="sprotty_ArchitectureBlockImpl$work.writeDRP(behavioral)/GPortImpl$clk" transform="translate(0, 36)" class="triangle"><path d="M 0,0 L 5,2.5 L 0,5 Z" transform="translate(-1.67, -2.5)" class="sprotty-port" style="fill:rgb(48, 48, 48);stroke:rgb(48, 48, 48);"/><text class="clickable sprotty-label port" id="sprotty_ArchitectureBlockImpl$work.writeDRP(behavioral)/GPortImpl$clk/label" transform="translate(6, 6) translate(9.0625, 14)" style="cursor:default;font-size:12px;perspective-origin:0.1875px 0px;fill:rgb(48, 48, 48);text-anchor:middle;">clk</text></g><g id="sprotty_ArchitectureBlockImpl$work.writeDRP(behavioral)/GPortImpl$drp_drdy" transform="translate(0, 100)" class="triangle"><path d="M 0,0 L 5,2.5 L 0,5 Z" transform="translate(-1.67, -2.5)" class="sprotty-port" style="fill:rgb(48, 48, 48);stroke:rgb(48, 48, 48);"/><text class="clickable sprotty-label port" id="sprotty_ArchitectureBlockImpl$work.writeDRP(behavioral)/GPortImpl$drp_drdy/label" transform="translate(6, 6) translate(26.9375, 14)" style="cursor:default;font-size:12px;perspective-origin:0.375px 0px;fill:rgb(48, 48, 48);text-anchor:middle;">drp_drdy</text></g><g id="sprotty_ArchitectureBlockImpl$work.writeDRP(behavioral)/GPortImpl$drp_do" transform="translate(0, 202)" class="triangle"><path d="M 0,0 L 5,2.5 L 0,5 Z" transform="translate(-1.67, -2.5)" class="sprotty-port" style="fill:rgb(48, 48, 48);stroke:rgb(48, 48, 48);"/><text class="clickable sprotty-label port" id="sprotty_ArchitectureBlockImpl$work.writeDRP(behavioral)/GPortImpl$drp_do/label" transform="translate(6, 6) translate(21.46875, 14)" style="cursor:default;font-size:12px;perspective-origin:-0.125px 0px;fill:rgb(48, 48, 48);text-anchor:middle;">drp_do</text></g><g id="sprotty_ArchitectureBlockImpl$work.writeDRP(behavioral)/GPortImpl$start_in" transform="translate(0, 168)" class="triangle"><path d="M 0,0 L 5,2.5 L 0,5 Z" transform="translate(-1.67, -2.5)" class="sprotty-port" style="fill:rgb(48, 48, 48);stroke:rgb(48, 48, 48);"/><text class="clickable sprotty-label port" id="sprotty_ArchitectureBlockImpl$work.writeDRP(behavioral)/GPortImpl$start_in/label" transform="translate(6, 6) translate(22.4375, 14)" style="cursor:default;font-size:12px;perspective-origin:-0.171875px 0px;fill:rgb(48, 48, 48);text-anchor:middle;">start_in</text></g><g id="sprotty_ArchitectureBlockImpl$work.writeDRP(behavioral)/GPortImpl$bitmask_in" transform="translate(0, 134)" class="triangle"><path d="M 0,0 L 5,2.5 L 0,5 Z" transform="translate(-1.67, -2.5)" class="sprotty-port" style="fill:rgb(48, 48, 48);stroke:rgb(48, 48, 48);"/><text class="clickable sprotty-label port" id="sprotty_ArchitectureBlockImpl$work.writeDRP(behavioral)/GPortImpl$bitmask_in/label" transform="translate(6, 6) translate(31.34375, 14)" style="cursor:default;font-size:12px;perspective-origin:0.328125px 0px;fill:rgb(48, 48, 48);text-anchor:middle;">bitmask_in</text></g><g id="sprotty_ArchitectureBlockImpl$work.writeDRP(behavioral)/GPortImpl$data_in" transform="translate(0, 236)" class="triangle"><path d="M 0,0 L 5,2.5 L 0,5 Z" transform="translate(-1.67, -2.5)" class="sprotty-port" style="fill:rgb(48, 48, 48);stroke:rgb(48, 48, 48);"/><text class="clickable sprotty-label port" id="sprotty_ArchitectureBlockImpl$work.writeDRP(behavioral)/GPortImpl$data_in/label" transform="translate(6, 6) translate(22.171875, 14)" style="cursor:default;font-size:12px;perspective-origin:-0.15625px 0px;fill:rgb(48, 48, 48);text-anchor:middle;">data_in</text></g><g id="sprotty_ArchitectureBlockImpl$work.writeDRP(behavioral)/GPortImpl$addr_in" transform="translate(0, 270)" class="triangle"><path d="M 0,0 L 5,2.5 L 0,5 Z" transform="translate(-1.67, -2.5)" class="sprotty-port" style="fill:rgb(48, 48, 48);stroke:rgb(48, 48, 48);"/><text class="clickable sprotty-label port" id="sprotty_ArchitectureBlockImpl$work.writeDRP(behavioral)/GPortImpl$addr_in/label" transform="translate(6, 6) translate(22.8125, 14)" style="cursor:default;font-size:12px;perspective-origin:-0.15625px 0px;fill:rgb(48, 48, 48);text-anchor:middle;">addr_in</text></g><g id="sprotty_ArchitectureBlockImpl$work.writeDRP(behavioral)/GPortImpl$ready_out" transform="translate(616.1875, 193)" class="triangle"><path d="M 0,0 L 5,2.5 L 0,5 Z" transform="translate(-1.67, -2.5)" class="sprotty-port" style="fill:rgb(48, 48, 48);stroke:rgb(48, 48, 48);"/><text class="clickable sprotty-label port" id="sprotty_ArchitectureBlockImpl$work.writeDRP(behavioral)/GPortImpl$ready_out/label" transform="translate(-64.703125, 6) translate(28.609375, 14)" style="cursor:default;font-size:12px;perspective-origin:0.734375px 0px;fill:rgb(48, 48, 48);text-anchor:middle;">ready_out</text></g><g id="sprotty_ArchitectureBlockImpl$work.writeDRP(behavioral)/GPortImpl$reset_clk_out" transform="translate(616.1875, 295)" class="triangle"><path d="M 0,0 L 5,2.5 L 0,5 Z" transform="translate(-1.67, -2.5)" class="sprotty-port" style="fill:rgb(48, 48, 48);stroke:rgb(48, 48, 48);"/><text class="clickable sprotty-label port" id="sprotty_ArchitectureBlockImpl$work.writeDRP(behavioral)/GPortImpl$reset_clk_out/label" transform="translate(-83.9375, 6) translate(38.234375, 14)" style="cursor:default;font-size:12px;perspective-origin:0.734375px 0px;fill:rgb(48, 48, 48);text-anchor:middle;">reset_clk_out</text></g><g id="sprotty_ArchitectureBlockImpl$work.writeDRP(behavioral)/GPortImpl$drp_den" transform="translate(616.1875, 159)" class="triangle"><path d="M 0,0 L 5,2.5 L 0,5 Z" transform="translate(-1.67, -2.5)" class="sprotty-port" style="fill:rgb(48, 48, 48);stroke:rgb(48, 48, 48);"/><text class="clickable sprotty-label port" id="sprotty_ArchitectureBlockImpl$work.writeDRP(behavioral)/GPortImpl$drp_den/label" transform="translate(-55.328125, 6) translate(24.828125, 14)" style="cursor:default;font-size:12px;perspective-origin:-0.15625px 0px;fill:rgb(48, 48, 48);text-anchor:middle;">drp_den</text></g><g id="sprotty_ArchitectureBlockImpl$work.writeDRP(behavioral)/GPortImpl$drp_daddr" transform="translate(616.1875, 261)" class="triangle"><path d="M 0,0 L 5,2.5 L 0,5 Z" transform="translate(-1.67, -2.5)" class="sprotty-port" style="fill:rgb(48, 48, 48);stroke:rgb(48, 48, 48);"/><text class="clickable sprotty-label port" id="sprotty_ArchitectureBlockImpl$work.writeDRP(behavioral)/GPortImpl$drp_daddr/label" transform="translate(-68.328125, 6) translate(30.984375, 14)" style="cursor:default;font-size:12px;perspective-origin:0.171875px 0px;fill:rgb(48, 48, 48);text-anchor:middle;">drp_daddr</text></g><g id="sprotty_ArchitectureBlockImpl$work.writeDRP(behavioral)/GPortImpl$drp_di" transform="translate(616.1875, 329)" class="triangle"><path d="M 0,0 L 5,2.5 L 0,5 Z" transform="translate(-1.67, -2.5)" class="sprotty-port" style="fill:rgb(48, 48, 48);stroke:rgb(48, 48, 48);"/><text class="clickable sprotty-label port" id="sprotty_ArchitectureBlockImpl$work.writeDRP(behavioral)/GPortImpl$drp_di/label" transform="translate(-44.671875, 6) translate(19.484375, 14)" style="cursor:default;font-size:12px;perspective-origin:-0.140625px 0px;fill:rgb(48, 48, 48);text-anchor:middle;">drp_di</text></g><g id="sprotty_ArchitectureBlockImpl$work.writeDRP(behavioral)/GPortImpl$drp_dwe" transform="translate(616.1875, 227)" class="triangle"><path d="M 0,0 L 5,2.5 L 0,5 Z" transform="translate(-1.67, -2.5)" class="sprotty-port" style="fill:rgb(48, 48, 48);stroke:rgb(48, 48, 48);"/><text class="clickable sprotty-label port" id="sprotty_ArchitectureBlockImpl$work.writeDRP(behavioral)/GPortImpl$drp_dwe/label" transform="translate(-58.25, 6) translate(25.953125, 14)" style="cursor:default;font-size:12px;perspective-origin:0.171875px 0px;fill:rgb(48, 48, 48);text-anchor:middle;">drp_dwe</text></g></g></g></svg>