<svg xmlns="http://www.w3.org/2000/svg" id="sprotty_work.lutTransition.behavioral" class="sprotty-graph sprotty-block-diagram blockdiagram" style="font-family:&quot;Noto Sans&quot;, Helvetica, Arial, sans-serif;perspective-origin:0px 0px;transform-origin:0px 0px;" version="1.1" viewBox="7 7 414.453125 417.3333333333333" width="414.453125" height="417.3333333333333"><g transform="scale(1) translate(0,0)"><g id="sprotty_ArchitectureBlockImpl$work.lutTransition(behavioral)" transform="translate(12, 12)" class="architecture"><g class="sprotty-block" style="fill:rgb(255, 255, 255);stroke:rgb(48, 48, 48);stroke-dasharray:0px;"><rect x="0" y="0" rx="1" ry="1" width="404.453125" height="407.3333333333333"/><text x="202.2265625" y="12" class="sprotty-block-name" style="cursor:pointer;font-weight:bold;perspective-origin:201.719px 0px;fill:rgb(48, 48, 48);stroke:rgba(0, 0, 0, 0);dominant-baseline:middle;text-anchor:middle;">work.lutTransition(behavioral)</text><line x1="0" y1="20" x2="404.453125" y2="20"/></g><g id="sprotty_ArchitectureBlockImpl$work.lutTransition(behavioral)/GPortImpl$fallTransition_in_to_ArchitectureBlockImpl$work.lutTransition(behavioral)/ProcessBlockImpl$null14/GPortImpl$fallTransition_in" class="sprotty-edge thick edge" style="fill:none;stroke:rgb(112, 112, 112);stroke-linejoin:round;stroke-width:3px;"><g><path d="M 0 52.33333333333333 L 145.234375 52.33333333333333 "/><path d="M 0 52.33333333333333 L 145.234375 52.33333333333333 " class="clickable"/></g></g><g id="sprotty_ArchitectureBlockImpl$work.lutTransition(behavioral)/GPortImpl$riseTransition_in_to_ArchitectureBlockImpl$work.lutTransition(behavioral)/ProcessBlockImpl$null14/GPortImpl$riseTransition_in" class="sprotty-edge thick edge" style="fill:none;stroke:rgb(112, 112, 112);stroke-linejoin:round;stroke-width:3px;"><g><path d="M 0 86.33333333333333 L 123.234375 86.33333333333333 C 124.234375 86.33333333333333 125.234375 85.33333333333333 125.234375 84.33333333333333 L 125.234375 64.33333333333333 C 125.234375 63.33333333333333 126.234375 62.33333333333333 127.234375 62.33333333333333 L 145.234375 62.33333333333333 "/><path d="M 0 86.33333333333333 L 123.234375 86.33333333333333 C 124.234375 86.33333333333333 125.234375 85.33333333333333 125.234375 84.33333333333333 L 125.234375 64.33333333333333 C 125.234375 63.33333333333333 126.234375 62.33333333333333 127.234375 62.33333333333333 L 145.234375 62.33333333333333 " class="clickable"/></g></g><g id="sprotty_ArchitectureBlockImpl$work.lutTransition(behavioral)/GPortImpl$fallWrEn_in_to_ArchitectureBlockImpl$work.lutTransition(behavioral)/ProcessBlockImpl$null15/GPortImpl$fallWrEn_in" class="sprotty-edge edge" style="fill:none;stroke:rgb(112, 112, 112);stroke-linejoin:round;"><g><path d="M 0 164.33333333333331 L 116.671875 164.33333333333331 C 117.671875 164.33333333333331 118.671875 165.33333333333331 118.671875 166.33333333333331 L 118.671875 234.33333333333331 C 118.671875 235.33333333333331 119.671875 236.33333333333331 120.671875 236.33333333333331 L 128.671875 236.33333333333331 "/><path d="M 0 164.33333333333331 L 116.671875 164.33333333333331 C 117.671875 164.33333333333331 118.671875 165.33333333333331 118.671875 166.33333333333331 L 118.671875 234.33333333333331 C 118.671875 235.33333333333331 119.671875 236.33333333333331 120.671875 236.33333333333331 L 128.671875 236.33333333333331 " class="clickable"/></g></g><g id="sprotty_ArchitectureBlockImpl$work.lutTransition(behavioral)/GPortImpl$fallData_in_to_ArchitectureBlockImpl$work.lutTransition(behavioral)/ProcessBlockImpl$null15/GPortImpl$fallData_in" class="sprotty-edge thick edge" style="fill:none;stroke:rgb(112, 112, 112);stroke-linejoin:round;stroke-width:3px;"><g><path d="M 0 368.3333333333333 L 116.671875 368.3333333333333 C 117.671875 368.3333333333333 118.671875 367.3333333333333 118.671875 366.3333333333333 L 118.671875 298.3333333333333 C 118.671875 297.3333333333333 119.671875 296.3333333333333 120.671875 296.3333333333333 L 128.671875 296.3333333333333 "/><path d="M 0 368.3333333333333 L 116.671875 368.3333333333333 C 117.671875 368.3333333333333 118.671875 367.3333333333333 118.671875 366.3333333333333 L 118.671875 298.3333333333333 C 118.671875 297.3333333333333 119.671875 296.3333333333333 120.671875 296.3333333333333 L 128.671875 296.3333333333333 " class="clickable"/></g></g><g id="sprotty_ArchitectureBlockImpl$work.lutTransition(behavioral)/GPortImpl$fallAddr_in_to_ArchitectureBlockImpl$work.lutTransition(behavioral)/ProcessBlockImpl$null15/GPortImpl$fallAddr_in" class="sprotty-edge thick edge" style="fill:none;stroke:rgb(112, 112, 112);stroke-linejoin:round;stroke-width:3px;"><g><path d="M 0 334.3333333333333 L 106.671875 334.3333333333333 C 107.671875 334.3333333333333 108.671875 333.3333333333333 108.671875 332.3333333333333 L 108.671875 288.3333333333333 C 108.671875 287.3333333333333 109.671875 286.3333333333333 110.671875 286.3333333333333 L 128.671875 286.3333333333333 "/><path d="M 0 334.3333333333333 L 106.671875 334.3333333333333 C 107.671875 334.3333333333333 108.671875 333.3333333333333 108.671875 332.3333333333333 L 108.671875 288.3333333333333 C 108.671875 287.3333333333333 109.671875 286.3333333333333 110.671875 286.3333333333333 L 128.671875 286.3333333333333 " class="clickable"/></g></g><g id="sprotty_ArchitectureBlockImpl$work.lutTransition(behavioral)/GPortImpl$riseWrEn_in_to_ArchitectureBlockImpl$work.lutTransition(behavioral)/ProcessBlockImpl$null15/GPortImpl$riseWrEn_in" class="sprotty-edge edge" style="fill:none;stroke:rgb(112, 112, 112);stroke-linejoin:round;"><g><path d="M 0 300.3333333333333 L 96.671875 300.3333333333333 C 97.671875 300.3333333333333 98.671875 299.3333333333333 98.671875 298.3333333333333 L 98.671875 278.3333333333333 C 98.671875 277.3333333333333 99.671875 276.3333333333333 100.671875 276.3333333333333 L 128.671875 276.3333333333333 "/><path d="M 0 300.3333333333333 L 96.671875 300.3333333333333 C 97.671875 300.3333333333333 98.671875 299.3333333333333 98.671875 298.3333333333333 L 98.671875 278.3333333333333 C 98.671875 277.3333333333333 99.671875 276.3333333333333 100.671875 276.3333333333333 L 128.671875 276.3333333333333 " class="clickable"/></g></g><g id="sprotty_ArchitectureBlockImpl$work.lutTransition(behavioral)/GPortImpl$riseData_in_to_ArchitectureBlockImpl$work.lutTransition(behavioral)/ProcessBlockImpl$null15/GPortImpl$riseData_in" class="sprotty-edge thick edge" style="fill:none;stroke:rgb(112, 112, 112);stroke-linejoin:round;stroke-width:3px;"><g><path d="M 0 266.3333333333333 L 128.671875 266.3333333333333 "/><path d="M 0 266.3333333333333 L 128.671875 266.3333333333333 " class="clickable"/></g></g><g id="sprotty_ArchitectureBlockImpl$work.lutTransition(behavioral)/GPortImpl$riseAddr_in_to_ArchitectureBlockImpl$work.lutTransition(behavioral)/ProcessBlockImpl$null15/GPortImpl$riseAddr_in" class="sprotty-edge thick edge" style="fill:none;stroke:rgb(112, 112, 112);stroke-linejoin:round;stroke-width:3px;"><g><path d="M 0 232.33333333333331 L 96.671875 232.33333333333331 C 97.671875 232.33333333333331 98.671875 233.33333333333331 98.671875 234.33333333333331 L 98.671875 254.33333333333331 C 98.671875 255.33333333333331 99.671875 256.3333333333333 100.671875 256.3333333333333 L 128.671875 256.3333333333333 "/><path d="M 0 232.33333333333331 L 96.671875 232.33333333333331 C 97.671875 232.33333333333331 98.671875 233.33333333333331 98.671875 234.33333333333331 L 98.671875 254.33333333333331 C 98.671875 255.33333333333331 99.671875 256.3333333333333 100.671875 256.3333333333333 L 128.671875 256.3333333333333 " class="clickable"/></g></g><g id="sprotty_ArchitectureBlockImpl$work.lutTransition(behavioral)/GPortImpl$clk_to_ArchitectureBlockImpl$work.lutTransition(behavioral)/ProcessBlockImpl$null14/GPortImpl$clk" class="sprotty-edge edge" style="fill:none;stroke:rgb(112, 112, 112);stroke-linejoin:round;"><g><path d="M 0 120.33333333333333 L 133.234375 120.33333333333333 C 134.234375 120.33333333333333 135.234375 119.33333333333333 135.234375 118.33333333333333 L 135.234375 74.33333333333333 C 135.234375 73.33333333333333 136.234375 72.33333333333333 137.234375 72.33333333333333 L 145.234375 72.33333333333333 "/><path d="M 0 120.33333333333333 L 133.234375 120.33333333333333 C 134.234375 120.33333333333333 135.234375 119.33333333333333 135.234375 118.33333333333333 L 135.234375 74.33333333333333 C 135.234375 73.33333333333333 136.234375 72.33333333333333 137.234375 72.33333333333333 L 145.234375 72.33333333333333 " class="clickable"/></g><circle r="2" id="sprotty_ArchitectureBlockImpl$work.lutTransition(behavioral)/GPortImpl$clk_to_ArchitectureBlockImpl$work.lutTransition(behavioral)/ProcessBlockImpl$null14/GPortImpl$clk/junction0" transform="translate(135.234375, 120.33333333333333)" class="sprotty-junction junction" style="fill:rgb(112, 112, 112);stroke:none;"/></g><g id="sprotty_ArchitectureBlockImpl$work.lutTransition(behavioral)/GPortImpl$clk_to_ArchitectureBlockImpl$work.lutTransition(behavioral)/ProcessBlockImpl$null13/GPortImpl$clk" class="sprotty-edge edge" style="fill:none;stroke:rgb(112, 112, 112);stroke-linejoin:round;"><g><path d="M 0 120.33333333333333 L 168.234375 120.33333333333333 C 169.234375 120.33333333333333 170.234375 119.33333333333333 170.234375 118.33333333333333 L 170.234375 81 C 170.234375 80 171.234375 79 172.234375 79 L 180.234375 79 "/><path d="M 0 120.33333333333333 L 168.234375 120.33333333333333 C 169.234375 120.33333333333333 170.234375 119.33333333333333 170.234375 118.33333333333333 L 170.234375 81 C 170.234375 80 171.234375 79 172.234375 79 L 180.234375 79 " class="clickable"/></g></g><g id="sprotty_ArchitectureBlockImpl$work.lutTransition(behavioral)/GPortImpl$clkSlow_to_ArchitectureBlockImpl$work.lutTransition(behavioral)/ProcessBlockImpl$null15/GPortImpl$clkSlow" class="sprotty-edge edge" style="fill:none;stroke:rgb(112, 112, 112);stroke-linejoin:round;"><g><path d="M 0 198.33333333333331 L 106.671875 198.33333333333331 C 107.671875 198.33333333333331 108.671875 199.33333333333331 108.671875 200.33333333333331 L 108.671875 244.33333333333331 C 108.671875 245.33333333333331 109.671875 246.33333333333331 110.671875 246.33333333333331 L 128.671875 246.33333333333331 "/><path d="M 0 198.33333333333331 L 106.671875 198.33333333333331 C 107.671875 198.33333333333331 108.671875 199.33333333333331 108.671875 200.33333333333331 L 108.671875 244.33333333333331 C 108.671875 245.33333333333331 109.671875 246.33333333333331 110.671875 246.33333333333331 L 128.671875 246.33333333333331 " class="clickable"/></g></g><g id="sprotty_ArchitectureBlockImpl$work.lutTransition(behavioral)/ProcessBlockImpl$null14/GPortImpl$fallLUT_to_ArchitectureBlockImpl$work.lutTransition(behavioral)/ProcessBlockImpl$null13/GPortImpl$fallLUT" class="sprotty-edge thick edge" style="fill:none;stroke:rgb(112, 112, 112);stroke-linejoin:round;stroke-width:3px;"><g><path d="M 160.234375 55.666666666666664 L 168.234375 55.666666666666664 C 169.234375 55.666666666666664 170.234375 56.666666666666664 170.234375 57.666666666666664 L 170.234375 57.666666666666664 C 170.234375 58.33333333333333 171.234375 59 172.234375 59 L 180.234375 59 "/><path d="M 160.234375 55.666666666666664 L 168.234375 55.666666666666664 C 169.234375 55.666666666666664 170.234375 56.666666666666664 170.234375 57.666666666666664 L 170.234375 57.666666666666664 C 170.234375 58.33333333333333 171.234375 59 172.234375 59 L 180.234375 59 " class="clickable"/></g></g><g id="sprotty_ArchitectureBlockImpl$work.lutTransition(behavioral)/ProcessBlockImpl$null14/GPortImpl$riseLUT_to_ArchitectureBlockImpl$work.lutTransition(behavioral)/ProcessBlockImpl$null13/GPortImpl$riseLUT" class="sprotty-edge thick edge" style="fill:none;stroke:rgb(112, 112, 112);stroke-linejoin:round;stroke-width:3px;"><g><path d="M 160.234375 69 L 180.234375 69 "/><path d="M 160.234375 69 L 180.234375 69 " class="clickable"/></g></g><g id="sprotty_ArchitectureBlockImpl$work.lutTransition(behavioral)/ProcessBlockImpl$null13/GPortImpl$correctedTransitionMean_out_to_ArchitectureBlockImpl$work.lutTransition(behavioral)/GPortImpl$correctedTransitionMean_out" class="sprotty-edge thick edge" style="fill:none;stroke:rgb(112, 112, 112);stroke-linejoin:round;stroke-width:3px;"><g><path d="M 195.234375 79 L 203.234375 79 C 204.234375 79 205.234375 80 205.234375 81 L 205.234375 101 C 205.234375 102 206.234375 103 207.234375 103 L 404.453125 103 "/><path d="M 195.234375 79 L 203.234375 79 C 204.234375 79 205.234375 80 205.234375 81 L 205.234375 101 C 205.234375 102 206.234375 103 207.234375 103 L 404.453125 103 " class="clickable"/></g></g><g id="sprotty_ArchitectureBlockImpl$work.lutTransition(behavioral)/ProcessBlockImpl$null13/GPortImpl$correctedTransition1_out_to_ArchitectureBlockImpl$work.lutTransition(behavioral)/GPortImpl$correctedTransition1_out" class="sprotty-edge thick edge" style="fill:none;stroke:rgb(112, 112, 112);stroke-linejoin:round;stroke-width:3px;"><g><path d="M 195.234375 69 L 404.453125 69 "/><path d="M 195.234375 69 L 404.453125 69 " class="clickable"/></g></g><g id="sprotty_ArchitectureBlockImpl$work.lutTransition(behavioral)/ProcessBlockImpl$null13/GPortImpl$correctedTransition2_out_to_ArchitectureBlockImpl$work.lutTransition(behavioral)/GPortImpl$correctedTransition2_out" class="sprotty-edge thick edge" style="fill:none;stroke:rgb(112, 112, 112);stroke-linejoin:round;stroke-width:3px;"><g><path d="M 195.234375 59 L 203.234375 59 C 204.234375 59 205.234375 58 205.234375 57 L 205.234375 37 C 205.234375 36 206.234375 35 207.234375 35 L 404.453125 35 "/><path d="M 195.234375 59 L 203.234375 59 C 204.234375 59 205.234375 58 205.234375 57 L 205.234375 37 C 205.234375 36 206.234375 35 207.234375 35 L 404.453125 35 " class="clickable"/></g></g><g id="sprotty_ArchitectureBlockImpl$work.lutTransition(behavioral)/ProcessBlockImpl$null13" transform="translate(180.234375, 49)" class="statement"><rect x="0" y="0" rx="10" ry="5" width="15" height="40" class="sprotty-node" style="fill:rgb(245, 245, 245);stroke:rgb(112, 112, 112);"/><g id="sprotty_ArchitectureBlockImpl$work.lutTransition(behavioral)/ProcessBlockImpl$null13/GPortImpl$riseLUT" transform="translate(0, 20)" class="sprotty-hidden hidden" style="display:block;"/><g id="sprotty_ArchitectureBlockImpl$work.lutTransition(behavioral)/ProcessBlockImpl$null13/GPortImpl$fallLUT" transform="translate(0, 10)" class="sprotty-hidden hidden" style="display:block;"/><g id="sprotty_ArchitectureBlockImpl$work.lutTransition(behavioral)/ProcessBlockImpl$null13/GPortImpl$clk" transform="translate(0, 30)" class="sprotty-hidden hidden" style="display:block;"/><g id="sprotty_ArchitectureBlockImpl$work.lutTransition(behavioral)/ProcessBlockImpl$null13/GPortImpl$correctedTransitionMean_out" transform="translate(15, 30)" class="sprotty-hidden hidden" style="display:block;"/><g id="sprotty_ArchitectureBlockImpl$work.lutTransition(behavioral)/ProcessBlockImpl$null13/GPortImpl$correctedTransition1_out" transform="translate(15, 20)" class="sprotty-hidden hidden" style="display:block;"/><g id="sprotty_ArchitectureBlockImpl$work.lutTransition(behavioral)/ProcessBlockImpl$null13/GPortImpl$correctedTransition2_out" transform="translate(15, 10)" class="sprotty-hidden hidden" style="display:block;"/></g><g id="sprotty_ArchitectureBlockImpl$work.lutTransition(behavioral)/ProcessBlockImpl$null14" transform="translate(145.234375, 42.33333333333333)" class="statement"><rect x="0" y="0" rx="10" ry="5" width="15" height="40" class="sprotty-node" style="fill:rgb(245, 245, 245);stroke:rgb(112, 112, 112);"/><g id="sprotty_ArchitectureBlockImpl$work.lutTransition(behavioral)/ProcessBlockImpl$null14/GPortImpl$clk" transform="translate(0, 30)" class="sprotty-hidden hidden" style="display:block;"/><g id="sprotty_ArchitectureBlockImpl$work.lutTransition(behavioral)/ProcessBlockImpl$null14/GPortImpl$riseTransition_in" transform="translate(0, 20)" class="sprotty-hidden hidden" style="display:block;"/><g id="sprotty_ArchitectureBlockImpl$work.lutTransition(behavioral)/ProcessBlockImpl$null14/GPortImpl$fallTransition_in" transform="translate(0, 10)" class="sprotty-hidden hidden" style="display:block;"/><g id="sprotty_ArchitectureBlockImpl$work.lutTransition(behavioral)/ProcessBlockImpl$null14/GPortImpl$fallLUT" transform="translate(15, 13.333333333333334)" class="sprotty-hidden hidden" style="display:block;"/><g id="sprotty_ArchitectureBlockImpl$work.lutTransition(behavioral)/ProcessBlockImpl$null14/GPortImpl$riseLUT" transform="translate(15, 26.666666666666668)" class="sprotty-hidden hidden" style="display:block;"/></g><g id="sprotty_ArchitectureBlockImpl$work.lutTransition(behavioral)/ProcessBlockImpl$null15" transform="translate(128.671875, 226.33333333333331)" class="statement"><rect x="0" y="0" rx="10" ry="5" width="15" height="80" class="sprotty-node" style="fill:rgb(245, 245, 245);stroke:rgb(112, 112, 112);"/><g id="sprotty_ArchitectureBlockImpl$work.lutTransition(behavioral)/ProcessBlockImpl$null15/GPortImpl$clkSlow" transform="translate(0, 20)" class="sprotty-hidden hidden" style="display:block;"/><g id="sprotty_ArchitectureBlockImpl$work.lutTransition(behavioral)/ProcessBlockImpl$null15/GPortImpl$riseAddr_in" transform="translate(0, 30)" class="sprotty-hidden hidden" style="display:block;"/><g id="sprotty_ArchitectureBlockImpl$work.lutTransition(behavioral)/ProcessBlockImpl$null15/GPortImpl$riseData_in" transform="translate(0, 40)" class="sprotty-hidden hidden" style="display:block;"/><g id="sprotty_ArchitectureBlockImpl$work.lutTransition(behavioral)/ProcessBlockImpl$null15/GPortImpl$riseWrEn_in" transform="translate(0, 50)" class="sprotty-hidden hidden" style="display:block;"/><g id="sprotty_ArchitectureBlockImpl$work.lutTransition(behavioral)/ProcessBlockImpl$null15/GPortImpl$fallAddr_in" transform="translate(0, 60)" class="sprotty-hidden hidden" style="display:block;"/><g id="sprotty_ArchitectureBlockImpl$work.lutTransition(behavioral)/ProcessBlockImpl$null15/GPortImpl$fallData_in" transform="translate(0, 70)" class="sprotty-hidden hidden" style="display:block;"/><g id="sprotty_ArchitectureBlockImpl$work.lutTransition(behavioral)/ProcessBlockImpl$null15/GPortImpl$fallWrEn_in" transform="translate(0, 10)" class="sprotty-hidden hidden" style="display:block;"/></g><g id="sprotty_ArchitectureBlockImpl$work.lutTransition(behavioral)/GPortImpl$clkSlow" transform="translate(0, 198.33333333333331)" class="triangle"><path d="M 0,0 L 5,2.5 L 0,5 Z" transform="translate(-1.67, -2.5)" class="sprotty-port" style="fill:rgb(48, 48, 48);stroke:rgb(48, 48, 48);"/><text class="clickable sprotty-label port" id="sprotty_ArchitectureBlockImpl$work.lutTransition(behavioral)/GPortImpl$clkSlow/label" transform="translate(6, 6) translate(22.78125, 14)" style="cursor:default;font-size:12px;perspective-origin:0.1875px 0px;fill:rgb(48, 48, 48);text-anchor:middle;">clkSlow</text></g><g id="sprotty_ArchitectureBlockImpl$work.lutTransition(behavioral)/GPortImpl$clk" transform="translate(0, 120.33333333333333)" class="triangle"><path d="M 0,0 L 5,2.5 L 0,5 Z" transform="translate(-1.67, -2.5)" class="sprotty-port" style="fill:rgb(48, 48, 48);stroke:rgb(48, 48, 48);"/><text class="clickable sprotty-label port" id="sprotty_ArchitectureBlockImpl$work.lutTransition(behavioral)/GPortImpl$clk/label" transform="translate(6, 6) translate(9.0625, 14)" style="cursor:default;font-size:12px;perspective-origin:0.1875px 0px;fill:rgb(48, 48, 48);text-anchor:middle;">clk</text></g><g id="sprotty_ArchitectureBlockImpl$work.lutTransition(behavioral)/GPortImpl$riseAddr_in" transform="translate(0, 232.33333333333331)" class="triangle"><path d="M 0,0 L 5,2.5 L 0,5 Z" transform="translate(-1.67, -2.5)" class="sprotty-port" style="fill:rgb(48, 48, 48);stroke:rgb(48, 48, 48);"/><text class="clickable sprotty-label port" id="sprotty_ArchitectureBlockImpl$work.lutTransition(behavioral)/GPortImpl$riseAddr_in/label" transform="translate(6, 6) translate(32.1875, 14)" style="cursor:default;font-size:12px;perspective-origin:0.328125px 0px;fill:rgb(48, 48, 48);text-anchor:middle;">riseAddr_in</text></g><g id="sprotty_ArchitectureBlockImpl$work.lutTransition(behavioral)/GPortImpl$riseData_in" transform="translate(0, 266.3333333333333)" class="triangle"><path d="M 0,0 L 5,2.5 L 0,5 Z" transform="translate(-1.67, -2.5)" class="sprotty-port" style="fill:rgb(48, 48, 48);stroke:rgb(48, 48, 48);"/><text class="clickable sprotty-label port" id="sprotty_ArchitectureBlockImpl$work.lutTransition(behavioral)/GPortImpl$riseData_in/label" transform="translate(6, 6) translate(31.6875, 14)" style="cursor:default;font-size:12px;perspective-origin:0.34375px 0px;fill:rgb(48, 48, 48);text-anchor:middle;">riseData_in</text></g><g id="sprotty_ArchitectureBlockImpl$work.lutTransition(behavioral)/GPortImpl$riseWrEn_in" transform="translate(0, 300.3333333333333)" class="triangle"><path d="M 0,0 L 5,2.5 L 0,5 Z" transform="translate(-1.67, -2.5)" class="sprotty-port" style="fill:rgb(48, 48, 48);stroke:rgb(48, 48, 48);"/><text class="clickable sprotty-label port" id="sprotty_ArchitectureBlockImpl$work.lutTransition(behavioral)/GPortImpl$riseWrEn_in/label" transform="translate(6, 6) translate(33.5, 14)" style="cursor:default;font-size:12px;perspective-origin:0.328125px 0px;fill:rgb(48, 48, 48);text-anchor:middle;">riseWrEn_in</text></g><g id="sprotty_ArchitectureBlockImpl$work.lutTransition(behavioral)/GPortImpl$fallAddr_in" transform="translate(0, 334.3333333333333)" class="triangle"><path d="M 0,0 L 5,2.5 L 0,5 Z" transform="translate(-1.67, -2.5)" class="sprotty-port" style="fill:rgb(48, 48, 48);stroke:rgb(48, 48, 48);"/><text class="clickable sprotty-label port" id="sprotty_ArchitectureBlockImpl$work.lutTransition(behavioral)/GPortImpl$fallAddr_in/label" transform="translate(6, 6) translate(31.6875, 14)" style="cursor:default;font-size:12px;perspective-origin:-0.15625px 0px;fill:rgb(48, 48, 48);text-anchor:middle;">fallAddr_in</text></g><g id="sprotty_ArchitectureBlockImpl$work.lutTransition(behavioral)/GPortImpl$fallData_in" transform="translate(0, 368.3333333333333)" class="triangle"><path d="M 0,0 L 5,2.5 L 0,5 Z" transform="translate(-1.67, -2.5)" class="sprotty-port" style="fill:rgb(48, 48, 48);stroke:rgb(48, 48, 48);"/><text class="clickable sprotty-label port" id="sprotty_ArchitectureBlockImpl$work.lutTransition(behavioral)/GPortImpl$fallData_in/label" transform="translate(6, 6) translate(31.203125, 14)" style="cursor:default;font-size:12px;perspective-origin:-0.15625px 0px;fill:rgb(48, 48, 48);text-anchor:middle;">fallData_in</text></g><g id="sprotty_ArchitectureBlockImpl$work.lutTransition(behavioral)/GPortImpl$fallWrEn_in" transform="translate(0, 164.33333333333331)" class="triangle"><path d="M 0,0 L 5,2.5 L 0,5 Z" transform="translate(-1.67, -2.5)" class="sprotty-port" style="fill:rgb(48, 48, 48);stroke:rgb(48, 48, 48);"/><text class="clickable sprotty-label port" id="sprotty_ArchitectureBlockImpl$work.lutTransition(behavioral)/GPortImpl$fallWrEn_in/label" transform="translate(6, 6) translate(33.078125, 14)" style="cursor:default;font-size:12px;perspective-origin:-0.15625px 0px;fill:rgb(48, 48, 48);text-anchor:middle;">fallWrEn_in</text></g><g id="sprotty_ArchitectureBlockImpl$work.lutTransition(behavioral)/GPortImpl$riseTransition_in" transform="translate(0, 86.33333333333333)" class="triangle"><path d="M 0,0 L 5,2.5 L 0,5 Z" transform="translate(-1.67, -2.5)" class="sprotty-port" style="fill:rgb(48, 48, 48);stroke:rgb(48, 48, 48);"/><text class="clickable sprotty-label port" id="sprotty_ArchitectureBlockImpl$work.lutTransition(behavioral)/GPortImpl$riseTransition_in/label" transform="translate(6, 6) translate(46.78125, 14)" style="cursor:default;font-size:12px;perspective-origin:0.328125px 0px;fill:rgb(48, 48, 48);text-anchor:middle;">riseTransition_in</text></g><g id="sprotty_ArchitectureBlockImpl$work.lutTransition(behavioral)/GPortImpl$fallTransition_in" transform="translate(0, 52.33333333333333)" class="triangle"><path d="M 0,0 L 5,2.5 L 0,5 Z" transform="translate(-1.67, -2.5)" class="sprotty-port" style="fill:rgb(48, 48, 48);stroke:rgb(48, 48, 48);"/><text class="clickable sprotty-label port" id="sprotty_ArchitectureBlockImpl$work.lutTransition(behavioral)/GPortImpl$fallTransition_in/label" transform="translate(6, 6) translate(46.453125, 14)" style="cursor:default;font-size:12px;perspective-origin:-0.15625px 0px;fill:rgb(48, 48, 48);text-anchor:middle;">fallTransition_in</text></g><g id="sprotty_ArchitectureBlockImpl$work.lutTransition(behavioral)/GPortImpl$correctedTransitionMean_out" transform="translate(404.453125, 103)" class="triangle"><path d="M 0,0 L 5,2.5 L 0,5 Z" transform="translate(-1.67, -2.5)" class="sprotty-port" style="fill:rgb(48, 48, 48);stroke:rgb(48, 48, 48);"/><text class="clickable sprotty-label port" id="sprotty_ArchitectureBlockImpl$work.lutTransition(behavioral)/GPortImpl$correctedTransitionMean_out/label" transform="translate(-174.21875, 6) translate(83.875, 14)" style="cursor:default;font-size:12px;perspective-origin:0.234375px 0px;fill:rgb(48, 48, 48);text-anchor:middle;">correctedTransitionMean_out</text></g><g id="sprotty_ArchitectureBlockImpl$work.lutTransition(behavioral)/GPortImpl$correctedTransition1_out" transform="translate(404.453125, 69)" class="triangle"><path d="M 0,0 L 5,2.5 L 0,5 Z" transform="translate(-1.67, -2.5)" class="sprotty-port" style="fill:rgb(48, 48, 48);stroke:rgb(48, 48, 48);"/><text class="clickable sprotty-label port" id="sprotty_ArchitectureBlockImpl$work.lutTransition(behavioral)/GPortImpl$correctedTransition1_out/label" transform="translate(-150.578125, 6) translate(72.046875, 14)" style="cursor:default;font-size:12px;perspective-origin:0.234375px 0px;fill:rgb(48, 48, 48);text-anchor:middle;">correctedTransition1_out</text></g><g id="sprotty_ArchitectureBlockImpl$work.lutTransition(behavioral)/GPortImpl$correctedTransition2_out" transform="translate(404.453125, 35)" class="triangle"><path d="M 0,0 L 5,2.5 L 0,5 Z" transform="translate(-1.67, -2.5)" class="sprotty-port" style="fill:rgb(48, 48, 48);stroke:rgb(48, 48, 48);"/><text class="clickable sprotty-label port" id="sprotty_ArchitectureBlockImpl$work.lutTransition(behavioral)/GPortImpl$correctedTransition2_out/label" transform="translate(-150.578125, 6) translate(72.046875, 14)" style="cursor:default;font-size:12px;perspective-origin:0.234375px 0px;fill:rgb(48, 48, 48);text-anchor:middle;">correctedTransition2_out</text></g></g></g></svg>