<svg xmlns="http://www.w3.org/2000/svg" id="sprotty_work.dnl.behavioral" class="sprotty-graph sprotty-block-diagram blockdiagram" style="font-family:&quot;Noto Sans&quot;, Helvetica, Arial, sans-serif;perspective-origin:0px 0px;transform-origin:0px 0px;" version="1.1" viewBox="7 7 1106.359375 906.5384615384614" width="1106.359375" height="906.5384615384614"><g transform="scale(1) translate(0,0)"><g id="sprotty_ArchitectureBlockImpl$work.dnl(behavioral)" transform="translate(12, 12)" class="architecture"><g class="sprotty-block" style="fill:rgb(255, 255, 255);stroke:rgb(48, 48, 48);stroke-dasharray:0px;"><rect x="0" y="0" rx="1" ry="1" width="1096.359375" height="896.5384615384614"/><text x="548.1796875" y="12" class="sprotty-block-name" style="cursor:pointer;font-weight:bold;perspective-origin:547.672px 0px;fill:rgb(48, 48, 48);stroke:rgba(0, 0, 0, 0);dominant-baseline:middle;text-anchor:middle;">work.dnl(behavioral)</text><line x1="0" y1="20" x2="1096.359375" y2="20"/></g><g id="sprotty_ArchitectureBlockImpl$work.dnl(behavioral)/GPortImpl$start_in_to_ArchitectureBlockImpl$work.dnl(behavioral)/ProcessBlockImpl$nextStateLogic/GPortImpl$start_in" class="sprotty-edge edge" style="fill:none;stroke:rgb(112, 112, 112);stroke-linejoin:round;"><g><path d="M 0 180 L 732.328125 180 C 733.328125 180 734.328125 181 734.328125 182 L 734.328125 347.99999999999994 C 734.328125 348.99999999999994 735.328125 349.99999999999994 736.328125 349.99999999999994 L 774.328125 349.99999999999994 "/><path d="M 0 180 L 732.328125 180 C 733.328125 180 734.328125 181 734.328125 182 L 734.328125 347.99999999999994 C 734.328125 348.99999999999994 735.328125 349.99999999999994 736.328125 349.99999999999994 L 774.328125 349.99999999999994 " class="clickable"/></g></g><g id="sprotty_ArchitectureBlockImpl$work.dnl(behavioral)/GPortImpl$histData_in_to_ArchitectureBlockImpl$work.dnl(behavioral)/ProcessBlockImpl$nextStateLogic/GPortImpl$histData_in" class="sprotty-edge thick edge" style="fill:none;stroke:rgb(112, 112, 112);stroke-linejoin:round;stroke-width:3px;"><g><path d="M 0 695.5384615384614 L 302.421875 695.5384615384614 C 303.421875 695.5384615384614 304.421875 694.5384615384614 304.421875 693.5384615384614 L 304.421875 535.5384615384614 C 304.421875 534.5384615384614 305.421875 533.5384615384614 306.421875 533.5384615384614 L 752.328125 533.5384615384614 C 753.328125 533.5384615384614 754.328125 532.5384615384614 754.328125 531.5384615384614 L 754.328125 491.99999999999994 C 754.328125 490.99999999999994 755.328125 489.99999999999994 756.328125 489.99999999999994 L 774.328125 489.99999999999994 "/><path d="M 0 695.5384615384614 L 302.421875 695.5384615384614 C 303.421875 695.5384615384614 304.421875 694.5384615384614 304.421875 693.5384615384614 L 304.421875 535.5384615384614 C 304.421875 534.5384615384614 305.421875 533.5384615384614 306.421875 533.5384615384614 L 752.328125 533.5384615384614 C 753.328125 533.5384615384614 754.328125 532.5384615384614 754.328125 531.5384615384614 L 754.328125 491.99999999999994 C 754.328125 490.99999999999994 755.328125 489.99999999999994 756.328125 489.99999999999994 L 774.328125 489.99999999999994 " class="clickable"/></g></g><g id="sprotty_ArchitectureBlockImpl$work.dnl(behavioral)/GPortImpl$dnlAddr_in_to_ArchitectureBlockImpl$work.dnl(behavioral)/InstantiationBlockImpl$inst_ramDNL/BPortImpl$b_addr_in" class="sprotty-edge thick edge" style="fill:none;stroke:rgb(112, 112, 112);stroke-linejoin:round;stroke-width:3px;"><g><path d="M 0 829.5384615384614 L 509.6875 829.5384615384614 "/><path d="M 0 829.5384615384614 L 509.6875 829.5384615384614 " class="clickable"/></g></g><g id="sprotty_ArchitectureBlockImpl$work.dnl(behavioral)/GPortImpl$minLengthCarryChain_in_to_ArchitectureBlockImpl$work.dnl(behavioral)/ProcessBlockImpl$ffStage/GPortImpl$minLengthCarryChain_in" class="sprotty-edge thick edge" style="fill:none;stroke:rgb(112, 112, 112);stroke-linejoin:round;stroke-width:3px;"><g><path d="M 0 112 L 437.6875 112 C 438.6875 112 439.6875 113 439.6875 114 L 439.6875 134 C 439.6875 135 440.6875 136 441.6875 136 L 568.4765625 136 "/><path d="M 0 112 L 437.6875 112 C 438.6875 112 439.6875 113 439.6875 114 L 439.6875 134 C 439.6875 135 440.6875 136 441.6875 136 L 568.4765625 136 " class="clickable"/></g></g><g id="sprotty_ArchitectureBlockImpl$work.dnl(behavioral)/GPortImpl$maxLengthCarryChain_in_to_ArchitectureBlockImpl$work.dnl(behavioral)/ProcessBlockImpl$ffStage/GPortImpl$maxLengthCarryChain_in" class="sprotty-edge thick edge" style="fill:none;stroke:rgb(112, 112, 112);stroke-linejoin:round;stroke-width:3px;"><g><path d="M 0 146 L 568.4765625 146 "/><path d="M 0 146 L 568.4765625 146 " class="clickable"/></g></g><g id="sprotty_ArchitectureBlockImpl$work.dnl(behavioral)/GPortImpl$clk_to_ArchitectureBlockImpl$work.dnl(behavioral)/ProcessBlockImpl$ffStage/GPortImpl$clk" class="sprotty-edge edge" style="fill:none;stroke:rgb(112, 112, 112);stroke-linejoin:round;"><g><path d="M 0 661.5384615384614 L 232.421875 661.5384615384614 C 233.421875 661.5384615384614 234.421875 660.5384615384614 234.421875 659.5384615384614 L 234.421875 169 C 234.421875 168 235.421875 167 236.421875 167 L 437.6875 167 C 438.6875 167 439.6875 166 439.6875 165 L 439.6875 158 C 439.6875 157 440.6875 156 441.6875 156 L 568.4765625 156 "/><path d="M 0 661.5384615384614 L 232.421875 661.5384615384614 C 233.421875 661.5384615384614 234.421875 660.5384615384614 234.421875 659.5384615384614 L 234.421875 169 C 234.421875 168 235.421875 167 236.421875 167 L 437.6875 167 C 438.6875 167 439.6875 166 439.6875 165 L 439.6875 158 C 439.6875 157 440.6875 156 441.6875 156 L 568.4765625 156 " class="clickable"/></g><circle r="2" id="sprotty_ArchitectureBlockImpl$work.dnl(behavioral)/GPortImpl$clk_to_ArchitectureBlockImpl$work.dnl(behavioral)/ProcessBlockImpl$ffStage/GPortImpl$clk/junction0" transform="translate(234.421875, 661.5384615384614)" class="sprotty-junction junction" style="fill:rgb(112, 112, 112);stroke:none;"/></g><g id="sprotty_ArchitectureBlockImpl$work.dnl(behavioral)/GPortImpl$clk_to_ArchitectureBlockImpl$work.dnl(behavioral)/ProcessBlockImpl$stateRegister/GPortImpl$clk" class="sprotty-edge edge" style="fill:none;stroke:rgb(112, 112, 112);stroke-linejoin:round;"><g><path d="M 0 661.5384615384614 L 232.421875 661.5384615384614 C 233.421875 661.5384615384614 234.421875 660.5384615384614 234.421875 659.5384615384614 L 234.421875 454.53846153846143 C 234.421875 453.53846153846143 235.421875 452.53846153846143 236.421875 452.53846153846143 L 314.421875 452.53846153846143 "/><path d="M 0 661.5384615384614 L 232.421875 661.5384615384614 C 233.421875 661.5384615384614 234.421875 660.5384615384614 234.421875 659.5384615384614 L 234.421875 454.53846153846143 C 234.421875 453.53846153846143 235.421875 452.53846153846143 236.421875 452.53846153846143 L 314.421875 452.53846153846143 " class="clickable"/></g><circle r="2" id="sprotty_ArchitectureBlockImpl$work.dnl(behavioral)/GPortImpl$clk_to_ArchitectureBlockImpl$work.dnl(behavioral)/ProcessBlockImpl$stateRegister/GPortImpl$clk/junction0" transform="translate(234.421875, 452.53846153846143)" class="sprotty-junction junction" style="fill:rgb(112, 112, 112);stroke:none;"/></g><g id="sprotty_ArchitectureBlockImpl$work.dnl(behavioral)/GPortImpl$clk_to_ArchitectureBlockImpl$work.dnl(behavioral)/InstantiationBlockImpl$inst_ramDNL/BPortImpl$a_clk" class="sprotty-edge edge" style="fill:none;stroke:rgb(112, 112, 112);stroke-linejoin:round;"><g><path d="M 0 661.5384615384614 L 509.6875 661.5384615384614 "/><path d="M 0 661.5384615384614 L 509.6875 661.5384615384614 " class="clickable"/></g></g><g id="sprotty_ArchitectureBlockImpl$work.dnl(behavioral)/GPortImpl$clk_to_ArchitectureBlockImpl$work.dnl(behavioral)/InstantiationBlockImpl$inst_ramDNL/BPortImpl$b_clk" class="sprotty-edge edge" style="fill:none;stroke:rgb(112, 112, 112);stroke-linejoin:round;"><g><path d="M 0 661.5384615384614 L 437.6875 661.5384615384614 C 438.6875 661.5384615384614 439.6875 662.5384615384614 439.6875 663.5384615384614 L 439.6875 771.5384615384614 C 439.6875 772.5384615384614 440.6875 773.5384615384614 441.6875 773.5384615384614 L 509.6875 773.5384615384614 "/><path d="M 0 661.5384615384614 L 437.6875 661.5384615384614 C 438.6875 661.5384615384614 439.6875 662.5384615384614 439.6875 663.5384615384614 L 439.6875 771.5384615384614 C 439.6875 772.5384615384614 440.6875 773.5384615384614 441.6875 773.5384615384614 L 509.6875 773.5384615384614 " class="clickable"/></g><circle r="2" id="sprotty_ArchitectureBlockImpl$work.dnl(behavioral)/GPortImpl$clk_to_ArchitectureBlockImpl$work.dnl(behavioral)/InstantiationBlockImpl$inst_ramDNL/BPortImpl$b_clk/junction0" transform="translate(439.6875, 661.5384615384614)" class="sprotty-junction junction" style="fill:rgb(112, 112, 112);stroke:none;"/></g><g id="sprotty_ArchitectureBlockImpl$work.dnl(behavioral)/GPortImpl$clk_to_ArchitectureBlockImpl$work.dnl(behavioral)/InstantiationBlockImpl$inst_divGen/BPortImpl$CLK" class="sprotty-edge edge" style="fill:none;stroke:rgb(112, 112, 112);stroke-linejoin:round;"><g><path d="M 0 661.5384615384614 L 232.421875 661.5384615384614 C 233.421875 661.5384615384614 234.421875 660.5384615384614 234.421875 659.5384615384614 L 234.421875 372.53846153846143 C 234.421875 371.53846153846143 235.421875 370.53846153846143 236.421875 370.53846153846143 L 477.6875 370.53846153846143 C 478.6875 370.53846153846143 479.6875 369.53846153846143 479.6875 368.53846153846143 L 479.6875 357 C 479.6875 356 480.6875 355 481.6875 355 L 512.359375 355 "/><path d="M 0 661.5384615384614 L 232.421875 661.5384615384614 C 233.421875 661.5384615384614 234.421875 660.5384615384614 234.421875 659.5384615384614 L 234.421875 372.53846153846143 C 234.421875 371.53846153846143 235.421875 370.53846153846143 236.421875 370.53846153846143 L 477.6875 370.53846153846143 C 478.6875 370.53846153846143 479.6875 369.53846153846143 479.6875 368.53846153846143 L 479.6875 357 C 479.6875 356 480.6875 355 481.6875 355 L 512.359375 355 " class="clickable"/></g><circle r="2" id="sprotty_ArchitectureBlockImpl$work.dnl(behavioral)/GPortImpl$clk_to_ArchitectureBlockImpl$work.dnl(behavioral)/InstantiationBlockImpl$inst_divGen/BPortImpl$CLK/junction0" transform="translate(234.421875, 370.53846153846143)" class="sprotty-junction junction" style="fill:rgb(112, 112, 112);stroke:none;"/></g><g id="sprotty_ArchitectureBlockImpl$work.dnl(behavioral)/ProcessBlockImpl$ffStage/GPortImpl$diffLengthCarryChainReg_to_ArchitectureBlockImpl$work.dnl(behavioral)/ProcessBlockImpl$nextStateLogic/GPortImpl$diffLengthCarryChainReg" class="sprotty-edge thick edge" style="fill:none;stroke:rgb(112, 112, 112);stroke-linejoin:round;stroke-width:3px;"><g><path d="M 635.5390625 136 L 762.328125 136 C 763.328125 136 764.328125 137 764.328125 138 L 764.328125 317.99999999999994 C 764.328125 318.99999999999994 765.328125 319.99999999999994 766.328125 319.99999999999994 L 774.328125 319.99999999999994 "/><path d="M 635.5390625 136 L 762.328125 136 C 763.328125 136 764.328125 137 764.328125 138 L 764.328125 317.99999999999994 C 764.328125 318.99999999999994 765.328125 319.99999999999994 766.328125 319.99999999999994 L 774.328125 319.99999999999994 " class="clickable"/></g></g><g id="sprotty_ArchitectureBlockImpl$work.dnl(behavioral)/ProcessBlockImpl$ffStage/GPortImpl$maxLengthCarryChainReg_to_ArchitectureBlockImpl$work.dnl(behavioral)/ProcessBlockImpl$nextStateLogic/GPortImpl$maxLengthCarryChainReg" class="sprotty-edge thick edge" style="fill:none;stroke:rgb(112, 112, 112);stroke-linejoin:round;stroke-width:3px;"><g><path d="M 635.5390625 156 L 742.328125 156 C 743.328125 156 744.328125 157 744.328125 158 L 744.328125 337.99999999999994 C 744.328125 338.99999999999994 745.328125 339.99999999999994 746.328125 339.99999999999994 L 774.328125 339.99999999999994 "/><path d="M 635.5390625 156 L 742.328125 156 C 743.328125 156 744.328125 157 744.328125 158 L 744.328125 337.99999999999994 C 744.328125 338.99999999999994 745.328125 339.99999999999994 746.328125 339.99999999999994 L 774.328125 339.99999999999994 " class="clickable"/></g></g><g id="sprotty_ArchitectureBlockImpl$work.dnl(behavioral)/ProcessBlockImpl$ffStage/GPortImpl$minLengthCarryChainReg_to_ArchitectureBlockImpl$work.dnl(behavioral)/ProcessBlockImpl$nextStateLogic/GPortImpl$minLengthCarryChainReg" class="sprotty-edge thick edge" style="fill:none;stroke:rgb(112, 112, 112);stroke-linejoin:round;stroke-width:3px;"><g><path d="M 635.5390625 146 L 752.328125 146 C 753.328125 146 754.328125 147 754.328125 148 L 754.328125 327.99999999999994 C 754.328125 328.99999999999994 755.328125 329.99999999999994 756.328125 329.99999999999994 L 774.328125 329.99999999999994 "/><path d="M 635.5390625 146 L 752.328125 146 C 753.328125 146 754.328125 147 754.328125 148 L 754.328125 327.99999999999994 C 754.328125 328.99999999999994 755.328125 329.99999999999994 756.328125 329.99999999999994 L 774.328125 329.99999999999994 " class="clickable"/></g></g><g id="sprotty_ArchitectureBlockImpl$work.dnl(behavioral)/ProcessBlockImpl$nextStateLogic/GPortImpl$histAddr_out_to_ArchitectureBlockImpl$work.dnl(behavioral)/GPortImpl$histAddr_out" class="sprotty-edge thick edge" style="fill:none;stroke:rgb(112, 112, 112);stroke-linejoin:round;stroke-width:3px;"><g><path d="M 901.953125 398.66666666666663 L 969.953125 398.66666666666663 C 970.953125 398.66666666666663 971.953125 397.66666666666663 971.953125 396.66666666666663 L 971.953125 379.33333333333326 C 971.953125 378.33333333333326 972.953125 377.33333333333326 973.953125 377.33333333333326 L 1096.359375 377.33333333333326 "/><path d="M 901.953125 398.66666666666663 L 969.953125 398.66666666666663 C 970.953125 398.66666666666663 971.953125 397.66666666666663 971.953125 396.66666666666663 L 971.953125 379.33333333333326 C 971.953125 378.33333333333326 972.953125 377.33333333333326 973.953125 377.33333333333326 L 1096.359375 377.33333333333326 " class="clickable"/></g></g><g id="sprotty_ArchitectureBlockImpl$work.dnl(behavioral)/ProcessBlockImpl$nextStateLogic/GPortImpl$dnlRunning_out_to_ArchitectureBlockImpl$work.dnl(behavioral)/GPortImpl$dnlRunning_out" class="sprotty-edge edge" style="fill:none;stroke:rgb(112, 112, 112);stroke-linejoin:round;"><g><path d="M 901.953125 411.33333333333326 L 1096.359375 411.33333333333326 "/><path d="M 901.953125 411.33333333333326 L 1096.359375 411.33333333333326 " class="clickable"/></g></g><g id="sprotty_ArchitectureBlockImpl$work.dnl(behavioral)/ProcessBlockImpl$nextStateLogic/GPortImpl$fsmState_next_to_ArchitectureBlockImpl$work.dnl(behavioral)/ProcessBlockImpl$stateRegister/GPortImpl$fsmState_next" class="sprotty-edge thick edge" style="fill:none;stroke:rgb(112, 112, 112);stroke-linejoin:round;stroke-width:3px;"><g><path d="M 901.953125 335.33333333333326 L 919.953125 335.33333333333326 C 920.953125 335.33333333333326 921.953125 334.33333333333326 921.953125 333.33333333333326 L 921.953125 90 C 921.953125 89 920.953125 88 919.953125 88 L 216.421875 88 C 215.421875 88 214.421875 89 214.421875 90 L 214.421875 400.53846153846143 C 214.421875 401.53846153846143 215.421875 402.53846153846143 216.421875 402.53846153846143 L 314.421875 402.53846153846143 "/><path d="M 901.953125 335.33333333333326 L 919.953125 335.33333333333326 C 920.953125 335.33333333333326 921.953125 334.33333333333326 921.953125 333.33333333333326 L 921.953125 90 C 921.953125 89 920.953125 88 919.953125 88 L 216.421875 88 C 215.421875 88 214.421875 89 214.421875 90 L 214.421875 400.53846153846143 C 214.421875 401.53846153846143 215.421875 402.53846153846143 216.421875 402.53846153846143 L 314.421875 402.53846153846143 " class="clickable"/></g></g><g id="sprotty_ArchitectureBlockImpl$work.dnl(behavioral)/ProcessBlockImpl$nextStateLogic/GPortImpl$ramWEn_next_to_ArchitectureBlockImpl$work.dnl(behavioral)/ProcessBlockImpl$stateRegister/GPortImpl$ramWEn_next" class="sprotty-edge edge" style="fill:none;stroke:rgb(112, 112, 112);stroke-linejoin:round;"><g><path d="M 901.953125 322.66666666666663 L 909.953125 322.66666666666663 C 910.953125 322.66666666666663 911.953125 321.66666666666663 911.953125 320.66666666666663 L 911.953125 103 C 911.953125 102 910.953125 101 909.953125 101 L 226.421875 101 C 225.421875 101 224.421875 102 224.421875 103 L 224.421875 390.53846153846143 C 224.421875 391.53846153846143 225.421875 392.53846153846143 226.421875 392.53846153846143 L 314.421875 392.53846153846143 "/><path d="M 901.953125 322.66666666666663 L 909.953125 322.66666666666663 C 910.953125 322.66666666666663 911.953125 321.66666666666663 911.953125 320.66666666666663 L 911.953125 103 C 911.953125 102 910.953125 101 909.953125 101 L 226.421875 101 C 225.421875 101 224.421875 102 224.421875 103 L 224.421875 390.53846153846143 C 224.421875 391.53846153846143 225.421875 392.53846153846143 226.421875 392.53846153846143 L 314.421875 392.53846153846143 " class="clickable"/></g></g><g id="sprotty_ArchitectureBlockImpl$work.dnl(behavioral)/ProcessBlockImpl$nextStateLogic/GPortImpl$ramAddrR_next_to_ArchitectureBlockImpl$work.dnl(behavioral)/ProcessBlockImpl$stateRegister/GPortImpl$ramAddrR_next" class="sprotty-edge thick edge" style="fill:none;stroke:rgb(112, 112, 112);stroke-linejoin:round;stroke-width:3px;"><g><path d="M 901.953125 347.99999999999994 L 929.953125 347.99999999999994 C 930.953125 347.99999999999994 931.953125 346.99999999999994 931.953125 345.99999999999994 L 931.953125 77 C 931.953125 76 930.953125 75 929.953125 75 L 206.421875 75 C 205.421875 75 204.421875 76 204.421875 77 L 204.421875 410.53846153846143 C 204.421875 411.53846153846143 205.421875 412.53846153846143 206.421875 412.53846153846143 L 314.421875 412.53846153846143 "/><path d="M 901.953125 347.99999999999994 L 929.953125 347.99999999999994 C 930.953125 347.99999999999994 931.953125 346.99999999999994 931.953125 345.99999999999994 L 931.953125 77 C 931.953125 76 930.953125 75 929.953125 75 L 206.421875 75 C 205.421875 75 204.421875 76 204.421875 77 L 204.421875 410.53846153846143 C 204.421875 411.53846153846143 205.421875 412.53846153846143 206.421875 412.53846153846143 L 314.421875 412.53846153846143 " class="clickable"/></g></g><g id="sprotty_ArchitectureBlockImpl$work.dnl(behavioral)/ProcessBlockImpl$nextStateLogic/GPortImpl$ramAddrW_next_to_ArchitectureBlockImpl$work.dnl(behavioral)/ProcessBlockImpl$stateRegister/GPortImpl$ramAddrW_next" class="sprotty-edge thick edge" style="fill:none;stroke:rgb(112, 112, 112);stroke-linejoin:round;stroke-width:3px;"><g><path d="M 901.953125 385.99999999999994 L 959.953125 385.99999999999994 C 960.953125 385.99999999999994 961.953125 384.99999999999994 961.953125 383.99999999999994 L 961.953125 38 C 961.953125 37 960.953125 36 959.953125 36 L 176.421875 36 C 175.421875 36 174.421875 37 174.421875 38 L 174.421875 440.53846153846143 C 174.421875 441.53846153846143 175.421875 442.53846153846143 176.421875 442.53846153846143 L 314.421875 442.53846153846143 "/><path d="M 901.953125 385.99999999999994 L 959.953125 385.99999999999994 C 960.953125 385.99999999999994 961.953125 384.99999999999994 961.953125 383.99999999999994 L 961.953125 38 C 961.953125 37 960.953125 36 959.953125 36 L 176.421875 36 C 175.421875 36 174.421875 37 174.421875 38 L 174.421875 440.53846153846143 C 174.421875 441.53846153846143 175.421875 442.53846153846143 176.421875 442.53846153846143 L 314.421875 442.53846153846143 " class="clickable"/></g></g><g id="sprotty_ArchitectureBlockImpl$work.dnl(behavioral)/ProcessBlockImpl$nextStateLogic/GPortImpl$ramDataW_next_to_ArchitectureBlockImpl$work.dnl(behavioral)/ProcessBlockImpl$stateRegister/GPortImpl$ramDataW_next" class="sprotty-edge thick edge" style="fill:none;stroke:rgb(112, 112, 112);stroke-linejoin:round;stroke-width:3px;"><g><path d="M 901.953125 360.66666666666663 L 939.953125 360.66666666666663 C 940.953125 360.66666666666663 941.953125 359.66666666666663 941.953125 358.66666666666663 L 941.953125 64 C 941.953125 63 940.953125 62 939.953125 62 L 196.421875 62 C 195.421875 62 194.421875 63 194.421875 64 L 194.421875 420.53846153846143 C 194.421875 421.53846153846143 195.421875 422.53846153846143 196.421875 422.53846153846143 L 314.421875 422.53846153846143 "/><path d="M 901.953125 360.66666666666663 L 939.953125 360.66666666666663 C 940.953125 360.66666666666663 941.953125 359.66666666666663 941.953125 358.66666666666663 L 941.953125 64 C 941.953125 63 940.953125 62 939.953125 62 L 196.421875 62 C 195.421875 62 194.421875 63 194.421875 64 L 194.421875 420.53846153846143 C 194.421875 421.53846153846143 195.421875 422.53846153846143 196.421875 422.53846153846143 L 314.421875 422.53846153846143 " class="clickable"/></g></g><g id="sprotty_ArchitectureBlockImpl$work.dnl(behavioral)/ProcessBlockImpl$nextStateLogic/GPortImpl$counterIdx_next_to_ArchitectureBlockImpl$work.dnl(behavioral)/ProcessBlockImpl$stateRegister/GPortImpl$counterIdx_next" class="sprotty-edge thick edge" style="fill:none;stroke:rgb(112, 112, 112);stroke-linejoin:round;stroke-width:3px;"><g><path d="M 901.953125 449.33333333333326 L 939.953125 449.33333333333326 C 940.953125 449.33333333333326 941.953125 450.33333333333326 941.953125 451.33333333333326 L 941.953125 583.5384615384614 C 941.953125 584.5384615384614 940.953125 585.5384615384614 939.953125 585.5384615384614 L 266.421875 585.5384615384614 C 265.421875 585.5384615384614 264.421875 584.5384615384614 264.421875 583.5384615384614 L 264.421875 484.53846153846143 C 264.421875 483.53846153846143 265.421875 482.53846153846143 266.421875 482.53846153846143 L 314.421875 482.53846153846143 "/><path d="M 901.953125 449.33333333333326 L 939.953125 449.33333333333326 C 940.953125 449.33333333333326 941.953125 450.33333333333326 941.953125 451.33333333333326 L 941.953125 583.5384615384614 C 941.953125 584.5384615384614 940.953125 585.5384615384614 939.953125 585.5384615384614 L 266.421875 585.5384615384614 C 265.421875 585.5384615384614 264.421875 584.5384615384614 264.421875 583.5384615384614 L 264.421875 484.53846153846143 C 264.421875 483.53846153846143 265.421875 482.53846153846143 266.421875 482.53846153846143 L 314.421875 482.53846153846143 " class="clickable"/></g></g><g id="sprotty_ArchitectureBlockImpl$work.dnl(behavioral)/ProcessBlockImpl$nextStateLogic/GPortImpl$counterDiv_next_to_ArchitectureBlockImpl$work.dnl(behavioral)/ProcessBlockImpl$stateRegister/GPortImpl$counterDiv_next" class="sprotty-edge thick edge" style="fill:none;stroke:rgb(112, 112, 112);stroke-linejoin:round;stroke-width:3px;"><g><path d="M 901.953125 423.99999999999994 L 959.953125 423.99999999999994 C 960.953125 423.99999999999994 961.953125 424.99999999999994 961.953125 425.99999999999994 L 961.953125 609.5384615384614 C 961.953125 610.5384615384614 960.953125 611.5384615384614 959.953125 611.5384615384614 L 246.421875 611.5384615384614 C 245.421875 611.5384615384614 244.421875 610.5384615384614 244.421875 609.5384615384614 L 244.421875 464.53846153846143 C 244.421875 463.53846153846143 245.421875 462.53846153846143 246.421875 462.53846153846143 L 314.421875 462.53846153846143 "/><path d="M 901.953125 423.99999999999994 L 959.953125 423.99999999999994 C 960.953125 423.99999999999994 961.953125 424.99999999999994 961.953125 425.99999999999994 L 961.953125 609.5384615384614 C 961.953125 610.5384615384614 960.953125 611.5384615384614 959.953125 611.5384615384614 L 246.421875 611.5384615384614 C 245.421875 611.5384615384614 244.421875 610.5384615384614 244.421875 609.5384615384614 L 244.421875 464.53846153846143 C 244.421875 463.53846153846143 245.421875 462.53846153846143 246.421875 462.53846153846143 L 314.421875 462.53846153846143 " class="clickable"/></g></g><g id="sprotty_ArchitectureBlockImpl$work.dnl(behavioral)/ProcessBlockImpl$nextStateLogic/GPortImpl$sumBins_next_to_ArchitectureBlockImpl$work.dnl(behavioral)/ProcessBlockImpl$stateRegister/GPortImpl$sumBins_next" class="sprotty-edge thick edge" style="fill:none;stroke:rgb(112, 112, 112);stroke-linejoin:round;stroke-width:3px;"><g><path d="M 901.953125 487.33333333333326 L 909.953125 487.33333333333326 C 910.953125 487.33333333333326 911.953125 488.33333333333326 911.953125 489.33333333333326 L 911.953125 544.5384615384614 C 911.953125 545.5384615384614 910.953125 546.5384615384614 909.953125 546.5384615384614 L 296.421875 546.5384615384614 C 295.421875 546.5384615384614 294.421875 545.5384615384614 294.421875 544.5384615384614 L 294.421875 514.5384615384614 C 294.421875 513.5384615384614 295.421875 512.5384615384614 296.421875 512.5384615384614 L 314.421875 512.5384615384614 "/><path d="M 901.953125 487.33333333333326 L 909.953125 487.33333333333326 C 910.953125 487.33333333333326 911.953125 488.33333333333326 911.953125 489.33333333333326 L 911.953125 544.5384615384614 C 911.953125 545.5384615384614 910.953125 546.5384615384614 909.953125 546.5384615384614 L 296.421875 546.5384615384614 C 295.421875 546.5384615384614 294.421875 545.5384615384614 294.421875 544.5384615384614 L 294.421875 514.5384615384614 C 294.421875 513.5384615384614 295.421875 512.5384615384614 296.421875 512.5384615384614 L 314.421875 512.5384615384614 " class="clickable"/></g></g><g id="sprotty_ArchitectureBlockImpl$work.dnl(behavioral)/ProcessBlockImpl$nextStateLogic/GPortImpl$divStart_next_to_ArchitectureBlockImpl$work.dnl(behavioral)/ProcessBlockImpl$stateRegister/GPortImpl$divStart_next" class="sprotty-edge edge" style="fill:none;stroke:rgb(112, 112, 112);stroke-linejoin:round;"><g><path d="M 901.953125 436.66666666666663 L 949.953125 436.66666666666663 C 950.953125 436.66666666666663 951.953125 437.66666666666663 951.953125 438.66666666666663 L 951.953125 596.5384615384614 C 951.953125 597.5384615384614 950.953125 598.5384615384614 949.953125 598.5384615384614 L 256.421875 598.5384615384614 C 255.421875 598.5384615384614 254.421875 597.5384615384614 254.421875 596.5384615384614 L 254.421875 474.53846153846143 C 254.421875 473.53846153846143 255.421875 472.53846153846143 256.421875 472.53846153846143 L 314.421875 472.53846153846143 "/><path d="M 901.953125 436.66666666666663 L 949.953125 436.66666666666663 C 950.953125 436.66666666666663 951.953125 437.66666666666663 951.953125 438.66666666666663 L 951.953125 596.5384615384614 C 951.953125 597.5384615384614 950.953125 598.5384615384614 949.953125 598.5384615384614 L 256.421875 598.5384615384614 C 255.421875 598.5384615384614 254.421875 597.5384615384614 254.421875 596.5384615384614 L 254.421875 474.53846153846143 C 254.421875 473.53846153846143 255.421875 472.53846153846143 256.421875 472.53846153846143 L 314.421875 472.53846153846143 " class="clickable"/></g></g><g id="sprotty_ArchitectureBlockImpl$work.dnl(behavioral)/ProcessBlockImpl$nextStateLogic/GPortImpl$divDivisor_next_to_ArchitectureBlockImpl$work.dnl(behavioral)/ProcessBlockImpl$stateRegister/GPortImpl$divDivisor_next" class="sprotty-edge thick edge" style="fill:none;stroke:rgb(112, 112, 112);stroke-linejoin:round;stroke-width:3px;"><g><path d="M 901.953125 461.99999999999994 L 929.953125 461.99999999999994 C 930.953125 461.99999999999994 931.953125 462.99999999999994 931.953125 463.99999999999994 L 931.953125 570.5384615384614 C 931.953125 571.5384615384614 930.953125 572.5384615384614 929.953125 572.5384615384614 L 276.421875 572.5384615384614 C 275.421875 572.5384615384614 274.421875 571.5384615384614 274.421875 570.5384615384614 L 274.421875 494.53846153846143 C 274.421875 493.53846153846143 275.421875 492.53846153846143 276.421875 492.53846153846143 L 314.421875 492.53846153846143 "/><path d="M 901.953125 461.99999999999994 L 929.953125 461.99999999999994 C 930.953125 461.99999999999994 931.953125 462.99999999999994 931.953125 463.99999999999994 L 931.953125 570.5384615384614 C 931.953125 571.5384615384614 930.953125 572.5384615384614 929.953125 572.5384615384614 L 276.421875 572.5384615384614 C 275.421875 572.5384615384614 274.421875 571.5384615384614 274.421875 570.5384615384614 L 274.421875 494.53846153846143 C 274.421875 493.53846153846143 275.421875 492.53846153846143 276.421875 492.53846153846143 L 314.421875 492.53846153846143 " class="clickable"/></g></g><g id="sprotty_ArchitectureBlockImpl$work.dnl(behavioral)/ProcessBlockImpl$nextStateLogic/GPortImpl$divDividend_next_to_ArchitectureBlockImpl$work.dnl(behavioral)/ProcessBlockImpl$stateRegister/GPortImpl$divDividend_next" class="sprotty-edge thick edge" style="fill:none;stroke:rgb(112, 112, 112);stroke-linejoin:round;stroke-width:3px;"><g><path d="M 901.953125 474.66666666666663 L 919.953125 474.66666666666663 C 920.953125 474.66666666666663 921.953125 475.66666666666663 921.953125 476.66666666666663 L 921.953125 557.5384615384614 C 921.953125 558.5384615384614 920.953125 559.5384615384614 919.953125 559.5384615384614 L 286.421875 559.5384615384614 C 285.421875 559.5384615384614 284.421875 558.5384615384614 284.421875 557.5384615384614 L 284.421875 504.53846153846143 C 284.421875 503.53846153846143 285.421875 502.53846153846143 286.421875 502.53846153846143 L 314.421875 502.53846153846143 "/><path d="M 901.953125 474.66666666666663 L 919.953125 474.66666666666663 C 920.953125 474.66666666666663 921.953125 475.66666666666663 921.953125 476.66666666666663 L 921.953125 557.5384615384614 C 921.953125 558.5384615384614 920.953125 559.5384615384614 919.953125 559.5384615384614 L 286.421875 559.5384615384614 C 285.421875 559.5384615384614 284.421875 558.5384615384614 284.421875 557.5384615384614 L 284.421875 504.53846153846143 C 284.421875 503.53846153846143 285.421875 502.53846153846143 286.421875 502.53846153846143 L 314.421875 502.53846153846143 " class="clickable"/></g></g><g id="sprotty_ArchitectureBlockImpl$work.dnl(behavioral)/ProcessBlockImpl$nextStateLogic/GPortImpl$meanValBin_next_to_ArchitectureBlockImpl$work.dnl(behavioral)/ProcessBlockImpl$stateRegister/GPortImpl$meanValBin_next" class="sprotty-edge thick edge" style="fill:none;stroke:rgb(112, 112, 112);stroke-linejoin:round;stroke-width:3px;"><g><path d="M 901.953125 373.33333333333326 L 949.953125 373.33333333333326 C 950.953125 373.33333333333326 951.953125 372.33333333333326 951.953125 371.33333333333326 L 951.953125 51 C 951.953125 50 950.953125 49 949.953125 49 L 186.421875 49 C 185.421875 49 184.421875 50 184.421875 51 L 184.421875 430.53846153846143 C 184.421875 431.53846153846143 185.421875 432.53846153846143 186.421875 432.53846153846143 L 314.421875 432.53846153846143 "/><path d="M 901.953125 373.33333333333326 L 949.953125 373.33333333333326 C 950.953125 373.33333333333326 951.953125 372.33333333333326 951.953125 371.33333333333326 L 951.953125 51 C 951.953125 50 950.953125 49 949.953125 49 L 186.421875 49 C 185.421875 49 184.421875 50 184.421875 51 L 184.421875 430.53846153846143 C 184.421875 431.53846153846143 185.421875 432.53846153846143 186.421875 432.53846153846143 L 314.421875 432.53846153846143 " class="clickable"/></g></g><g id="sprotty_ArchitectureBlockImpl$work.dnl(behavioral)/ProcessBlockImpl$stateRegister/GPortImpl$fsmState_pres_to_ArchitectureBlockImpl$work.dnl(behavioral)/ProcessBlockImpl$nextStateLogic/GPortImpl$fsmState_pres" class="sprotty-edge thick edge" style="fill:none;stroke:rgb(112, 112, 112);stroke-linejoin:round;stroke-width:3px;"><g><path d="M 429.6875 479.4615384615384 L 437.6875 479.4615384615384 C 438.6875 479.4615384615384 439.6875 478.4615384615384 439.6875 477.4615384615384 L 439.6875 476.99999999999994 C 439.6875 475.99999999999994 440.6875 474.99999999999994 441.6875 474.99999999999994 L 722.328125 474.99999999999994 C 723.328125 474.99999999999994 724.328125 473.99999999999994 724.328125 472.99999999999994 L 724.328125 461.99999999999994 C 724.328125 460.99999999999994 725.328125 459.99999999999994 726.328125 459.99999999999994 L 774.328125 459.99999999999994 "/><path d="M 429.6875 479.4615384615384 L 437.6875 479.4615384615384 C 438.6875 479.4615384615384 439.6875 478.4615384615384 439.6875 477.4615384615384 L 439.6875 476.99999999999994 C 439.6875 475.99999999999994 440.6875 474.99999999999994 441.6875 474.99999999999994 L 722.328125 474.99999999999994 C 723.328125 474.99999999999994 724.328125 473.99999999999994 724.328125 472.99999999999994 L 724.328125 461.99999999999994 C 724.328125 460.99999999999994 725.328125 459.99999999999994 726.328125 459.99999999999994 L 774.328125 459.99999999999994 " class="clickable"/></g></g><g id="sprotty_ArchitectureBlockImpl$work.dnl(behavioral)/ProcessBlockImpl$stateRegister/GPortImpl$ramWEn_pres_to_ArchitectureBlockImpl$work.dnl(behavioral)/InstantiationBlockImpl$inst_ramDNL/BPortImpl$a_wr_en_in" class="sprotty-edge edge" style="fill:none;stroke:rgb(112, 112, 112);stroke-linejoin:round;"><g><path d="M 429.6875 511.7692307692307 L 457.6875 511.7692307692307 C 458.6875 511.7692307692307 459.6875 512.7692307692307 459.6875 513.7692307692307 L 459.6875 687.5384615384614 C 459.6875 688.5384615384614 460.6875 689.5384615384614 461.6875 689.5384615384614 L 509.6875 689.5384615384614 "/><path d="M 429.6875 511.7692307692307 L 457.6875 511.7692307692307 C 458.6875 511.7692307692307 459.6875 512.7692307692307 459.6875 513.7692307692307 L 459.6875 687.5384615384614 C 459.6875 688.5384615384614 460.6875 689.5384615384614 461.6875 689.5384615384614 L 509.6875 689.5384615384614 " class="clickable"/></g></g><g id="sprotty_ArchitectureBlockImpl$work.dnl(behavioral)/ProcessBlockImpl$stateRegister/GPortImpl$ramAddrR_pres_to_ArchitectureBlockImpl$work.dnl(behavioral)/ProcessBlockImpl$nextStateLogic/GPortImpl$ramAddrR_pres" class="sprotty-edge thick edge" style="fill:none;stroke:rgb(112, 112, 112);stroke-linejoin:round;stroke-width:3px;"><g><path d="M 429.6875 468.6923076923076 L 437.6875 468.6923076923076 C 438.6875 468.6923076923076 439.6875 467.6923076923076 439.6875 466.6923076923076 L 439.6875 463.99999999999994 C 439.6875 462.99999999999994 440.6875 461.99999999999994 441.6875 461.99999999999994 L 712.328125 461.99999999999994 C 713.328125 461.99999999999994 714.328125 460.99999999999994 714.328125 459.99999999999994 L 714.328125 451.99999999999994 C 714.328125 450.99999999999994 715.328125 449.99999999999994 716.328125 449.99999999999994 L 774.328125 449.99999999999994 "/><path d="M 429.6875 468.6923076923076 L 437.6875 468.6923076923076 C 438.6875 468.6923076923076 439.6875 467.6923076923076 439.6875 466.6923076923076 L 439.6875 463.99999999999994 C 439.6875 462.99999999999994 440.6875 461.99999999999994 441.6875 461.99999999999994 L 712.328125 461.99999999999994 C 713.328125 461.99999999999994 714.328125 460.99999999999994 714.328125 459.99999999999994 L 714.328125 451.99999999999994 C 714.328125 450.99999999999994 715.328125 449.99999999999994 716.328125 449.99999999999994 L 774.328125 449.99999999999994 " class="clickable"/></g></g><g id="sprotty_ArchitectureBlockImpl$work.dnl(behavioral)/ProcessBlockImpl$stateRegister/GPortImpl$ramAddrW_pres_to_ArchitectureBlockImpl$work.dnl(behavioral)/ProcessBlockImpl$nextStateLogic/GPortImpl$ramAddrW_pres" class="sprotty-edge thick edge" style="fill:none;stroke:rgb(112, 112, 112);stroke-linejoin:round;stroke-width:3px;"><g><path d="M 429.6875 490.23076923076917 L 467.6875 490.23076923076917 C 468.6875 490.23076923076917 469.6875 489.23076923076917 469.6875 488.23076923076917 L 469.6875 488.23076923076917 C 469.6875 488.1153846153845 470.6875 487.99999999999994 471.6875 487.99999999999994 L 732.328125 487.99999999999994 C 733.328125 487.99999999999994 734.328125 486.99999999999994 734.328125 485.99999999999994 L 734.328125 471.99999999999994 C 734.328125 470.99999999999994 735.328125 469.99999999999994 736.328125 469.99999999999994 L 774.328125 469.99999999999994 "/><path d="M 429.6875 490.23076923076917 L 467.6875 490.23076923076917 C 468.6875 490.23076923076917 469.6875 489.23076923076917 469.6875 488.23076923076917 L 469.6875 488.23076923076917 C 469.6875 488.1153846153845 470.6875 487.99999999999994 471.6875 487.99999999999994 L 732.328125 487.99999999999994 C 733.328125 487.99999999999994 734.328125 486.99999999999994 734.328125 485.99999999999994 L 734.328125 471.99999999999994 C 734.328125 470.99999999999994 735.328125 469.99999999999994 736.328125 469.99999999999994 L 774.328125 469.99999999999994 " class="clickable"/></g><circle r="3" id="sprotty_ArchitectureBlockImpl$work.dnl(behavioral)/ProcessBlockImpl$stateRegister/GPortImpl$ramAddrW_pres_to_ArchitectureBlockImpl$work.dnl(behavioral)/ProcessBlockImpl$nextStateLogic/GPortImpl$ramAddrW_pres/junction0" transform="translate(469.6875, 490.23076923076917)" class="sprotty-junction thick" style="fill:rgb(112, 112, 112);stroke:none;"/></g><g id="sprotty_ArchitectureBlockImpl$work.dnl(behavioral)/ProcessBlockImpl$stateRegister/GPortImpl$ramAddrW_pres_to_ArchitectureBlockImpl$work.dnl(behavioral)/InstantiationBlockImpl$inst_ramDNL/BPortImpl$a_addr_in" class="sprotty-edge thick edge" style="fill:none;stroke:rgb(112, 112, 112);stroke-linejoin:round;stroke-width:3px;"><g><path d="M 429.6875 490.23076923076917 L 467.6875 490.23076923076917 C 468.6875 490.23076923076917 469.6875 491.23076923076917 469.6875 492.23076923076917 L 469.6875 715.5384615384614 C 469.6875 716.5384615384614 470.6875 717.5384615384614 471.6875 717.5384615384614 L 509.6875 717.5384615384614 "/><path d="M 429.6875 490.23076923076917 L 467.6875 490.23076923076917 C 468.6875 490.23076923076917 469.6875 491.23076923076917 469.6875 492.23076923076917 L 469.6875 715.5384615384614 C 469.6875 716.5384615384614 470.6875 717.5384615384614 471.6875 717.5384615384614 L 509.6875 717.5384615384614 " class="clickable"/></g></g><g id="sprotty_ArchitectureBlockImpl$work.dnl(behavioral)/ProcessBlockImpl$stateRegister/GPortImpl$ramDataW_pres_to_ArchitectureBlockImpl$work.dnl(behavioral)/ProcessBlockImpl$nextStateLogic/GPortImpl$ramDataW_pres" class="sprotty-edge thick edge" style="fill:none;stroke:rgb(112, 112, 112);stroke-linejoin:round;stroke-width:3px;"><g><path d="M 429.6875 500.99999999999994 L 742.328125 500.99999999999994 C 743.328125 500.99999999999994 744.328125 499.99999999999994 744.328125 498.99999999999994 L 744.328125 481.99999999999994 C 744.328125 480.99999999999994 745.328125 479.99999999999994 746.328125 479.99999999999994 L 774.328125 479.99999999999994 "/><path d="M 429.6875 500.99999999999994 L 742.328125 500.99999999999994 C 743.328125 500.99999999999994 744.328125 499.99999999999994 744.328125 498.99999999999994 L 744.328125 481.99999999999994 C 744.328125 480.99999999999994 745.328125 479.99999999999994 746.328125 479.99999999999994 L 774.328125 479.99999999999994 " class="clickable"/></g></g><g id="sprotty_ArchitectureBlockImpl$work.dnl(behavioral)/ProcessBlockImpl$stateRegister/GPortImpl$ramDataW_pres_to_ArchitectureBlockImpl$work.dnl(behavioral)/InstantiationBlockImpl$inst_ramDNL/BPortImpl$a_data_in" class="sprotty-edge thick edge" style="fill:none;stroke:rgb(112, 112, 112);stroke-linejoin:round;stroke-width:3px;"><g><path d="M 429.6875 500.99999999999994 L 447.6875 500.99999999999994 C 448.6875 500.99999999999994 449.6875 501.99999999999994 449.6875 502.99999999999994 L 449.6875 743.5384615384614 C 449.6875 744.5384615384614 450.6875 745.5384615384614 451.6875 745.5384615384614 L 509.6875 745.5384615384614 "/><path d="M 429.6875 500.99999999999994 L 447.6875 500.99999999999994 C 448.6875 500.99999999999994 449.6875 501.99999999999994 449.6875 502.99999999999994 L 449.6875 743.5384615384614 C 449.6875 744.5384615384614 450.6875 745.5384615384614 451.6875 745.5384615384614 L 509.6875 745.5384615384614 " class="clickable"/></g><circle r="3" id="sprotty_ArchitectureBlockImpl$work.dnl(behavioral)/ProcessBlockImpl$stateRegister/GPortImpl$ramDataW_pres_to_ArchitectureBlockImpl$work.dnl(behavioral)/InstantiationBlockImpl$inst_ramDNL/BPortImpl$a_data_in/junction0" transform="translate(449.6875, 500.99999999999994)" class="sprotty-junction thick" style="fill:rgb(112, 112, 112);stroke:none;"/></g><g id="sprotty_ArchitectureBlockImpl$work.dnl(behavioral)/ProcessBlockImpl$stateRegister/GPortImpl$counterIdx_pres_to_ArchitectureBlockImpl$work.dnl(behavioral)/ProcessBlockImpl$nextStateLogic/GPortImpl$counterIdx_pres" class="sprotty-edge thick edge" style="fill:none;stroke:rgb(112, 112, 112);stroke-linejoin:round;stroke-width:3px;"><g><path d="M 429.6875 457.92307692307685 L 497.6875 457.92307692307685 C 498.6875 457.92307692307685 499.6875 456.92307692307685 499.6875 455.92307692307685 L 499.6875 450.99999999999994 C 499.6875 449.99999999999994 500.6875 448.99999999999994 501.6875 448.99999999999994 L 702.328125 448.99999999999994 C 703.328125 448.99999999999994 704.328125 447.99999999999994 704.328125 446.99999999999994 L 704.328125 441.99999999999994 C 704.328125 440.99999999999994 705.328125 439.99999999999994 706.328125 439.99999999999994 L 774.328125 439.99999999999994 "/><path d="M 429.6875 457.92307692307685 L 497.6875 457.92307692307685 C 498.6875 457.92307692307685 499.6875 456.92307692307685 499.6875 455.92307692307685 L 499.6875 450.99999999999994 C 499.6875 449.99999999999994 500.6875 448.99999999999994 501.6875 448.99999999999994 L 702.328125 448.99999999999994 C 703.328125 448.99999999999994 704.328125 447.99999999999994 704.328125 446.99999999999994 L 704.328125 441.99999999999994 C 704.328125 440.99999999999994 705.328125 439.99999999999994 706.328125 439.99999999999994 L 774.328125 439.99999999999994 " class="clickable"/></g></g><g id="sprotty_ArchitectureBlockImpl$work.dnl(behavioral)/ProcessBlockImpl$stateRegister/GPortImpl$counterDiv_pres_to_ArchitectureBlockImpl$work.dnl(behavioral)/ProcessBlockImpl$nextStateLogic/GPortImpl$counterDiv_pres" class="sprotty-edge thick edge" style="fill:none;stroke:rgb(112, 112, 112);stroke-linejoin:round;stroke-width:3px;"><g><path d="M 429.6875 447.1538461538461 L 487.6875 447.1538461538461 C 488.6875 447.1538461538461 489.6875 446.1538461538461 489.6875 445.1538461538461 L 489.6875 424.99999999999994 C 489.6875 423.99999999999994 490.6875 422.99999999999994 491.6875 422.99999999999994 L 702.328125 422.99999999999994 C 703.328125 422.99999999999994 704.328125 421.99999999999994 704.328125 420.99999999999994 L 704.328125 420.99999999999994 C 704.328125 420.49999999999994 705.328125 419.99999999999994 706.328125 419.99999999999994 L 774.328125 419.99999999999994 "/><path d="M 429.6875 447.1538461538461 L 487.6875 447.1538461538461 C 488.6875 447.1538461538461 489.6875 446.1538461538461 489.6875 445.1538461538461 L 489.6875 424.99999999999994 C 489.6875 423.99999999999994 490.6875 422.99999999999994 491.6875 422.99999999999994 L 702.328125 422.99999999999994 C 703.328125 422.99999999999994 704.328125 421.99999999999994 704.328125 420.99999999999994 L 704.328125 420.99999999999994 C 704.328125 420.49999999999994 705.328125 419.99999999999994 706.328125 419.99999999999994 L 774.328125 419.99999999999994 " class="clickable"/></g></g><g id="sprotty_ArchitectureBlockImpl$work.dnl(behavioral)/ProcessBlockImpl$stateRegister/GPortImpl$sumBins_pres_to_ArchitectureBlockImpl$work.dnl(behavioral)/ProcessBlockImpl$nextStateLogic/GPortImpl$sumBins_pres" class="sprotty-edge thick edge" style="fill:none;stroke:rgb(112, 112, 112);stroke-linejoin:round;stroke-width:3px;"><g><path d="M 429.6875 425.6153846153845 L 477.6875 425.6153846153845 C 478.6875 425.6153846153845 479.6875 424.6153846153845 479.6875 423.6153846153845 L 479.6875 385.99999999999994 C 479.6875 384.99999999999994 480.6875 383.99999999999994 481.6875 383.99999999999994 L 702.328125 383.99999999999994 C 703.328125 383.99999999999994 704.328125 384.99999999999994 704.328125 385.99999999999994 L 704.328125 387.99999999999994 C 704.328125 388.99999999999994 705.328125 389.99999999999994 706.328125 389.99999999999994 L 774.328125 389.99999999999994 "/><path d="M 429.6875 425.6153846153845 L 477.6875 425.6153846153845 C 478.6875 425.6153846153845 479.6875 424.6153846153845 479.6875 423.6153846153845 L 479.6875 385.99999999999994 C 479.6875 384.99999999999994 480.6875 383.99999999999994 481.6875 383.99999999999994 L 702.328125 383.99999999999994 C 703.328125 383.99999999999994 704.328125 384.99999999999994 704.328125 385.99999999999994 L 704.328125 387.99999999999994 C 704.328125 388.99999999999994 705.328125 389.99999999999994 706.328125 389.99999999999994 L 774.328125 389.99999999999994 " class="clickable"/></g></g><g id="sprotty_ArchitectureBlockImpl$work.dnl(behavioral)/ProcessBlockImpl$stateRegister/GPortImpl$divStart_pres_to_ArchitectureBlockImpl$work.dnl(behavioral)/ProcessBlockImpl$nextStateLogic/GPortImpl$divStart_pres" class="sprotty-edge edge" style="fill:none;stroke:rgb(112, 112, 112);stroke-linejoin:round;"><g><path d="M 429.6875 414.84615384615375 L 447.6875 414.84615384615375 C 448.6875 414.84615384615375 449.6875 413.84615384615375 449.6875 412.84615384615375 L 449.6875 411.99999999999994 C 449.6875 410.99999999999994 450.6875 409.99999999999994 451.6875 409.99999999999994 L 774.328125 409.99999999999994 "/><path d="M 429.6875 414.84615384615375 L 447.6875 414.84615384615375 C 448.6875 414.84615384615375 449.6875 413.84615384615375 449.6875 412.84615384615375 L 449.6875 411.99999999999994 C 449.6875 410.99999999999994 450.6875 409.99999999999994 451.6875 409.99999999999994 L 774.328125 409.99999999999994 " class="clickable"/></g><circle r="2" id="sprotty_ArchitectureBlockImpl$work.dnl(behavioral)/ProcessBlockImpl$stateRegister/GPortImpl$divStart_pres_to_ArchitectureBlockImpl$work.dnl(behavioral)/ProcessBlockImpl$nextStateLogic/GPortImpl$divStart_pres/junction0" transform="translate(449.6875, 409.99999999999994)" class="sprotty-junction junction" style="fill:rgb(112, 112, 112);stroke:none;"/></g><g id="sprotty_ArchitectureBlockImpl$work.dnl(behavioral)/ProcessBlockImpl$stateRegister/GPortImpl$divStart_pres_to_ArchitectureBlockImpl$work.dnl(behavioral)/InstantiationBlockImpl$inst_divGen/BPortImpl$Start_in" class="sprotty-edge edge" style="fill:none;stroke:rgb(112, 112, 112);stroke-linejoin:round;"><g><path d="M 429.6875 414.84615384615375 L 447.6875 414.84615384615375 C 448.6875 414.84615384615375 449.6875 413.84615384615375 449.6875 412.84615384615375 L 449.6875 245 C 449.6875 244 450.6875 243 451.6875 243 L 512.359375 243 "/><path d="M 429.6875 414.84615384615375 L 447.6875 414.84615384615375 C 448.6875 414.84615384615375 449.6875 413.84615384615375 449.6875 412.84615384615375 L 449.6875 245 C 449.6875 244 450.6875 243 451.6875 243 L 512.359375 243 " class="clickable"/></g></g><g id="sprotty_ArchitectureBlockImpl$work.dnl(behavioral)/ProcessBlockImpl$stateRegister/GPortImpl$divDivisor_pres_to_ArchitectureBlockImpl$work.dnl(behavioral)/ProcessBlockImpl$nextStateLogic/GPortImpl$divDivisor_pres" class="sprotty-edge thick edge" style="fill:none;stroke:rgb(112, 112, 112);stroke-linejoin:round;stroke-width:3px;"><g><path d="M 429.6875 436.3846153846153 L 469.6875 436.3846153846153 L 469.6875 435.99999999999994 L 702.328125 435.99999999999994 C 703.328125 435.99999999999994 704.328125 434.99999999999994 704.328125 433.99999999999994 L 704.328125 431.99999999999994 C 704.328125 430.99999999999994 705.328125 429.99999999999994 706.328125 429.99999999999994 L 774.328125 429.99999999999994 "/><path d="M 429.6875 436.3846153846153 L 469.6875 436.3846153846153 L 469.6875 435.99999999999994 L 702.328125 435.99999999999994 C 703.328125 435.99999999999994 704.328125 434.99999999999994 704.328125 433.99999999999994 L 704.328125 431.99999999999994 C 704.328125 430.99999999999994 705.328125 429.99999999999994 706.328125 429.99999999999994 L 774.328125 429.99999999999994 " class="clickable"/></g><circle r="3" id="sprotty_ArchitectureBlockImpl$work.dnl(behavioral)/ProcessBlockImpl$stateRegister/GPortImpl$divDivisor_pres_to_ArchitectureBlockImpl$work.dnl(behavioral)/ProcessBlockImpl$nextStateLogic/GPortImpl$divDivisor_pres/junction0" transform="translate(469.6875, 435.99999999999994)" class="sprotty-junction thick" style="fill:rgb(112, 112, 112);stroke:none;"/></g><g id="sprotty_ArchitectureBlockImpl$work.dnl(behavioral)/ProcessBlockImpl$stateRegister/GPortImpl$divDivisor_pres_to_ArchitectureBlockImpl$work.dnl(behavioral)/InstantiationBlockImpl$inst_divGen/BPortImpl$Divisor_in" class="sprotty-edge thick edge" style="fill:none;stroke:rgb(112, 112, 112);stroke-linejoin:round;stroke-width:3px;"><g><path d="M 429.6875 436.3846153846153 L 467.6875 436.3846153846153 C 468.6875 436.3846153846153 469.6875 435.3846153846153 469.6875 434.3846153846153 L 469.6875 301 C 469.6875 300 470.6875 299 471.6875 299 L 512.359375 299 "/><path d="M 429.6875 436.3846153846153 L 467.6875 436.3846153846153 C 468.6875 436.3846153846153 469.6875 435.3846153846153 469.6875 434.3846153846153 L 469.6875 301 C 469.6875 300 470.6875 299 471.6875 299 L 512.359375 299 " class="clickable"/></g></g><g id="sprotty_ArchitectureBlockImpl$work.dnl(behavioral)/ProcessBlockImpl$stateRegister/GPortImpl$divDividend_pres_to_ArchitectureBlockImpl$work.dnl(behavioral)/ProcessBlockImpl$nextStateLogic/GPortImpl$divDividend_pres" class="sprotty-edge thick edge" style="fill:none;stroke:rgb(112, 112, 112);stroke-linejoin:round;stroke-width:3px;"><g><path d="M 429.6875 404.076923076923 L 457.6875 404.076923076923 C 458.6875 404.076923076923 459.6875 403.076923076923 459.6875 402.076923076923 L 459.6875 398.99999999999994 C 459.6875 397.99999999999994 460.6875 396.99999999999994 461.6875 396.99999999999994 L 702.328125 396.99999999999994 C 703.328125 396.99999999999994 704.328125 397.99999999999994 704.328125 398.99999999999994 L 704.328125 398.99999999999994 C 704.328125 399.49999999999994 705.328125 399.99999999999994 706.328125 399.99999999999994 L 774.328125 399.99999999999994 "/><path d="M 429.6875 404.076923076923 L 457.6875 404.076923076923 C 458.6875 404.076923076923 459.6875 403.076923076923 459.6875 402.076923076923 L 459.6875 398.99999999999994 C 459.6875 397.99999999999994 460.6875 396.99999999999994 461.6875 396.99999999999994 L 702.328125 396.99999999999994 C 703.328125 396.99999999999994 704.328125 397.99999999999994 704.328125 398.99999999999994 L 704.328125 398.99999999999994 C 704.328125 399.49999999999994 705.328125 399.99999999999994 706.328125 399.99999999999994 L 774.328125 399.99999999999994 " class="clickable"/></g><circle r="3" id="sprotty_ArchitectureBlockImpl$work.dnl(behavioral)/ProcessBlockImpl$stateRegister/GPortImpl$divDividend_pres_to_ArchitectureBlockImpl$work.dnl(behavioral)/ProcessBlockImpl$nextStateLogic/GPortImpl$divDividend_pres/junction0" transform="translate(459.6875, 396.99999999999994)" class="sprotty-junction thick" style="fill:rgb(112, 112, 112);stroke:none;"/></g><g id="sprotty_ArchitectureBlockImpl$work.dnl(behavioral)/ProcessBlockImpl$stateRegister/GPortImpl$divDividend_pres_to_ArchitectureBlockImpl$work.dnl(behavioral)/InstantiationBlockImpl$inst_divGen/BPortImpl$Dividend_in" class="sprotty-edge thick edge" style="fill:none;stroke:rgb(112, 112, 112);stroke-linejoin:round;stroke-width:3px;"><g><path d="M 429.6875 404.076923076923 L 457.6875 404.076923076923 C 458.6875 404.076923076923 459.6875 403.076923076923 459.6875 402.076923076923 L 459.6875 273 C 459.6875 272 460.6875 271 461.6875 271 L 512.359375 271 "/><path d="M 429.6875 404.076923076923 L 457.6875 404.076923076923 C 458.6875 404.076923076923 459.6875 403.076923076923 459.6875 402.076923076923 L 459.6875 273 C 459.6875 272 460.6875 271 461.6875 271 L 512.359375 271 " class="clickable"/></g></g><g id="sprotty_ArchitectureBlockImpl$work.dnl(behavioral)/ProcessBlockImpl$stateRegister/GPortImpl$meanValBin_pres_to_ArchitectureBlockImpl$work.dnl(behavioral)/ProcessBlockImpl$nextStateLogic/GPortImpl$meanValBin_pres" class="sprotty-edge thick edge" style="fill:none;stroke:rgb(112, 112, 112);stroke-linejoin:round;stroke-width:3px;"><g><path d="M 429.6875 393.3076923076922 L 437.6875 393.3076923076922 C 438.6875 393.3076923076922 439.6875 392.3076923076922 439.6875 391.3076923076922 L 439.6875 195 C 439.6875 194 440.6875 193 441.6875 193 L 722.328125 193 C 723.328125 193 724.328125 194 724.328125 195 L 724.328125 357.99999999999994 C 724.328125 358.99999999999994 725.328125 359.99999999999994 726.328125 359.99999999999994 L 774.328125 359.99999999999994 "/><path d="M 429.6875 393.3076923076922 L 437.6875 393.3076923076922 C 438.6875 393.3076923076922 439.6875 392.3076923076922 439.6875 391.3076923076922 L 439.6875 195 C 439.6875 194 440.6875 193 441.6875 193 L 722.328125 193 C 723.328125 193 724.328125 194 724.328125 195 L 724.328125 357.99999999999994 C 724.328125 358.99999999999994 725.328125 359.99999999999994 726.328125 359.99999999999994 L 774.328125 359.99999999999994 " class="clickable"/></g></g><g id="sprotty_ArchitectureBlockImpl$work.dnl(behavioral)/InstantiationBlockImpl$inst_ramDNL/BPortImpl$b_data_out_to_ArchitectureBlockImpl$work.dnl(behavioral)/GPortImpl$dnlData_out" class="sprotty-edge thick edge" style="fill:none;stroke:rgb(112, 112, 112);stroke-linejoin:round;stroke-width:3px;"><g><path d="M 694.328125 857.5384615384614 L 1096.359375 857.5384615384614 "/><path d="M 694.328125 857.5384615384614 L 1096.359375 857.5384615384614 " class="clickable"/></g></g><g id="sprotty_ArchitectureBlockImpl$work.dnl(behavioral)/InstantiationBlockImpl$inst_divGen/BPortImpl$Busy_out_to_ArchitectureBlockImpl$work.dnl(behavioral)/ProcessBlockImpl$nextStateLogic/GPortImpl$divRunning" class="sprotty-edge edge" style="fill:none;stroke:rgb(112, 112, 112);stroke-linejoin:round;"><g><path d="M 688.984375 243 L 712.328125 243 C 713.328125 243 714.328125 244 714.328125 245 L 714.328125 367.99999999999994 C 714.328125 368.99999999999994 715.328125 369.99999999999994 716.328125 369.99999999999994 L 774.328125 369.99999999999994 "/><path d="M 688.984375 243 L 712.328125 243 C 713.328125 243 714.328125 244 714.328125 245 L 714.328125 367.99999999999994 C 714.328125 368.99999999999994 715.328125 369.99999999999994 716.328125 369.99999999999994 L 774.328125 369.99999999999994 " class="clickable"/></g></g><g id="sprotty_ArchitectureBlockImpl$work.dnl(behavioral)/InstantiationBlockImpl$inst_divGen/BPortImpl$Result_out_to_ArchitectureBlockImpl$work.dnl(behavioral)/ProcessBlockImpl$nextStateLogic/GPortImpl$divResult" class="sprotty-edge thick edge" style="fill:none;stroke:rgb(112, 112, 112);stroke-linejoin:round;stroke-width:3px;"><g><path d="M 688.984375 355 L 702.328125 355 C 703.328125 355 704.328125 356 704.328125 357 L 704.328125 377.99999999999994 C 704.328125 378.99999999999994 705.328125 379.99999999999994 706.328125 379.99999999999994 L 774.328125 379.99999999999994 "/><path d="M 688.984375 355 L 702.328125 355 C 703.328125 355 704.328125 356 704.328125 357 L 704.328125 377.99999999999994 C 704.328125 378.99999999999994 705.328125 379.99999999999994 706.328125 379.99999999999994 L 774.328125 379.99999999999994 " class="clickable"/></g></g><g id="sprotty_ArchitectureBlockImpl$work.dnl(behavioral)/InstantiationBlockImpl$inst_divGen" transform="translate(512.359375, 205)" class="instantiation"><g class="sprotty-block" style="fill:rgb(255, 255, 255);stroke:rgb(48, 48, 48);stroke-dasharray:0px;"><rect x="0" y="0" rx="1" ry="1" width="176.625" height="168"/><text x="88.3125" y="12" class="sprotty-block-name" style="cursor:pointer;font-weight:bold;perspective-origin:88.2969px 0px;fill:rgb(48, 48, 48);stroke:rgba(0, 0, 0, 0);dominant-baseline:middle;text-anchor:middle;">inst_divGen : division</text><line x1="0" y1="20" x2="176.625" y2="20"/></g><g id="sprotty_ArchitectureBlockImpl$work.dnl(behavioral)/InstantiationBlockImpl$inst_divGen/BPortImpl$CLK" transform="translate(0, 150)" class="triangle"><path d="M 0,0 L 5,2.5 L 0,5 Z" transform="translate(-1.67, -2.5)" class="sprotty-port" style="fill:rgb(48, 48, 48);stroke:rgb(48, 48, 48);"/><text class="clickable sprotty-label port" id="sprotty_ArchitectureBlockImpl$work.dnl(behavioral)/InstantiationBlockImpl$inst_divGen/BPortImpl$CLK/label" transform="translate(6, -9) translate(11.953125, 14)" style="cursor:default;font-size:12px;perspective-origin:0.125px 0px;fill:rgb(48, 48, 48);text-anchor:middle;">CLK</text></g><g id="sprotty_ArchitectureBlockImpl$work.dnl(behavioral)/InstantiationBlockImpl$inst_divGen/BPortImpl$RESETN" transform="translate(0, 122)" class="triangle"><path d="M 0,0 L 5,2.5 L 0,5 Z" transform="translate(-1.67, -2.5)" class="sprotty-port" style="fill:rgb(48, 48, 48);stroke:rgb(48, 48, 48);"/><text class="clickable sprotty-label port" id="sprotty_ArchitectureBlockImpl$work.dnl(behavioral)/InstantiationBlockImpl$inst_divGen/BPortImpl$RESETN/label" transform="translate(6, -9) translate(22.359375, 14)" style="cursor:default;font-size:12px;perspective-origin:0.171875px 0px;fill:rgb(48, 48, 48);text-anchor:middle;">RESETN</text></g><g id="sprotty_ArchitectureBlockImpl$work.dnl(behavioral)/InstantiationBlockImpl$inst_divGen/BPortImpl$Divisor_in" transform="translate(0, 94)" class="triangle"><path d="M 0,0 L 5,2.5 L 0,5 Z" transform="translate(-1.67, -2.5)" class="sprotty-port" style="fill:rgb(48, 48, 48);stroke:rgb(48, 48, 48);"/><text class="clickable sprotty-label port" id="sprotty_ArchitectureBlockImpl$work.dnl(behavioral)/InstantiationBlockImpl$inst_divGen/BPortImpl$Divisor_in/label" transform="translate(6, -9) translate(27.984375, 14)" style="cursor:default;font-size:12px;perspective-origin:0.328125px 0px;fill:rgb(48, 48, 48);text-anchor:middle;">Divisor_in</text></g><g id="sprotty_ArchitectureBlockImpl$work.dnl(behavioral)/InstantiationBlockImpl$inst_divGen/BPortImpl$Dividend_in" transform="translate(0, 66)" class="triangle"><path d="M 0,0 L 5,2.5 L 0,5 Z" transform="translate(-1.67, -2.5)" class="sprotty-port" style="fill:rgb(48, 48, 48);stroke:rgb(48, 48, 48);"/><text class="clickable sprotty-label port" id="sprotty_ArchitectureBlockImpl$work.dnl(behavioral)/InstantiationBlockImpl$inst_divGen/BPortImpl$Dividend_in/label" transform="translate(6, -9) translate(33.640625, 14)" style="cursor:default;font-size:12px;perspective-origin:0.328125px 0px;fill:rgb(48, 48, 48);text-anchor:middle;">Dividend_in</text></g><g id="sprotty_ArchitectureBlockImpl$work.dnl(behavioral)/InstantiationBlockImpl$inst_divGen/BPortImpl$Start_in" transform="translate(0, 38)" class="triangle"><path d="M 0,0 L 5,2.5 L 0,5 Z" transform="translate(-1.67, -2.5)" class="sprotty-port" style="fill:rgb(48, 48, 48);stroke:rgb(48, 48, 48);"/><text class="clickable sprotty-label port" id="sprotty_ArchitectureBlockImpl$work.dnl(behavioral)/InstantiationBlockImpl$inst_divGen/BPortImpl$Start_in/label" transform="translate(6, -9) translate(23.171875, 14)" style="cursor:default;font-size:12px;perspective-origin:-0.15625px 0px;fill:rgb(48, 48, 48);text-anchor:middle;">Start_in</text></g><g id="sprotty_ArchitectureBlockImpl$work.dnl(behavioral)/InstantiationBlockImpl$inst_divGen/BPortImpl$Busy_out" transform="translate(176.625, 38)" class="triangle"><path d="M 0,0 L 5,2.5 L 0,5 Z" transform="translate(-1.67, -2.5)" class="sprotty-port" style="fill:rgb(48, 48, 48);stroke:rgb(48, 48, 48);"/><text class="clickable sprotty-label port" id="sprotty_ArchitectureBlockImpl$work.dnl(behavioral)/InstantiationBlockImpl$inst_divGen/BPortImpl$Busy_out/label" transform="translate(-60.296875, -9) translate(26.40625, 14)" style="cursor:default;font-size:12px;perspective-origin:0.734375px 0px;fill:rgb(48, 48, 48);text-anchor:middle;">Busy_out</text></g><g id="sprotty_ArchitectureBlockImpl$work.dnl(behavioral)/InstantiationBlockImpl$inst_divGen/BPortImpl$Result_out" transform="translate(176.625, 150)" class="triangle"><path d="M 0,0 L 5,2.5 L 0,5 Z" transform="translate(-1.67, -2.5)" class="sprotty-port" style="fill:rgb(48, 48, 48);stroke:rgb(48, 48, 48);"/><text class="clickable sprotty-label port" id="sprotty_ArchitectureBlockImpl$work.dnl(behavioral)/InstantiationBlockImpl$inst_divGen/BPortImpl$Result_out/label" transform="translate(-68.234375, -9) translate(30.375, 14)" style="cursor:default;font-size:12px;perspective-origin:0.734375px 0px;fill:rgb(48, 48, 48);text-anchor:middle;">Result_out</text></g></g><g id="sprotty_ArchitectureBlockImpl$work.dnl(behavioral)/InstantiationBlockImpl$inst_ramDNL" transform="translate(509.6875, 623.5384615384614)" class="instantiation"><g class="sprotty-block" style="fill:rgb(255, 255, 255);stroke:rgb(48, 48, 48);stroke-dasharray:0px;"><rect x="0" y="0" rx="1" ry="1" width="184.640625" height="252"/><text x="92.3203125" y="12" class="sprotty-block-name" style="cursor:pointer;font-weight:bold;perspective-origin:92.2969px 0px;fill:rgb(48, 48, 48);stroke:rgba(0, 0, 0, 0);dominant-baseline:middle;text-anchor:middle;">inst_ramDNL : tdpRAM</text><line x1="0" y1="20" x2="184.640625" y2="20"/></g><g id="sprotty_ArchitectureBlockImpl$work.dnl(behavioral)/InstantiationBlockImpl$inst_ramDNL/BPortImpl$b_data_in" transform="translate(0, 234)" class="triangle"><path d="M 0,0 L 5,2.5 L 0,5 Z" transform="translate(-1.67, -2.5)" class="sprotty-port" style="fill:rgb(48, 48, 48);stroke:rgb(48, 48, 48);"/><text class="clickable sprotty-label port" id="sprotty_ArchitectureBlockImpl$work.dnl(behavioral)/InstantiationBlockImpl$inst_ramDNL/BPortImpl$b_data_in/label" transform="translate(6, -9) translate(28.234375, 14)" style="cursor:default;font-size:12px;perspective-origin:0.34375px 0px;fill:rgb(48, 48, 48);text-anchor:middle;">b_data_in</text></g><g id="sprotty_ArchitectureBlockImpl$work.dnl(behavioral)/InstantiationBlockImpl$inst_ramDNL/BPortImpl$b_addr_in" transform="translate(0, 206)" class="triangle"><path d="M 0,0 L 5,2.5 L 0,5 Z" transform="translate(-1.67, -2.5)" class="sprotty-port" style="fill:rgb(48, 48, 48);stroke:rgb(48, 48, 48);"/><text class="clickable sprotty-label port" id="sprotty_ArchitectureBlockImpl$work.dnl(behavioral)/InstantiationBlockImpl$inst_ramDNL/BPortImpl$b_addr_in/label" transform="translate(6, -9) translate(28.875, 14)" style="cursor:default;font-size:12px;perspective-origin:0.328125px 0px;fill:rgb(48, 48, 48);text-anchor:middle;">b_addr_in</text></g><g id="sprotty_ArchitectureBlockImpl$work.dnl(behavioral)/InstantiationBlockImpl$inst_ramDNL/BPortImpl$b_wr_en_in" transform="translate(0, 178)" class="triangle"><path d="M 0,0 L 5,2.5 L 0,5 Z" transform="translate(-1.67, -2.5)" class="sprotty-port" style="fill:rgb(48, 48, 48);stroke:rgb(48, 48, 48);"/><text class="clickable sprotty-label port" id="sprotty_ArchitectureBlockImpl$work.dnl(behavioral)/InstantiationBlockImpl$inst_ramDNL/BPortImpl$b_wr_en_in/label" transform="translate(6, -9) translate(33.203125, 14)" style="cursor:default;font-size:12px;perspective-origin:0.34375px 0px;fill:rgb(48, 48, 48);text-anchor:middle;">b_wr_en_in</text></g><g id="sprotty_ArchitectureBlockImpl$work.dnl(behavioral)/InstantiationBlockImpl$inst_ramDNL/BPortImpl$b_clk" transform="translate(0, 150)" class="triangle"><path d="M 0,0 L 5,2.5 L 0,5 Z" transform="translate(-1.67, -2.5)" class="sprotty-port" style="fill:rgb(48, 48, 48);stroke:rgb(48, 48, 48);"/><text class="clickable sprotty-label port" id="sprotty_ArchitectureBlockImpl$work.dnl(behavioral)/InstantiationBlockImpl$inst_ramDNL/BPortImpl$b_clk/label" transform="translate(6, -9) translate(15.125, 14)" style="cursor:default;font-size:12px;perspective-origin:0.6875px 0px;fill:rgb(48, 48, 48);text-anchor:middle;">b_clk</text></g><g id="sprotty_ArchitectureBlockImpl$work.dnl(behavioral)/InstantiationBlockImpl$inst_ramDNL/BPortImpl$a_data_in" transform="translate(0, 122)" class="triangle"><path d="M 0,0 L 5,2.5 L 0,5 Z" transform="translate(-1.67, -2.5)" class="sprotty-port" style="fill:rgb(48, 48, 48);stroke:rgb(48, 48, 48);"/><text class="clickable sprotty-label port" id="sprotty_ArchitectureBlockImpl$work.dnl(behavioral)/InstantiationBlockImpl$inst_ramDNL/BPortImpl$a_data_in/label" transform="translate(6, -9) translate(28.921875, 14)" style="cursor:default;font-size:12px;perspective-origin:-0.15625px 0px;fill:rgb(48, 48, 48);text-anchor:middle;">a_data_in</text></g><g id="sprotty_ArchitectureBlockImpl$work.dnl(behavioral)/InstantiationBlockImpl$inst_ramDNL/BPortImpl$a_addr_in" transform="translate(0, 94)" class="triangle"><path d="M 0,0 L 5,2.5 L 0,5 Z" transform="translate(-1.67, -2.5)" class="sprotty-port" style="fill:rgb(48, 48, 48);stroke:rgb(48, 48, 48);"/><text class="clickable sprotty-label port" id="sprotty_ArchitectureBlockImpl$work.dnl(behavioral)/InstantiationBlockImpl$inst_ramDNL/BPortImpl$a_addr_in/label" transform="translate(6, -9) translate(29.546875, 14)" style="cursor:default;font-size:12px;perspective-origin:-0.15625px 0px;fill:rgb(48, 48, 48);text-anchor:middle;">a_addr_in</text></g><g id="sprotty_ArchitectureBlockImpl$work.dnl(behavioral)/InstantiationBlockImpl$inst_ramDNL/BPortImpl$a_wr_en_in" transform="translate(0, 66)" class="triangle"><path d="M 0,0 L 5,2.5 L 0,5 Z" transform="translate(-1.67, -2.5)" class="sprotty-port" style="fill:rgb(48, 48, 48);stroke:rgb(48, 48, 48);"/><text class="clickable sprotty-label port" id="sprotty_ArchitectureBlockImpl$work.dnl(behavioral)/InstantiationBlockImpl$inst_ramDNL/BPortImpl$a_wr_en_in/label" transform="translate(6, -9) translate(33.890625, 14)" style="cursor:default;font-size:12px;perspective-origin:-0.171875px 0px;fill:rgb(48, 48, 48);text-anchor:middle;">a_wr_en_in</text></g><g id="sprotty_ArchitectureBlockImpl$work.dnl(behavioral)/InstantiationBlockImpl$inst_ramDNL/BPortImpl$a_clk" transform="translate(0, 38)" class="triangle"><path d="M 0,0 L 5,2.5 L 0,5 Z" transform="translate(-1.67, -2.5)" class="sprotty-port" style="fill:rgb(48, 48, 48);stroke:rgb(48, 48, 48);"/><text class="clickable sprotty-label port" id="sprotty_ArchitectureBlockImpl$work.dnl(behavioral)/InstantiationBlockImpl$inst_ramDNL/BPortImpl$a_clk/label" transform="translate(6, -9) translate(15.8125, 14)" style="cursor:default;font-size:12px;perspective-origin:0.1875px 0px;fill:rgb(48, 48, 48);text-anchor:middle;">a_clk</text></g><g id="sprotty_ArchitectureBlockImpl$work.dnl(behavioral)/InstantiationBlockImpl$inst_ramDNL/BPortImpl$a_data_out" transform="translate(184.640625, 38)" class="triangle"><path d="M 0,0 L 5,2.5 L 0,5 Z" transform="translate(-1.67, -2.5)" class="sprotty-port" style="fill:rgb(48, 48, 48);stroke:rgb(48, 48, 48);"/><text class="clickable sprotty-label port" id="sprotty_ArchitectureBlockImpl$work.dnl(behavioral)/InstantiationBlockImpl$inst_ramDNL/BPortImpl$a_data_out/label" transform="translate(-72.765625, -9) translate(33.140625, 14)" style="cursor:default;font-size:12px;perspective-origin:0.234375px 0px;fill:rgb(48, 48, 48);text-anchor:middle;">a_data_out</text></g><g id="sprotty_ArchitectureBlockImpl$work.dnl(behavioral)/InstantiationBlockImpl$inst_ramDNL/BPortImpl$b_data_out" transform="translate(184.640625, 234)" class="triangle"><path d="M 0,0 L 5,2.5 L 0,5 Z" transform="translate(-1.67, -2.5)" class="sprotty-port" style="fill:rgb(48, 48, 48);stroke:rgb(48, 48, 48);"/><text class="clickable sprotty-label port" id="sprotty_ArchitectureBlockImpl$work.dnl(behavioral)/InstantiationBlockImpl$inst_ramDNL/BPortImpl$b_data_out/label" transform="translate(-72.40625, -9) translate(32.46875, 14)" style="cursor:default;font-size:12px;perspective-origin:0.734375px 0px;fill:rgb(48, 48, 48);text-anchor:middle;">b_data_out</text></g></g><g id="sprotty_ArchitectureBlockImpl$work.dnl(behavioral)/ProcessBlockImpl$stateRegister" transform="translate(314.421875, 382.53846153846143)" class="statement"><rect x="0" y="0" rx="10" ry="5" width="115.265625" height="140" class="sprotty-node" style="fill:rgb(245, 245, 245);stroke:rgb(112, 112, 112);"/><text class="clickable sprotty-label statementtext" id="sprotty_ArchitectureBlockImpl$work.dnl(behavioral)/ProcessBlockImpl$stateRegister/labeltext" transform="translate(5, 58) translate(52.609375, 19)" style="cursor:default;font-weight:bold;perspective-origin:0.015625px 0px;fill:rgb(112, 112, 112);text-anchor:middle;">stateRegister</text><g id="sprotty_ArchitectureBlockImpl$work.dnl(behavioral)/ProcessBlockImpl$stateRegister/GPortImpl$meanValBin_next" transform="translate(0, 50)" class="sprotty-hidden hidden" style="display:block;"/><g id="sprotty_ArchitectureBlockImpl$work.dnl(behavioral)/ProcessBlockImpl$stateRegister/GPortImpl$divDividend_next" transform="translate(0, 120)" class="sprotty-hidden hidden" style="display:block;"/><g id="sprotty_ArchitectureBlockImpl$work.dnl(behavioral)/ProcessBlockImpl$stateRegister/GPortImpl$divDivisor_next" transform="translate(0, 110)" class="sprotty-hidden hidden" style="display:block;"/><g id="sprotty_ArchitectureBlockImpl$work.dnl(behavioral)/ProcessBlockImpl$stateRegister/GPortImpl$divStart_next" transform="translate(0, 90)" class="sprotty-hidden hidden" style="display:block;"/><g id="sprotty_ArchitectureBlockImpl$work.dnl(behavioral)/ProcessBlockImpl$stateRegister/GPortImpl$sumBins_next" transform="translate(0, 130)" class="sprotty-hidden hidden" style="display:block;"/><g id="sprotty_ArchitectureBlockImpl$work.dnl(behavioral)/ProcessBlockImpl$stateRegister/GPortImpl$counterDiv_next" transform="translate(0, 80)" class="sprotty-hidden hidden" style="display:block;"/><g id="sprotty_ArchitectureBlockImpl$work.dnl(behavioral)/ProcessBlockImpl$stateRegister/GPortImpl$counterIdx_next" transform="translate(0, 100)" class="sprotty-hidden hidden" style="display:block;"/><g id="sprotty_ArchitectureBlockImpl$work.dnl(behavioral)/ProcessBlockImpl$stateRegister/GPortImpl$ramDataW_next" transform="translate(0, 40)" class="sprotty-hidden hidden" style="display:block;"/><g id="sprotty_ArchitectureBlockImpl$work.dnl(behavioral)/ProcessBlockImpl$stateRegister/GPortImpl$ramAddrW_next" transform="translate(0, 60)" class="sprotty-hidden hidden" style="display:block;"/><g id="sprotty_ArchitectureBlockImpl$work.dnl(behavioral)/ProcessBlockImpl$stateRegister/GPortImpl$ramAddrR_next" transform="translate(0, 30)" class="sprotty-hidden hidden" style="display:block;"/><g id="sprotty_ArchitectureBlockImpl$work.dnl(behavioral)/ProcessBlockImpl$stateRegister/GPortImpl$ramWEn_next" transform="translate(0, 10)" class="sprotty-hidden hidden" style="display:block;"/><g id="sprotty_ArchitectureBlockImpl$work.dnl(behavioral)/ProcessBlockImpl$stateRegister/GPortImpl$fsmState_next" transform="translate(0, 20)" class="sprotty-hidden hidden" style="display:block;"/><g id="sprotty_ArchitectureBlockImpl$work.dnl(behavioral)/ProcessBlockImpl$stateRegister/GPortImpl$clk" transform="translate(0, 70)" class="sprotty-hidden hidden" style="display:block;"/><g id="sprotty_ArchitectureBlockImpl$work.dnl(behavioral)/ProcessBlockImpl$stateRegister/GPortImpl$fsmState_pres" transform="translate(115.265625, 96.92307692307695)" class="sprotty-hidden hidden" style="display:block;"/><g id="sprotty_ArchitectureBlockImpl$work.dnl(behavioral)/ProcessBlockImpl$stateRegister/GPortImpl$ramWEn_pres" transform="translate(115.265625, 129.23076923076925)" class="sprotty-hidden hidden" style="display:block;"/><g id="sprotty_ArchitectureBlockImpl$work.dnl(behavioral)/ProcessBlockImpl$stateRegister/GPortImpl$ramAddrR_pres" transform="translate(115.265625, 86.15384615384617)" class="sprotty-hidden hidden" style="display:block;"/><g id="sprotty_ArchitectureBlockImpl$work.dnl(behavioral)/ProcessBlockImpl$stateRegister/GPortImpl$ramAddrW_pres" transform="translate(115.265625, 107.69230769230772)" class="sprotty-hidden hidden" style="display:block;"/><g id="sprotty_ArchitectureBlockImpl$work.dnl(behavioral)/ProcessBlockImpl$stateRegister/GPortImpl$ramDataW_pres" transform="translate(115.265625, 118.4615384615385)" class="sprotty-hidden hidden" style="display:block;"/><g id="sprotty_ArchitectureBlockImpl$work.dnl(behavioral)/ProcessBlockImpl$stateRegister/GPortImpl$counterIdx_pres" transform="translate(115.265625, 75.3846153846154)" class="sprotty-hidden hidden" style="display:block;"/><g id="sprotty_ArchitectureBlockImpl$work.dnl(behavioral)/ProcessBlockImpl$stateRegister/GPortImpl$counterDiv_pres" transform="translate(115.265625, 64.61538461538463)" class="sprotty-hidden hidden" style="display:block;"/><g id="sprotty_ArchitectureBlockImpl$work.dnl(behavioral)/ProcessBlockImpl$stateRegister/GPortImpl$sumBins_pres" transform="translate(115.265625, 43.07692307692308)" class="sprotty-hidden hidden" style="display:block;"/><g id="sprotty_ArchitectureBlockImpl$work.dnl(behavioral)/ProcessBlockImpl$stateRegister/GPortImpl$divStart_pres" transform="translate(115.265625, 32.30769230769231)" class="sprotty-hidden hidden" style="display:block;"/><g id="sprotty_ArchitectureBlockImpl$work.dnl(behavioral)/ProcessBlockImpl$stateRegister/GPortImpl$divDivisor_pres" transform="translate(115.265625, 53.846153846153854)" class="sprotty-hidden hidden" style="display:block;"/><g id="sprotty_ArchitectureBlockImpl$work.dnl(behavioral)/ProcessBlockImpl$stateRegister/GPortImpl$divDividend_pres" transform="translate(115.265625, 21.53846153846154)" class="sprotty-hidden hidden" style="display:block;"/><g id="sprotty_ArchitectureBlockImpl$work.dnl(behavioral)/ProcessBlockImpl$stateRegister/GPortImpl$meanValBin_pres" transform="translate(115.265625, 10.76923076923077)" class="sprotty-hidden hidden" style="display:block;"/></g><g id="sprotty_ArchitectureBlockImpl$work.dnl(behavioral)/ProcessBlockImpl$nextStateLogic" transform="translate(774.328125, 309.99999999999994)" class="statement"><rect x="0" y="0" rx="10" ry="5" width="127.625" height="190" class="sprotty-node" style="fill:rgb(245, 245, 245);stroke:rgb(112, 112, 112);"/><text class="clickable sprotty-label statementtext" id="sprotty_ArchitectureBlockImpl$work.dnl(behavioral)/ProcessBlockImpl$nextStateLogic/labeltext" transform="translate(5, 83) translate(58.53125, 19)" style="cursor:default;font-weight:bold;perspective-origin:0.28125px 0px;fill:rgb(112, 112, 112);text-anchor:middle;">nextStateLogic</text><g id="sprotty_ArchitectureBlockImpl$work.dnl(behavioral)/ProcessBlockImpl$nextStateLogic/GPortImpl$meanValBin_pres" transform="translate(0, 50)" class="sprotty-hidden hidden" style="display:block;"/><g id="sprotty_ArchitectureBlockImpl$work.dnl(behavioral)/ProcessBlockImpl$nextStateLogic/GPortImpl$divResult" transform="translate(0, 70)" class="sprotty-hidden hidden" style="display:block;"/><g id="sprotty_ArchitectureBlockImpl$work.dnl(behavioral)/ProcessBlockImpl$nextStateLogic/GPortImpl$divRunning" transform="translate(0, 60)" class="sprotty-hidden hidden" style="display:block;"/><g id="sprotty_ArchitectureBlockImpl$work.dnl(behavioral)/ProcessBlockImpl$nextStateLogic/GPortImpl$divDividend_pres" transform="translate(0, 90)" class="sprotty-hidden hidden" style="display:block;"/><g id="sprotty_ArchitectureBlockImpl$work.dnl(behavioral)/ProcessBlockImpl$nextStateLogic/GPortImpl$divDivisor_pres" transform="translate(0, 120)" class="sprotty-hidden hidden" style="display:block;"/><g id="sprotty_ArchitectureBlockImpl$work.dnl(behavioral)/ProcessBlockImpl$nextStateLogic/GPortImpl$divStart_pres" transform="translate(0, 100)" class="sprotty-hidden hidden" style="display:block;"/><g id="sprotty_ArchitectureBlockImpl$work.dnl(behavioral)/ProcessBlockImpl$nextStateLogic/GPortImpl$diffLengthCarryChainReg" transform="translate(0, 10)" class="sprotty-hidden hidden" style="display:block;"/><g id="sprotty_ArchitectureBlockImpl$work.dnl(behavioral)/ProcessBlockImpl$nextStateLogic/GPortImpl$minLengthCarryChainReg" transform="translate(0, 20)" class="sprotty-hidden hidden" style="display:block;"/><g id="sprotty_ArchitectureBlockImpl$work.dnl(behavioral)/ProcessBlockImpl$nextStateLogic/GPortImpl$maxLengthCarryChainReg" transform="translate(0, 30)" class="sprotty-hidden hidden" style="display:block;"/><g id="sprotty_ArchitectureBlockImpl$work.dnl(behavioral)/ProcessBlockImpl$nextStateLogic/GPortImpl$sumBins_pres" transform="translate(0, 80)" class="sprotty-hidden hidden" style="display:block;"/><g id="sprotty_ArchitectureBlockImpl$work.dnl(behavioral)/ProcessBlockImpl$nextStateLogic/GPortImpl$counterDiv_pres" transform="translate(0, 110)" class="sprotty-hidden hidden" style="display:block;"/><g id="sprotty_ArchitectureBlockImpl$work.dnl(behavioral)/ProcessBlockImpl$nextStateLogic/GPortImpl$counterIdx_pres" transform="translate(0, 130)" class="sprotty-hidden hidden" style="display:block;"/><g id="sprotty_ArchitectureBlockImpl$work.dnl(behavioral)/ProcessBlockImpl$nextStateLogic/GPortImpl$ramDataW_pres" transform="translate(0, 170)" class="sprotty-hidden hidden" style="display:block;"/><g id="sprotty_ArchitectureBlockImpl$work.dnl(behavioral)/ProcessBlockImpl$nextStateLogic/GPortImpl$ramAddrW_pres" transform="translate(0, 160)" class="sprotty-hidden hidden" style="display:block;"/><g id="sprotty_ArchitectureBlockImpl$work.dnl(behavioral)/ProcessBlockImpl$nextStateLogic/GPortImpl$ramAddrR_pres" transform="translate(0, 140)" class="sprotty-hidden hidden" style="display:block;"/><g id="sprotty_ArchitectureBlockImpl$work.dnl(behavioral)/ProcessBlockImpl$nextStateLogic/GPortImpl$fsmState_pres" transform="translate(0, 150)" class="sprotty-hidden hidden" style="display:block;"/><g id="sprotty_ArchitectureBlockImpl$work.dnl(behavioral)/ProcessBlockImpl$nextStateLogic/GPortImpl$histData_in" transform="translate(0, 180)" class="sprotty-hidden hidden" style="display:block;"/><g id="sprotty_ArchitectureBlockImpl$work.dnl(behavioral)/ProcessBlockImpl$nextStateLogic/GPortImpl$start_in" transform="translate(0, 40)" class="sprotty-hidden hidden" style="display:block;"/><g id="sprotty_ArchitectureBlockImpl$work.dnl(behavioral)/ProcessBlockImpl$nextStateLogic/GPortImpl$histAddr_out" transform="translate(127.625, 88.66666666666667)" class="sprotty-hidden hidden" style="display:block;"/><g id="sprotty_ArchitectureBlockImpl$work.dnl(behavioral)/ProcessBlockImpl$nextStateLogic/GPortImpl$dnlRunning_out" transform="translate(127.625, 101.33333333333334)" class="sprotty-hidden hidden" style="display:block;"/><g id="sprotty_ArchitectureBlockImpl$work.dnl(behavioral)/ProcessBlockImpl$nextStateLogic/GPortImpl$fsmState_next" transform="translate(127.625, 25.333333333333332)" class="sprotty-hidden hidden" style="display:block;"/><g id="sprotty_ArchitectureBlockImpl$work.dnl(behavioral)/ProcessBlockImpl$nextStateLogic/GPortImpl$ramWEn_next" transform="translate(127.625, 12.666666666666666)" class="sprotty-hidden hidden" style="display:block;"/><g id="sprotty_ArchitectureBlockImpl$work.dnl(behavioral)/ProcessBlockImpl$nextStateLogic/GPortImpl$ramAddrR_next" transform="translate(127.625, 38)" class="sprotty-hidden hidden" style="display:block;"/><g id="sprotty_ArchitectureBlockImpl$work.dnl(behavioral)/ProcessBlockImpl$nextStateLogic/GPortImpl$ramAddrW_next" transform="translate(127.625, 76)" class="sprotty-hidden hidden" style="display:block;"/><g id="sprotty_ArchitectureBlockImpl$work.dnl(behavioral)/ProcessBlockImpl$nextStateLogic/GPortImpl$ramDataW_next" transform="translate(127.625, 50.666666666666664)" class="sprotty-hidden hidden" style="display:block;"/><g id="sprotty_ArchitectureBlockImpl$work.dnl(behavioral)/ProcessBlockImpl$nextStateLogic/GPortImpl$counterIdx_next" transform="translate(127.625, 139.33333333333334)" class="sprotty-hidden hidden" style="display:block;"/><g id="sprotty_ArchitectureBlockImpl$work.dnl(behavioral)/ProcessBlockImpl$nextStateLogic/GPortImpl$counterDiv_next" transform="translate(127.625, 114.00000000000001)" class="sprotty-hidden hidden" style="display:block;"/><g id="sprotty_ArchitectureBlockImpl$work.dnl(behavioral)/ProcessBlockImpl$nextStateLogic/GPortImpl$sumBins_next" transform="translate(127.625, 177.33333333333331)" class="sprotty-hidden hidden" style="display:block;"/><g id="sprotty_ArchitectureBlockImpl$work.dnl(behavioral)/ProcessBlockImpl$nextStateLogic/GPortImpl$divStart_next" transform="translate(127.625, 126.66666666666669)" class="sprotty-hidden hidden" style="display:block;"/><g id="sprotty_ArchitectureBlockImpl$work.dnl(behavioral)/ProcessBlockImpl$nextStateLogic/GPortImpl$divDivisor_next" transform="translate(127.625, 152)" class="sprotty-hidden hidden" style="display:block;"/><g id="sprotty_ArchitectureBlockImpl$work.dnl(behavioral)/ProcessBlockImpl$nextStateLogic/GPortImpl$divDividend_next" transform="translate(127.625, 164.66666666666666)" class="sprotty-hidden hidden" style="display:block;"/><g id="sprotty_ArchitectureBlockImpl$work.dnl(behavioral)/ProcessBlockImpl$nextStateLogic/GPortImpl$meanValBin_next" transform="translate(127.625, 63.33333333333333)" class="sprotty-hidden hidden" style="display:block;"/></g><g id="sprotty_ArchitectureBlockImpl$work.dnl(behavioral)/ProcessBlockImpl$ffStage" transform="translate(568.4765625, 126)" class="statement"><rect x="0" y="0" rx="10" ry="5" width="67.0625" height="40" class="sprotty-node" style="fill:rgb(245, 245, 245);stroke:rgb(112, 112, 112);"/><text class="clickable sprotty-label statementtext" id="sprotty_ArchitectureBlockImpl$work.dnl(behavioral)/ProcessBlockImpl$ffStage/labeltext" transform="translate(5, 8) translate(28.671875, 19)" style="cursor:default;font-weight:bold;perspective-origin:-0.140625px 0px;fill:rgb(112, 112, 112);text-anchor:middle;">ffStage</text><g id="sprotty_ArchitectureBlockImpl$work.dnl(behavioral)/ProcessBlockImpl$ffStage/GPortImpl$clk" transform="translate(0, 30)" class="sprotty-hidden hidden" style="display:block;"/><g id="sprotty_ArchitectureBlockImpl$work.dnl(behavioral)/ProcessBlockImpl$ffStage/GPortImpl$maxLengthCarryChain_in" transform="translate(0, 20)" class="sprotty-hidden hidden" style="display:block;"/><g id="sprotty_ArchitectureBlockImpl$work.dnl(behavioral)/ProcessBlockImpl$ffStage/GPortImpl$minLengthCarryChain_in" transform="translate(0, 10)" class="sprotty-hidden hidden" style="display:block;"/><g id="sprotty_ArchitectureBlockImpl$work.dnl(behavioral)/ProcessBlockImpl$ffStage/GPortImpl$diffLengthCarryChainReg" transform="translate(67.0625, 10)" class="sprotty-hidden hidden" style="display:block;"/><g id="sprotty_ArchitectureBlockImpl$work.dnl(behavioral)/ProcessBlockImpl$ffStage/GPortImpl$maxLengthCarryChainReg" transform="translate(67.0625, 30)" class="sprotty-hidden hidden" style="display:block;"/><g id="sprotty_ArchitectureBlockImpl$work.dnl(behavioral)/ProcessBlockImpl$ffStage/GPortImpl$minLengthCarryChainReg" transform="translate(67.0625, 20)" class="sprotty-hidden hidden" style="display:block;"/></g><g id="sprotty_ArchitectureBlockImpl$work.dnl(behavioral)/GPortImpl$clk" transform="translate(0, 661.5384615384614)" class="triangle"><path d="M 0,0 L 5,2.5 L 0,5 Z" transform="translate(-1.67, -2.5)" class="sprotty-port" style="fill:rgb(48, 48, 48);stroke:rgb(48, 48, 48);"/><text class="clickable sprotty-label port" id="sprotty_ArchitectureBlockImpl$work.dnl(behavioral)/GPortImpl$clk/label" transform="translate(6, 6) translate(9.0625, 14)" style="cursor:default;font-size:12px;perspective-origin:0.1875px 0px;fill:rgb(48, 48, 48);text-anchor:middle;">clk</text></g><g id="sprotty_ArchitectureBlockImpl$work.dnl(behavioral)/GPortImpl$maxLengthCarryChain_in" transform="translate(0, 146)" class="triangle"><path d="M 0,0 L 5,2.5 L 0,5 Z" transform="translate(-1.67, -2.5)" class="sprotty-port" style="fill:rgb(48, 48, 48);stroke:rgb(48, 48, 48);"/><text class="clickable sprotty-label port" id="sprotty_ArchitectureBlockImpl$work.dnl(behavioral)/GPortImpl$maxLengthCarryChain_in/label" transform="translate(6, 6) translate(71.375, 14)" style="cursor:default;font-size:12px;perspective-origin:0.328125px 0px;fill:rgb(48, 48, 48);text-anchor:middle;">maxLengthCarryChain_in</text></g><g id="sprotty_ArchitectureBlockImpl$work.dnl(behavioral)/GPortImpl$minLengthCarryChain_in" transform="translate(0, 112)" class="triangle"><path d="M 0,0 L 5,2.5 L 0,5 Z" transform="translate(-1.67, -2.5)" class="sprotty-port" style="fill:rgb(48, 48, 48);stroke:rgb(48, 48, 48);"/><text class="clickable sprotty-label port" id="sprotty_ArchitectureBlockImpl$work.dnl(behavioral)/GPortImpl$minLengthCarryChain_in/label" transform="translate(6, 6) translate(70.3125, 14)" style="cursor:default;font-size:12px;perspective-origin:0.34375px 0px;fill:rgb(48, 48, 48);text-anchor:middle;">minLengthCarryChain_in</text></g><g id="sprotty_ArchitectureBlockImpl$work.dnl(behavioral)/GPortImpl$dnlAddr_in" transform="translate(0, 829.5384615384614)" class="triangle"><path d="M 0,0 L 5,2.5 L 0,5 Z" transform="translate(-1.67, -2.5)" class="sprotty-port" style="fill:rgb(48, 48, 48);stroke:rgb(48, 48, 48);"/><text class="clickable sprotty-label port" id="sprotty_ArchitectureBlockImpl$work.dnl(behavioral)/GPortImpl$dnlAddr_in/label" transform="translate(6, 6) translate(32.171875, 14)" style="cursor:default;font-size:12px;perspective-origin:-0.15625px 0px;fill:rgb(48, 48, 48);text-anchor:middle;">dnlAddr_in</text></g><g id="sprotty_ArchitectureBlockImpl$work.dnl(behavioral)/GPortImpl$histData_in" transform="translate(0, 695.5384615384614)" class="triangle"><path d="M 0,0 L 5,2.5 L 0,5 Z" transform="translate(-1.67, -2.5)" class="sprotty-port" style="fill:rgb(48, 48, 48);stroke:rgb(48, 48, 48);"/><text class="clickable sprotty-label port" id="sprotty_ArchitectureBlockImpl$work.dnl(behavioral)/GPortImpl$histData_in/label" transform="translate(6, 6) translate(31.8125, 14)" style="cursor:default;font-size:12px;perspective-origin:0.328125px 0px;fill:rgb(48, 48, 48);text-anchor:middle;">histData_in</text></g><g id="sprotty_ArchitectureBlockImpl$work.dnl(behavioral)/GPortImpl$start_in" transform="translate(0, 180)" class="triangle"><path d="M 0,0 L 5,2.5 L 0,5 Z" transform="translate(-1.67, -2.5)" class="sprotty-port" style="fill:rgb(48, 48, 48);stroke:rgb(48, 48, 48);"/><text class="clickable sprotty-label port" id="sprotty_ArchitectureBlockImpl$work.dnl(behavioral)/GPortImpl$start_in/label" transform="translate(6, 6) translate(22.4375, 14)" style="cursor:default;font-size:12px;perspective-origin:-0.171875px 0px;fill:rgb(48, 48, 48);text-anchor:middle;">start_in</text></g><g id="sprotty_ArchitectureBlockImpl$work.dnl(behavioral)/GPortImpl$histAddr_out" transform="translate(1096.359375, 377.33333333333326)" class="triangle"><path d="M 0,0 L 5,2.5 L 0,5 Z" transform="translate(-1.67, -2.5)" class="sprotty-port" style="fill:rgb(48, 48, 48);stroke:rgb(48, 48, 48);"/><text class="clickable sprotty-label port" id="sprotty_ArchitectureBlockImpl$work.dnl(behavioral)/GPortImpl$histAddr_out/label" transform="translate(-80.53125, 6) translate(36.53125, 14)" style="cursor:default;font-size:12px;perspective-origin:0.734375px 0px;fill:rgb(48, 48, 48);text-anchor:middle;">histAddr_out</text></g><g id="sprotty_ArchitectureBlockImpl$work.dnl(behavioral)/GPortImpl$dnlData_out" transform="translate(1096.359375, 857.5384615384614)" class="triangle"><path d="M 0,0 L 5,2.5 L 0,5 Z" transform="translate(-1.67, -2.5)" class="sprotty-port" style="fill:rgb(48, 48, 48);stroke:rgb(48, 48, 48);"/><text class="clickable sprotty-label port" id="sprotty_ArchitectureBlockImpl$work.dnl(behavioral)/GPortImpl$dnlData_out/label" transform="translate(-78.28125, 6) translate(35.90625, 14)" style="cursor:default;font-size:12px;perspective-origin:0.234375px 0px;fill:rgb(48, 48, 48);text-anchor:middle;">dnlData_out</text></g><g id="sprotty_ArchitectureBlockImpl$work.dnl(behavioral)/GPortImpl$dnlRunning_out" transform="translate(1096.359375, 411.33333333333326)" class="triangle"><path d="M 0,0 L 5,2.5 L 0,5 Z" transform="translate(-1.67, -2.5)" class="sprotty-port" style="fill:rgb(48, 48, 48);stroke:rgb(48, 48, 48);"/><text class="clickable sprotty-label port" id="sprotty_ArchitectureBlockImpl$work.dnl(behavioral)/GPortImpl$dnlRunning_out/label" transform="translate(-99.40625, 6) translate(46.453125, 14)" style="cursor:default;font-size:12px;perspective-origin:0.25px 0px;fill:rgb(48, 48, 48);text-anchor:middle;">dnlRunning_out</text></g></g></g></svg>