<svg xmlns="http://www.w3.org/2000/svg" id="sprotty_work.pulseDelay.behavioral" class="sprotty-graph sprotty-block-diagram blockdiagram" style="font-family:&quot;Noto Sans&quot;, Helvetica, Arial, sans-serif;perspective-origin:0px 0px;transform-origin:0px 0px;" version="1.1" viewBox="7 7 844.34375 387" width="844.34375" height="387"><g transform="scale(1) translate(0,0)"><g id="sprotty_ArchitectureBlockImpl$work.pulseDelay(behavioral)" transform="translate(12, 12)" class="architecture"><g class="sprotty-block" style="fill:rgb(255, 255, 255);stroke:rgb(48, 48, 48);stroke-dasharray:0px;"><rect x="0" y="0" rx="1" ry="1" width="834.34375" height="377"/><text x="417.171875" y="12" class="sprotty-block-name" style="cursor:pointer;font-weight:bold;perspective-origin:416.656px 0px;fill:rgb(48, 48, 48);stroke:rgba(0, 0, 0, 0);dominant-baseline:middle;text-anchor:middle;">work.pulseDelay(behavioral)</text><line x1="0" y1="20" x2="834.34375" y2="20"/></g><g id="sprotty_ArchitectureBlockImpl$work.pulseDelay(behavioral)/GPortImpl$data_in_to_ArchitectureBlockImpl$work.pulseDelay(behavioral)/InstantiationBlockImpl$inst_ODELAYE3/BPortImpl$ODATAIN" class="sprotty-edge edge" style="fill:none;stroke:rgb(112, 112, 112);stroke-linejoin:round;"><g><path d="M 0 329 L 494.796875 329 C 495.796875 329 496.796875 328 496.796875 327 L 496.796875 312 C 496.796875 311 497.796875 310 498.796875 310 L 506.796875 310 "/><path d="M 0 329 L 494.796875 329 C 495.796875 329 496.796875 328 496.796875 327 L 496.796875 312 C 496.796875 311 497.796875 310 498.796875 310 L 506.796875 310 " class="clickable"/></g></g><g id="sprotty_ArchitectureBlockImpl$work.pulseDelay(behavioral)/GPortImpl$start_in_to_ArchitectureBlockImpl$work.pulseDelay(behavioral)/ProcessBlockImpl$nextStateLogic/GPortImpl$start_in" class="sprotty-edge edge" style="fill:none;stroke:rgb(112, 112, 112);stroke-linejoin:round;"><g><path d="M 0 182 L 121.90625 182 C 122.90625 182 123.90625 183 123.90625 184 L 123.90625 204 C 123.90625 205 124.90625 206 125.90625 206 L 163.90625 206 "/><path d="M 0 182 L 121.90625 182 C 122.90625 182 123.90625 183 123.90625 184 L 123.90625 204 C 123.90625 205 124.90625 206 125.90625 206 L 163.90625 206 " class="clickable"/></g></g><g id="sprotty_ArchitectureBlockImpl$work.pulseDelay(behavioral)/GPortImpl$incDec_in_to_ArchitectureBlockImpl$work.pulseDelay(behavioral)/ProcessBlockImpl$nextStateLogic/GPortImpl$incDec_in" class="sprotty-edge edge" style="fill:none;stroke:rgb(112, 112, 112);stroke-linejoin:round;"><g><path d="M 0 250 L 121.90625 250 C 122.90625 250 123.90625 249 123.90625 248 L 123.90625 228 C 123.90625 227 124.90625 226 125.90625 226 L 163.90625 226 "/><path d="M 0 250 L 121.90625 250 C 122.90625 250 123.90625 249 123.90625 248 L 123.90625 228 C 123.90625 227 124.90625 226 125.90625 226 L 163.90625 226 " class="clickable"/></g></g><g id="sprotty_ArchitectureBlockImpl$work.pulseDelay(behavioral)/GPortImpl$idelayCtrlRdy_in_to_ArchitectureBlockImpl$work.pulseDelay(behavioral)/ProcessBlockImpl$nextStateLogic/GPortImpl$idelayCtrlRdy_in" class="sprotty-edge edge" style="fill:none;stroke:rgb(112, 112, 112);stroke-linejoin:round;"><g><path d="M 0 216 L 163.90625 216 "/><path d="M 0 216 L 163.90625 216 " class="clickable"/></g></g><g id="sprotty_ArchitectureBlockImpl$work.pulseDelay(behavioral)/GPortImpl$clk_to_ArchitectureBlockImpl$work.pulseDelay(behavioral)/InstantiationBlockImpl$inst_ODELAYE3/BPortImpl$CLK" class="sprotty-edge edge" style="fill:none;stroke:rgb(112, 112, 112);stroke-linejoin:round;"><g><path d="M 0 148 L 464.796875 148 C 465.796875 148 466.796875 149 466.796875 150 L 466.796875 168 C 466.796875 169 467.796875 170 468.796875 170 L 506.796875 170 "/><path d="M 0 148 L 464.796875 148 C 465.796875 148 466.796875 149 466.796875 150 L 466.796875 168 C 466.796875 169 467.796875 170 468.796875 170 L 506.796875 170 " class="clickable"/></g></g><g id="sprotty_ArchitectureBlockImpl$work.pulseDelay(behavioral)/GPortImpl$clk_to_ArchitectureBlockImpl$work.pulseDelay(behavioral)/ProcessBlockImpl$stateRegister/GPortImpl$clk" class="sprotty-edge edge" style="fill:none;stroke:rgb(112, 112, 112);stroke-linejoin:round;"><g><path d="M 0 148 L 329.53125 148 C 330.53125 148 331.53125 149 331.53125 150 L 331.53125 246 C 331.53125 247 332.53125 248 333.53125 248 L 341.53125 248 "/><path d="M 0 148 L 329.53125 148 C 330.53125 148 331.53125 149 331.53125 150 L 331.53125 246 C 331.53125 247 332.53125 248 333.53125 248 L 341.53125 248 " class="clickable"/></g><circle r="2" id="sprotty_ArchitectureBlockImpl$work.pulseDelay(behavioral)/GPortImpl$clk_to_ArchitectureBlockImpl$work.pulseDelay(behavioral)/ProcessBlockImpl$stateRegister/GPortImpl$clk/junction0" transform="translate(331.53125, 148)" class="sprotty-junction junction" style="fill:rgb(112, 112, 112);stroke:none;"/></g><g id="sprotty_ArchitectureBlockImpl$work.pulseDelay(behavioral)/InstantiationBlockImpl$inst_ODELAYE3/BPortImpl$CNTVALUEOUT_to_ArchitectureBlockImpl$work.pulseDelay(behavioral)/GPortImpl$delayTaps_out" class="sprotty-edge thick edge" style="fill:none;stroke:rgb(112, 112, 112);stroke-linejoin:round;stroke-width:3px;"><g><path d="M 728.78125 212 L 834.34375 212 "/><path d="M 728.78125 212 L 834.34375 212 " class="clickable"/></g></g><g id="sprotty_ArchitectureBlockImpl$work.pulseDelay(behavioral)/InstantiationBlockImpl$inst_ODELAYE3/BPortImpl$DATAOUT_to_ArchitectureBlockImpl$work.pulseDelay(behavioral)/GPortImpl$data_out" class="sprotty-edge edge" style="fill:none;stroke:rgb(112, 112, 112);stroke-linejoin:round;"><g><path d="M 728.78125 338 L 834.34375 338 "/><path d="M 728.78125 338 L 834.34375 338 " class="clickable"/></g></g><g id="sprotty_ArchitectureBlockImpl$work.pulseDelay(behavioral)/ProcessBlockImpl$nextStateLogic/GPortImpl$ready_out_to_ArchitectureBlockImpl$work.pulseDelay(behavioral)/GPortImpl$ready_out" class="sprotty-edge edge" style="fill:none;stroke:rgb(112, 112, 112);stroke-linejoin:round;"><g><path d="M 291.53125 206 L 299.53125 206 C 300.53125 206 301.53125 205 301.53125 204 L 301.53125 38 C 301.53125 37 302.53125 36 303.53125 36 L 834.34375 36 "/><path d="M 291.53125 206 L 299.53125 206 C 300.53125 206 301.53125 205 301.53125 204 L 301.53125 38 C 301.53125 37 302.53125 36 303.53125 36 L 834.34375 36 " class="clickable"/></g></g><g id="sprotty_ArchitectureBlockImpl$work.pulseDelay(behavioral)/ProcessBlockImpl$nextStateLogic/GPortImpl$fsmState_next_to_ArchitectureBlockImpl$work.pulseDelay(behavioral)/ProcessBlockImpl$stateRegister/GPortImpl$fsmState_next" class="sprotty-edge thick edge" style="fill:none;stroke:rgb(112, 112, 112);stroke-linejoin:round;stroke-width:3px;"><g><path d="M 291.53125 256 L 299.53125 256 C 300.53125 256 301.53125 257 301.53125 258 L 301.53125 276 C 301.53125 277 302.53125 278 303.53125 278 L 341.53125 278 "/><path d="M 291.53125 256 L 299.53125 256 C 300.53125 256 301.53125 257 301.53125 258 L 301.53125 276 C 301.53125 277 302.53125 278 303.53125 278 L 341.53125 278 " class="clickable"/></g></g><g id="sprotty_ArchitectureBlockImpl$work.pulseDelay(behavioral)/ProcessBlockImpl$nextStateLogic/GPortImpl$delayVTC_to_ArchitectureBlockImpl$work.pulseDelay(behavioral)/InstantiationBlockImpl$inst_ODELAYE3/BPortImpl$EN_VTC" class="sprotty-edge edge" style="fill:none;stroke:rgb(112, 112, 112);stroke-linejoin:round;"><g><path d="M 291.53125 226 L 506.796875 226 "/><path d="M 291.53125 226 L 506.796875 226 " class="clickable"/></g></g><g id="sprotty_ArchitectureBlockImpl$work.pulseDelay(behavioral)/ProcessBlockImpl$nextStateLogic/GPortImpl$delayCE_to_ArchitectureBlockImpl$work.pulseDelay(behavioral)/InstantiationBlockImpl$inst_ODELAYE3/BPortImpl$CE" class="sprotty-edge edge" style="fill:none;stroke:rgb(112, 112, 112);stroke-linejoin:round;"><g><path d="M 291.53125 216 L 309.53125 216 C 310.53125 216 311.53125 215 311.53125 214 L 311.53125 137 C 311.53125 136 312.53125 135 313.53125 135 L 464.796875 135 C 465.796875 135 466.796875 136 466.796875 137 L 466.796875 140 C 466.796875 141 467.796875 142 468.796875 142 L 506.796875 142 "/><path d="M 291.53125 216 L 309.53125 216 C 310.53125 216 311.53125 215 311.53125 214 L 311.53125 137 C 311.53125 136 312.53125 135 313.53125 135 L 464.796875 135 C 465.796875 135 466.796875 136 466.796875 137 L 466.796875 140 C 466.796875 141 467.796875 142 468.796875 142 L 506.796875 142 " class="clickable"/></g></g><g id="sprotty_ArchitectureBlockImpl$work.pulseDelay(behavioral)/ProcessBlockImpl$nextStateLogic/GPortImpl$cnt_next_to_ArchitectureBlockImpl$work.pulseDelay(behavioral)/ProcessBlockImpl$stateRegister/GPortImpl$cnt_next" class="sprotty-edge thick edge" style="fill:none;stroke:rgb(112, 112, 112);stroke-linejoin:round;stroke-width:3px;"><g><path d="M 291.53125 246 L 309.53125 246 C 310.53125 246 311.53125 247 311.53125 248 L 311.53125 266 C 311.53125 267 312.53125 268 313.53125 268 L 341.53125 268 "/><path d="M 291.53125 246 L 309.53125 246 C 310.53125 246 311.53125 247 311.53125 248 L 311.53125 266 C 311.53125 267 312.53125 268 313.53125 268 L 341.53125 268 " class="clickable"/></g></g><g id="sprotty_ArchitectureBlockImpl$work.pulseDelay(behavioral)/ProcessBlockImpl$nextStateLogic/GPortImpl$incDecSave_next_to_ArchitectureBlockImpl$work.pulseDelay(behavioral)/ProcessBlockImpl$stateRegister/GPortImpl$incDecSave_next" class="sprotty-edge edge" style="fill:none;stroke:rgb(112, 112, 112);stroke-linejoin:round;"><g><path d="M 291.53125 236 L 319.53125 236 C 320.53125 236 321.53125 237 321.53125 238 L 321.53125 256 C 321.53125 257 322.53125 258 323.53125 258 L 341.53125 258 "/><path d="M 291.53125 236 L 319.53125 236 C 320.53125 236 321.53125 237 321.53125 238 L 321.53125 256 C 321.53125 257 322.53125 258 323.53125 258 L 341.53125 258 " class="clickable"/></g></g><g id="sprotty_ArchitectureBlockImpl$work.pulseDelay(behavioral)/ProcessBlockImpl$stateRegister/GPortImpl$fsmState_pres_to_ArchitectureBlockImpl$work.pulseDelay(behavioral)/ProcessBlockImpl$nextStateLogic/GPortImpl$fsmState_pres" class="sprotty-edge thick edge" style="fill:none;stroke:rgb(112, 112, 112);stroke-linejoin:round;stroke-width:3px;"><g><path d="M 456.796875 263 L 474.796875 263 C 475.796875 263 476.796875 264 476.796875 265 L 476.796875 306 C 476.796875 307 475.796875 308 474.796875 308 L 145.90625 308 C 144.90625 308 143.90625 307 143.90625 306 L 143.90625 248 C 143.90625 247 144.90625 246 145.90625 246 L 163.90625 246 "/><path d="M 456.796875 263 L 474.796875 263 C 475.796875 263 476.796875 264 476.796875 265 L 476.796875 306 C 476.796875 307 475.796875 308 474.796875 308 L 145.90625 308 C 144.90625 308 143.90625 307 143.90625 306 L 143.90625 248 C 143.90625 247 144.90625 246 145.90625 246 L 163.90625 246 " class="clickable"/></g></g><g id="sprotty_ArchitectureBlockImpl$work.pulseDelay(behavioral)/ProcessBlockImpl$stateRegister/GPortImpl$cnt_pres_to_ArchitectureBlockImpl$work.pulseDelay(behavioral)/ProcessBlockImpl$nextStateLogic/GPortImpl$cnt_pres" class="sprotty-edge thick edge" style="fill:none;stroke:rgb(112, 112, 112);stroke-linejoin:round;stroke-width:3px;"><g><path d="M 456.796875 275.5 L 464.796875 275.5 C 465.796875 275.5 466.796875 276.5 466.796875 277.5 L 466.796875 296 C 466.796875 297 465.796875 298 464.796875 298 L 155.90625 298 C 154.90625 298 153.90625 297 153.90625 296 L 153.90625 258 C 153.90625 257 154.90625 256 155.90625 256 L 163.90625 256 "/><path d="M 456.796875 275.5 L 464.796875 275.5 C 465.796875 275.5 466.796875 276.5 466.796875 277.5 L 466.796875 296 C 466.796875 297 465.796875 298 464.796875 298 L 155.90625 298 C 154.90625 298 153.90625 297 153.90625 296 L 153.90625 258 C 153.90625 257 154.90625 256 155.90625 256 L 163.90625 256 " class="clickable"/></g></g><g id="sprotty_ArchitectureBlockImpl$work.pulseDelay(behavioral)/ProcessBlockImpl$stateRegister/GPortImpl$incDecSave_pres_to_ArchitectureBlockImpl$work.pulseDelay(behavioral)/InstantiationBlockImpl$inst_ODELAYE3/BPortImpl$INC" class="sprotty-edge edge" style="fill:none;stroke:rgb(112, 112, 112);stroke-linejoin:round;"><g><path d="M 456.796875 250.5 L 484.796875 250.5 C 485.796875 250.5 486.796875 251.5 486.796875 252.5 L 486.796875 252.5 C 486.796875 253.25 487.796875 254 488.796875 254 L 506.796875 254 "/><path d="M 456.796875 250.5 L 484.796875 250.5 C 485.796875 250.5 486.796875 251.5 486.796875 252.5 L 486.796875 252.5 C 486.796875 253.25 487.796875 254 488.796875 254 L 506.796875 254 " class="clickable"/></g><circle r="2" id="sprotty_ArchitectureBlockImpl$work.pulseDelay(behavioral)/ProcessBlockImpl$stateRegister/GPortImpl$incDecSave_pres_to_ArchitectureBlockImpl$work.pulseDelay(behavioral)/InstantiationBlockImpl$inst_ODELAYE3/BPortImpl$INC/junction0" transform="translate(486.796875, 254)" class="sprotty-junction junction" style="fill:rgb(112, 112, 112);stroke:none;"/></g><g id="sprotty_ArchitectureBlockImpl$work.pulseDelay(behavioral)/ProcessBlockImpl$stateRegister/GPortImpl$incDecSave_pres_to_ArchitectureBlockImpl$work.pulseDelay(behavioral)/ProcessBlockImpl$nextStateLogic/GPortImpl$incDecSave_pres" class="sprotty-edge edge" style="fill:none;stroke:rgb(112, 112, 112);stroke-linejoin:round;"><g><path d="M 456.796875 250.5 L 484.796875 250.5 C 485.796875 250.5 486.796875 251.5 486.796875 252.5 L 486.796875 316 C 486.796875 317 485.796875 318 484.796875 318 L 135.90625 318 C 134.90625 318 133.90625 317 133.90625 316 L 133.90625 238 C 133.90625 237 134.90625 236 135.90625 236 L 163.90625 236 "/><path d="M 456.796875 250.5 L 484.796875 250.5 C 485.796875 250.5 486.796875 251.5 486.796875 252.5 L 486.796875 316 C 486.796875 317 485.796875 318 484.796875 318 L 135.90625 318 C 134.90625 318 133.90625 317 133.90625 316 L 133.90625 238 C 133.90625 237 134.90625 236 135.90625 236 L 163.90625 236 " class="clickable"/></g></g><g id="sprotty_ArchitectureBlockImpl$work.pulseDelay(behavioral)/ProcessBlockImpl$stateRegister" transform="translate(341.53125, 238)" class="statement"><rect x="0" y="0" rx="10" ry="5" width="115.265625" height="50" class="sprotty-node" style="fill:rgb(245, 245, 245);stroke:rgb(112, 112, 112);"/><text class="clickable sprotty-label statementtext" id="sprotty_ArchitectureBlockImpl$work.pulseDelay(behavioral)/ProcessBlockImpl$stateRegister/labeltext" transform="translate(5, 13) translate(52.609375, 19)" style="cursor:default;font-weight:bold;perspective-origin:0.015625px 0px;fill:rgb(112, 112, 112);text-anchor:middle;">stateRegister</text><g id="sprotty_ArchitectureBlockImpl$work.pulseDelay(behavioral)/ProcessBlockImpl$stateRegister/GPortImpl$incDecSave_next" transform="translate(0, 20)" class="sprotty-hidden hidden" style="display:block;"/><g id="sprotty_ArchitectureBlockImpl$work.pulseDelay(behavioral)/ProcessBlockImpl$stateRegister/GPortImpl$cnt_next" transform="translate(0, 30)" class="sprotty-hidden hidden" style="display:block;"/><g id="sprotty_ArchitectureBlockImpl$work.pulseDelay(behavioral)/ProcessBlockImpl$stateRegister/GPortImpl$fsmState_next" transform="translate(0, 40)" class="sprotty-hidden hidden" style="display:block;"/><g id="sprotty_ArchitectureBlockImpl$work.pulseDelay(behavioral)/ProcessBlockImpl$stateRegister/GPortImpl$clk" transform="translate(0, 10)" class="sprotty-hidden hidden" style="display:block;"/><g id="sprotty_ArchitectureBlockImpl$work.pulseDelay(behavioral)/ProcessBlockImpl$stateRegister/GPortImpl$fsmState_pres" transform="translate(115.265625, 25)" class="sprotty-hidden hidden" style="display:block;"/><g id="sprotty_ArchitectureBlockImpl$work.pulseDelay(behavioral)/ProcessBlockImpl$stateRegister/GPortImpl$cnt_pres" transform="translate(115.265625, 37.5)" class="sprotty-hidden hidden" style="display:block;"/><g id="sprotty_ArchitectureBlockImpl$work.pulseDelay(behavioral)/ProcessBlockImpl$stateRegister/GPortImpl$incDecSave_pres" transform="translate(115.265625, 12.5)" class="sprotty-hidden hidden" style="display:block;"/></g><g id="sprotty_ArchitectureBlockImpl$work.pulseDelay(behavioral)/ProcessBlockImpl$nextStateLogic" transform="translate(163.90625, 196)" class="statement"><rect x="0" y="0" rx="10" ry="5" width="127.625" height="70" class="sprotty-node" style="fill:rgb(245, 245, 245);stroke:rgb(112, 112, 112);"/><text class="clickable sprotty-label statementtext" id="sprotty_ArchitectureBlockImpl$work.pulseDelay(behavioral)/ProcessBlockImpl$nextStateLogic/labeltext" transform="translate(5, 23) translate(58.53125, 19)" style="cursor:default;font-weight:bold;perspective-origin:0.28125px 0px;fill:rgb(112, 112, 112);text-anchor:middle;">nextStateLogic</text><g id="sprotty_ArchitectureBlockImpl$work.pulseDelay(behavioral)/ProcessBlockImpl$nextStateLogic/GPortImpl$incDecSave_pres" transform="translate(0, 40)" class="sprotty-hidden hidden" style="display:block;"/><g id="sprotty_ArchitectureBlockImpl$work.pulseDelay(behavioral)/ProcessBlockImpl$nextStateLogic/GPortImpl$cnt_pres" transform="translate(0, 60)" class="sprotty-hidden hidden" style="display:block;"/><g id="sprotty_ArchitectureBlockImpl$work.pulseDelay(behavioral)/ProcessBlockImpl$nextStateLogic/GPortImpl$fsmState_pres" transform="translate(0, 50)" class="sprotty-hidden hidden" style="display:block;"/><g id="sprotty_ArchitectureBlockImpl$work.pulseDelay(behavioral)/ProcessBlockImpl$nextStateLogic/GPortImpl$idelayCtrlRdy_in" transform="translate(0, 20)" class="sprotty-hidden hidden" style="display:block;"/><g id="sprotty_ArchitectureBlockImpl$work.pulseDelay(behavioral)/ProcessBlockImpl$nextStateLogic/GPortImpl$incDec_in" transform="translate(0, 30)" class="sprotty-hidden hidden" style="display:block;"/><g id="sprotty_ArchitectureBlockImpl$work.pulseDelay(behavioral)/ProcessBlockImpl$nextStateLogic/GPortImpl$start_in" transform="translate(0, 10)" class="sprotty-hidden hidden" style="display:block;"/><g id="sprotty_ArchitectureBlockImpl$work.pulseDelay(behavioral)/ProcessBlockImpl$nextStateLogic/GPortImpl$ready_out" transform="translate(127.625, 10)" class="sprotty-hidden hidden" style="display:block;"/><g id="sprotty_ArchitectureBlockImpl$work.pulseDelay(behavioral)/ProcessBlockImpl$nextStateLogic/GPortImpl$fsmState_next" transform="translate(127.625, 60)" class="sprotty-hidden hidden" style="display:block;"/><g id="sprotty_ArchitectureBlockImpl$work.pulseDelay(behavioral)/ProcessBlockImpl$nextStateLogic/GPortImpl$delayVTC" transform="translate(127.625, 30)" class="sprotty-hidden hidden" style="display:block;"/><g id="sprotty_ArchitectureBlockImpl$work.pulseDelay(behavioral)/ProcessBlockImpl$nextStateLogic/GPortImpl$delayCE" transform="translate(127.625, 20)" class="sprotty-hidden hidden" style="display:block;"/><g id="sprotty_ArchitectureBlockImpl$work.pulseDelay(behavioral)/ProcessBlockImpl$nextStateLogic/GPortImpl$cnt_next" transform="translate(127.625, 50)" class="sprotty-hidden hidden" style="display:block;"/><g id="sprotty_ArchitectureBlockImpl$work.pulseDelay(behavioral)/ProcessBlockImpl$nextStateLogic/GPortImpl$incDecSave_next" transform="translate(127.625, 40)" class="sprotty-hidden hidden" style="display:block;"/></g><g id="sprotty_ArchitectureBlockImpl$work.pulseDelay(behavioral)/InstantiationBlockImpl$inst_ODELAYE3" transform="translate(506.796875, 48)" class="instantiation"><g class="sprotty-block" style="fill:rgb(255, 255, 255);stroke:rgb(48, 48, 48);stroke-dasharray:0px;"><rect x="0" y="0" rx="1" ry="1" width="221.984375" height="308"/><text x="110.9921875" y="12" class="sprotty-block-name" style="cursor:pointer;font-weight:bold;perspective-origin:111.25px 0px;fill:rgb(48, 48, 48);stroke:rgba(0, 0, 0, 0);dominant-baseline:middle;text-anchor:middle;">inst_ODELAYE3 : ODELAYE3</text><line x1="0" y1="20" x2="221.984375" y2="20"/></g><g id="sprotty_ArchitectureBlockImpl$work.pulseDelay(behavioral)/InstantiationBlockImpl$inst_ODELAYE3/BPortImpl$RST" transform="translate(0, 290)" class="triangle"><path d="M 0,0 L 5,2.5 L 0,5 Z" transform="translate(-1.67, -2.5)" class="sprotty-port" style="fill:rgb(48, 48, 48);stroke:rgb(48, 48, 48);"/><text class="clickable sprotty-label port" id="sprotty_ArchitectureBlockImpl$work.pulseDelay(behavioral)/InstantiationBlockImpl$inst_ODELAYE3/BPortImpl$RST/label" transform="translate(6, -9) translate(10.75, 14)" style="cursor:default;font-size:12px;perspective-origin:0.90625px 0px;fill:rgb(48, 48, 48);text-anchor:middle;">RST</text></g><g id="sprotty_ArchitectureBlockImpl$work.pulseDelay(behavioral)/InstantiationBlockImpl$inst_ODELAYE3/BPortImpl$ODATAIN" transform="translate(0, 262)" class="triangle"><path d="M 0,0 L 5,2.5 L 0,5 Z" transform="translate(-1.67, -2.5)" class="sprotty-port" style="fill:rgb(48, 48, 48);stroke:rgb(48, 48, 48);"/><text class="clickable sprotty-label port" id="sprotty_ArchitectureBlockImpl$work.pulseDelay(behavioral)/InstantiationBlockImpl$inst_ODELAYE3/BPortImpl$ODATAIN/label" transform="translate(6, -9) translate(25.828125, 14)" style="cursor:default;font-size:12px;perspective-origin:-0.3125px 0px;fill:rgb(48, 48, 48);text-anchor:middle;">ODATAIN</text></g><g id="sprotty_ArchitectureBlockImpl$work.pulseDelay(behavioral)/InstantiationBlockImpl$inst_ODELAYE3/BPortImpl$LOAD" transform="translate(0, 234)" class="triangle"><path d="M 0,0 L 5,2.5 L 0,5 Z" transform="translate(-1.67, -2.5)" class="sprotty-port" style="fill:rgb(48, 48, 48);stroke:rgb(48, 48, 48);"/><text class="clickable sprotty-label port" id="sprotty_ArchitectureBlockImpl$work.pulseDelay(behavioral)/InstantiationBlockImpl$inst_ODELAYE3/BPortImpl$LOAD/label" transform="translate(6, -9) translate(15.21875, 14)" style="cursor:default;font-size:12px;perspective-origin:0.375px 0px;fill:rgb(48, 48, 48);text-anchor:middle;">LOAD</text></g><g id="sprotty_ArchitectureBlockImpl$work.pulseDelay(behavioral)/InstantiationBlockImpl$inst_ODELAYE3/BPortImpl$INC" transform="translate(0, 206)" class="triangle"><path d="M 0,0 L 5,2.5 L 0,5 Z" transform="translate(-1.67, -2.5)" class="sprotty-port" style="fill:rgb(48, 48, 48);stroke:rgb(48, 48, 48);"/><text class="clickable sprotty-label port" id="sprotty_ArchitectureBlockImpl$work.pulseDelay(behavioral)/InstantiationBlockImpl$inst_ODELAYE3/BPortImpl$INC/label" transform="translate(6, -9) translate(9.90625, 14)" style="cursor:default;font-size:12px;perspective-origin:0.671875px 0px;fill:rgb(48, 48, 48);text-anchor:middle;">INC</text></g><g id="sprotty_ArchitectureBlockImpl$work.pulseDelay(behavioral)/InstantiationBlockImpl$inst_ODELAYE3/BPortImpl$EN_VTC" transform="translate(0, 178)" class="triangle"><path d="M 0,0 L 5,2.5 L 0,5 Z" transform="translate(-1.67, -2.5)" class="sprotty-port" style="fill:rgb(48, 48, 48);stroke:rgb(48, 48, 48);"/><text class="clickable sprotty-label port" id="sprotty_ArchitectureBlockImpl$work.pulseDelay(behavioral)/InstantiationBlockImpl$inst_ODELAYE3/BPortImpl$EN_VTC/label" transform="translate(6, -9) translate(21.921875, 14)" style="cursor:default;font-size:12px;perspective-origin:0.671875px 0px;fill:rgb(48, 48, 48);text-anchor:middle;">EN_VTC</text></g><g id="sprotty_ArchitectureBlockImpl$work.pulseDelay(behavioral)/InstantiationBlockImpl$inst_ODELAYE3/BPortImpl$CNTVALUEIN" transform="translate(0, 150)" class="triangle"><path d="M 0,0 L 5,2.5 L 0,5 Z" transform="translate(-1.67, -2.5)" class="sprotty-port" style="fill:rgb(48, 48, 48);stroke:rgb(48, 48, 48);"/><text class="clickable sprotty-label port" id="sprotty_ArchitectureBlockImpl$work.pulseDelay(behavioral)/InstantiationBlockImpl$inst_ODELAYE3/BPortImpl$CNTVALUEIN/label" transform="translate(6, -9) translate(36.75, 14)" style="cursor:default;font-size:12px;perspective-origin:-0.328125px 0px;fill:rgb(48, 48, 48);text-anchor:middle;">CNTVALUEIN</text></g><g id="sprotty_ArchitectureBlockImpl$work.pulseDelay(behavioral)/InstantiationBlockImpl$inst_ODELAYE3/BPortImpl$CLK" transform="translate(0, 122)" class="triangle"><path d="M 0,0 L 5,2.5 L 0,5 Z" transform="translate(-1.67, -2.5)" class="sprotty-port" style="fill:rgb(48, 48, 48);stroke:rgb(48, 48, 48);"/><text class="clickable sprotty-label port" id="sprotty_ArchitectureBlockImpl$work.pulseDelay(behavioral)/InstantiationBlockImpl$inst_ODELAYE3/BPortImpl$CLK/label" transform="translate(6, -9) translate(11.953125, 14)" style="cursor:default;font-size:12px;perspective-origin:0.125px 0px;fill:rgb(48, 48, 48);text-anchor:middle;">CLK</text></g><g id="sprotty_ArchitectureBlockImpl$work.pulseDelay(behavioral)/InstantiationBlockImpl$inst_ODELAYE3/BPortImpl$CE" transform="translate(0, 94)" class="triangle"><path d="M 0,0 L 5,2.5 L 0,5 Z" transform="translate(-1.67, -2.5)" class="sprotty-port" style="fill:rgb(48, 48, 48);stroke:rgb(48, 48, 48);"/><text class="clickable sprotty-label port" id="sprotty_ArchitectureBlockImpl$work.pulseDelay(behavioral)/InstantiationBlockImpl$inst_ODELAYE3/BPortImpl$CE/label" transform="translate(6, -9) translate(8.34375, 14)" style="cursor:default;font-size:12px;perspective-origin:-0.015625px 0px;fill:rgb(48, 48, 48);text-anchor:middle;">CE</text></g><g id="sprotty_ArchitectureBlockImpl$work.pulseDelay(behavioral)/InstantiationBlockImpl$inst_ODELAYE3/BPortImpl$CASC_RETURN" transform="translate(0, 66)" class="triangle"><path d="M 0,0 L 5,2.5 L 0,5 Z" transform="translate(-1.67, -2.5)" class="sprotty-port" style="fill:rgb(48, 48, 48);stroke:rgb(48, 48, 48);"/><text class="clickable sprotty-label port" id="sprotty_ArchitectureBlockImpl$work.pulseDelay(behavioral)/InstantiationBlockImpl$inst_ODELAYE3/BPortImpl$CASC_RETURN/label" transform="translate(6, -9) translate(42.625, 14)" style="cursor:default;font-size:12px;perspective-origin:-0.328125px 0px;fill:rgb(48, 48, 48);text-anchor:middle;">CASC_RETURN</text></g><g id="sprotty_ArchitectureBlockImpl$work.pulseDelay(behavioral)/InstantiationBlockImpl$inst_ODELAYE3/BPortImpl$CASC_IN" transform="translate(0, 38)" class="triangle"><path d="M 0,0 L 5,2.5 L 0,5 Z" transform="translate(-1.67, -2.5)" class="sprotty-port" style="fill:rgb(48, 48, 48);stroke:rgb(48, 48, 48);"/><text class="clickable sprotty-label port" id="sprotty_ArchitectureBlockImpl$work.pulseDelay(behavioral)/InstantiationBlockImpl$inst_ODELAYE3/BPortImpl$CASC_IN/label" transform="translate(6, -9) translate(25.3125, 14)" style="cursor:default;font-size:12px;perspective-origin:-0.328125px 0px;fill:rgb(48, 48, 48);text-anchor:middle;">CASC_IN</text></g><g id="sprotty_ArchitectureBlockImpl$work.pulseDelay(behavioral)/InstantiationBlockImpl$inst_ODELAYE3/BPortImpl$CASC_OUT" transform="translate(221.984375, 38)" class="triangle"><path d="M 0,0 L 5,2.5 L 0,5 Z" transform="translate(-1.67, -2.5)" class="sprotty-port" style="fill:rgb(48, 48, 48);stroke:rgb(48, 48, 48);"/><text class="clickable sprotty-label port" id="sprotty_ArchitectureBlockImpl$work.pulseDelay(behavioral)/InstantiationBlockImpl$inst_ODELAYE3/BPortImpl$CASC_OUT/label" transform="translate(-70.015625, -9) translate(31.59375, 14)" style="cursor:default;font-size:12px;perspective-origin:0.40625px 0px;fill:rgb(48, 48, 48);text-anchor:middle;">CASC_OUT</text></g><g id="sprotty_ArchitectureBlockImpl$work.pulseDelay(behavioral)/InstantiationBlockImpl$inst_ODELAYE3/BPortImpl$CNTVALUEOUT" transform="translate(221.984375, 164)" class="triangle"><path d="M 0,0 L 5,2.5 L 0,5 Z" transform="translate(-1.67, -2.5)" class="sprotty-port" style="fill:rgb(48, 48, 48);stroke:rgb(48, 48, 48);"/><text class="clickable sprotty-label port" id="sprotty_ArchitectureBlockImpl$work.pulseDelay(behavioral)/InstantiationBlockImpl$inst_ODELAYE3/BPortImpl$CNTVALUEOUT/label" transform="translate(-92.890625, -9) translate(43.03125, 14)" style="cursor:default;font-size:12px;perspective-origin:0.40625px 0px;fill:rgb(48, 48, 48);text-anchor:middle;">CNTVALUEOUT</text></g><g id="sprotty_ArchitectureBlockImpl$work.pulseDelay(behavioral)/InstantiationBlockImpl$inst_ODELAYE3/BPortImpl$DATAOUT" transform="translate(221.984375, 290)" class="triangle"><path d="M 0,0 L 5,2.5 L 0,5 Z" transform="translate(-1.67, -2.5)" class="sprotty-port" style="fill:rgb(48, 48, 48);stroke:rgb(48, 48, 48);"/><text class="clickable sprotty-label port" id="sprotty_ArchitectureBlockImpl$work.pulseDelay(behavioral)/InstantiationBlockImpl$inst_ODELAYE3/BPortImpl$DATAOUT/label" transform="translate(-61.015625, -9) translate(26.59375, 14)" style="cursor:default;font-size:12px;perspective-origin:0.90625px 0px;fill:rgb(48, 48, 48);text-anchor:middle;">DATAOUT</text></g></g><g id="sprotty_ArchitectureBlockImpl$work.pulseDelay(behavioral)/GPortImpl$clk" transform="translate(0, 148)" class="triangle"><path d="M 0,0 L 5,2.5 L 0,5 Z" transform="translate(-1.67, -2.5)" class="sprotty-port" style="fill:rgb(48, 48, 48);stroke:rgb(48, 48, 48);"/><text class="clickable sprotty-label port" id="sprotty_ArchitectureBlockImpl$work.pulseDelay(behavioral)/GPortImpl$clk/label" transform="translate(6, 6) translate(9.0625, 14)" style="cursor:default;font-size:12px;perspective-origin:0.1875px 0px;fill:rgb(48, 48, 48);text-anchor:middle;">clk</text></g><g id="sprotty_ArchitectureBlockImpl$work.pulseDelay(behavioral)/GPortImpl$idelayCtrlRdy_in" transform="translate(0, 216)" class="triangle"><path d="M 0,0 L 5,2.5 L 0,5 Z" transform="translate(-1.67, -2.5)" class="sprotty-port" style="fill:rgb(48, 48, 48);stroke:rgb(48, 48, 48);"/><text class="clickable sprotty-label port" id="sprotty_ArchitectureBlockImpl$work.pulseDelay(behavioral)/GPortImpl$idelayCtrlRdy_in/label" transform="translate(6, 6) translate(46.109375, 14)" style="cursor:default;font-size:12px;perspective-origin:0.34375px 0px;fill:rgb(48, 48, 48);text-anchor:middle;">idelayCtrlRdy_in</text></g><g id="sprotty_ArchitectureBlockImpl$work.pulseDelay(behavioral)/GPortImpl$incDec_in" transform="translate(0, 250)" class="triangle"><path d="M 0,0 L 5,2.5 L 0,5 Z" transform="translate(-1.67, -2.5)" class="sprotty-port" style="fill:rgb(48, 48, 48);stroke:rgb(48, 48, 48);"/><text class="clickable sprotty-label port" id="sprotty_ArchitectureBlockImpl$work.pulseDelay(behavioral)/GPortImpl$incDec_in/label" transform="translate(6, 6) translate(27.53125, 14)" style="cursor:default;font-size:12px;perspective-origin:0.328125px 0px;fill:rgb(48, 48, 48);text-anchor:middle;">incDec_in</text></g><g id="sprotty_ArchitectureBlockImpl$work.pulseDelay(behavioral)/GPortImpl$start_in" transform="translate(0, 182)" class="triangle"><path d="M 0,0 L 5,2.5 L 0,5 Z" transform="translate(-1.67, -2.5)" class="sprotty-port" style="fill:rgb(48, 48, 48);stroke:rgb(48, 48, 48);"/><text class="clickable sprotty-label port" id="sprotty_ArchitectureBlockImpl$work.pulseDelay(behavioral)/GPortImpl$start_in/label" transform="translate(6, 6) translate(22.4375, 14)" style="cursor:default;font-size:12px;perspective-origin:-0.171875px 0px;fill:rgb(48, 48, 48);text-anchor:middle;">start_in</text></g><g id="sprotty_ArchitectureBlockImpl$work.pulseDelay(behavioral)/GPortImpl$data_in" transform="translate(0, 329)" class="triangle"><path d="M 0,0 L 5,2.5 L 0,5 Z" transform="translate(-1.67, -2.5)" class="sprotty-port" style="fill:rgb(48, 48, 48);stroke:rgb(48, 48, 48);"/><text class="clickable sprotty-label port" id="sprotty_ArchitectureBlockImpl$work.pulseDelay(behavioral)/GPortImpl$data_in/label" transform="translate(6, 6) translate(22.171875, 14)" style="cursor:default;font-size:12px;perspective-origin:-0.15625px 0px;fill:rgb(48, 48, 48);text-anchor:middle;">data_in</text></g><g id="sprotty_ArchitectureBlockImpl$work.pulseDelay(behavioral)/GPortImpl$data_out" transform="translate(834.34375, 338)" class="triangle"><path d="M 0,0 L 5,2.5 L 0,5 Z" transform="translate(-1.67, -2.5)" class="sprotty-port" style="fill:rgb(48, 48, 48);stroke:rgb(48, 48, 48);"/><text class="clickable sprotty-label port" id="sprotty_ArchitectureBlockImpl$work.pulseDelay(behavioral)/GPortImpl$data_out/label" transform="translate(-59.28125, 6) translate(26.40625, 14)" style="cursor:default;font-size:12px;perspective-origin:0.234375px 0px;fill:rgb(48, 48, 48);text-anchor:middle;">data_out</text></g><g id="sprotty_ArchitectureBlockImpl$work.pulseDelay(behavioral)/GPortImpl$ready_out" transform="translate(834.34375, 36)" class="triangle"><path d="M 0,0 L 5,2.5 L 0,5 Z" transform="translate(-1.67, -2.5)" class="sprotty-port" style="fill:rgb(48, 48, 48);stroke:rgb(48, 48, 48);"/><text class="clickable sprotty-label port" id="sprotty_ArchitectureBlockImpl$work.pulseDelay(behavioral)/GPortImpl$ready_out/label" transform="translate(-64.703125, 6) translate(28.609375, 14)" style="cursor:default;font-size:12px;perspective-origin:0.734375px 0px;fill:rgb(48, 48, 48);text-anchor:middle;">ready_out</text></g><g id="sprotty_ArchitectureBlockImpl$work.pulseDelay(behavioral)/GPortImpl$delayTaps_out" transform="translate(834.34375, 212)" class="triangle"><path d="M 0,0 L 5,2.5 L 0,5 Z" transform="translate(-1.67, -2.5)" class="sprotty-port" style="fill:rgb(48, 48, 48);stroke:rgb(48, 48, 48);"/><text class="clickable sprotty-label port" id="sprotty_ArchitectureBlockImpl$work.pulseDelay(behavioral)/GPortImpl$delayTaps_out/label" transform="translate(-90.5625, 6) translate(42.03125, 14)" style="cursor:default;font-size:12px;perspective-origin:0.25px 0px;fill:rgb(48, 48, 48);text-anchor:middle;">delayTaps_out</text></g></g></g></svg>