<svg xmlns="http://www.w3.org/2000/svg" id="sprotty_work.tdpRAM.RTL" class="sprotty-graph sprotty-block-diagram blockdiagram" style="font-family:&quot;Noto Sans&quot;, Helvetica, Arial, sans-serif;perspective-origin:0px 0px;transform-origin:0px 0px;" version="1.1" viewBox="7 7 231.203125 332" width="231.203125" height="332"><g transform="scale(1) translate(0,0)"><g id="sprotty_ArchitectureBlockImpl$work.tdpRAM(RTL)" transform="translate(12, 12)" class="architecture"><g class="sprotty-block" style="fill:rgb(255, 255, 255);stroke:rgb(48, 48, 48);stroke-dasharray:0px;"><rect x="0" y="0" rx="1" ry="1" width="221.203125" height="322"/><text x="110.6015625" y="12" class="sprotty-block-name" style="cursor:pointer;font-weight:bold;perspective-origin:110.094px 0px;fill:rgb(48, 48, 48);stroke:rgba(0, 0, 0, 0);dominant-baseline:middle;text-anchor:middle;">work.tdpRAM(RTL)</text><line x1="0" y1="20" x2="221.203125" y2="20"/></g><g id="sprotty_ArchitectureBlockImpl$work.tdpRAM(RTL)/GPortImpl$a_clk_to_ArchitectureBlockImpl$work.tdpRAM(RTL)/ProcessBlockImpl$null11/GPortImpl$a_clk" class="sprotty-edge edge" style="fill:none;stroke:rgb(112, 112, 112);stroke-linejoin:round;"><g><path d="M 0 249 L 96.4375 249 C 97.4375 249 98.4375 248 98.4375 247 L 98.4375 227 C 98.4375 226 99.4375 225 100.4375 225 L 118.4375 225 "/><path d="M 0 249 L 96.4375 249 C 97.4375 249 98.4375 248 98.4375 247 L 98.4375 227 C 98.4375 226 99.4375 225 100.4375 225 L 118.4375 225 " class="clickable"/></g></g><g id="sprotty_ArchitectureBlockImpl$work.tdpRAM(RTL)/GPortImpl$a_wr_en_in_to_ArchitectureBlockImpl$work.tdpRAM(RTL)/ProcessBlockImpl$null11/GPortImpl$a_wr_en_in" class="sprotty-edge edge" style="fill:none;stroke:rgb(112, 112, 112);stroke-linejoin:round;"><g><path d="M 0 181 L 96.4375 181 C 97.4375 181 98.4375 182 98.4375 183 L 98.4375 203 C 98.4375 204 99.4375 205 100.4375 205 L 118.4375 205 "/><path d="M 0 181 L 96.4375 181 C 97.4375 181 98.4375 182 98.4375 183 L 98.4375 203 C 98.4375 204 99.4375 205 100.4375 205 L 118.4375 205 " class="clickable"/></g></g><g id="sprotty_ArchitectureBlockImpl$work.tdpRAM(RTL)/GPortImpl$a_addr_in_to_ArchitectureBlockImpl$work.tdpRAM(RTL)/ProcessBlockImpl$null11/GPortImpl$a_addr_in" class="sprotty-edge thick edge" style="fill:none;stroke:rgb(112, 112, 112);stroke-linejoin:round;stroke-width:3px;"><g><path d="M 0 215 L 118.4375 215 "/><path d="M 0 215 L 118.4375 215 " class="clickable"/></g></g><g id="sprotty_ArchitectureBlockImpl$work.tdpRAM(RTL)/GPortImpl$a_data_in_to_ArchitectureBlockImpl$work.tdpRAM(RTL)/ProcessBlockImpl$null11/GPortImpl$a_data_in" class="sprotty-edge thick edge" style="fill:none;stroke:rgb(112, 112, 112);stroke-linejoin:round;stroke-width:3px;"><g><path d="M 0 283 L 106.4375 283 C 107.4375 283 108.4375 282 108.4375 281 L 108.4375 237 C 108.4375 236 109.4375 235 110.4375 235 L 118.4375 235 "/><path d="M 0 283 L 106.4375 283 C 107.4375 283 108.4375 282 108.4375 281 L 108.4375 237 C 108.4375 236 109.4375 235 110.4375 235 L 118.4375 235 " class="clickable"/></g></g><g id="sprotty_ArchitectureBlockImpl$work.tdpRAM(RTL)/GPortImpl$b_clk_to_ArchitectureBlockImpl$work.tdpRAM(RTL)/ProcessBlockImpl$null10/GPortImpl$b_clk" class="sprotty-edge edge" style="fill:none;stroke:rgb(112, 112, 112);stroke-linejoin:round;"><g><path d="M 0 35 L 96.09375 35 C 97.09375 35 98.09375 36 98.09375 37 L 98.09375 57 C 98.09375 58 99.09375 59 100.09375 59 L 118.09375 59 "/><path d="M 0 35 L 96.09375 35 C 97.09375 35 98.09375 36 98.09375 37 L 98.09375 57 C 98.09375 58 99.09375 59 100.09375 59 L 118.09375 59 " class="clickable"/></g></g><g id="sprotty_ArchitectureBlockImpl$work.tdpRAM(RTL)/GPortImpl$b_wr_en_in_to_ArchitectureBlockImpl$work.tdpRAM(RTL)/ProcessBlockImpl$null10/GPortImpl$b_wr_en_in" class="sprotty-edge edge" style="fill:none;stroke:rgb(112, 112, 112);stroke-linejoin:round;"><g><path d="M 0 137 L 106.09375 137 C 107.09375 137 108.09375 136 108.09375 135 L 108.09375 91 C 108.09375 90 109.09375 89 110.09375 89 L 118.09375 89 "/><path d="M 0 137 L 106.09375 137 C 107.09375 137 108.09375 136 108.09375 135 L 108.09375 91 C 108.09375 90 109.09375 89 110.09375 89 L 118.09375 89 " class="clickable"/></g></g><g id="sprotty_ArchitectureBlockImpl$work.tdpRAM(RTL)/GPortImpl$b_addr_in_to_ArchitectureBlockImpl$work.tdpRAM(RTL)/ProcessBlockImpl$null10/GPortImpl$b_addr_in" class="sprotty-edge thick edge" style="fill:none;stroke:rgb(112, 112, 112);stroke-linejoin:round;stroke-width:3px;"><g><path d="M 0 103 L 96.09375 103 C 97.09375 103 98.09375 102 98.09375 101 L 98.09375 81 C 98.09375 80 99.09375 79 100.09375 79 L 118.09375 79 "/><path d="M 0 103 L 96.09375 103 C 97.09375 103 98.09375 102 98.09375 101 L 98.09375 81 C 98.09375 80 99.09375 79 100.09375 79 L 118.09375 79 " class="clickable"/></g></g><g id="sprotty_ArchitectureBlockImpl$work.tdpRAM(RTL)/GPortImpl$b_data_in_to_ArchitectureBlockImpl$work.tdpRAM(RTL)/ProcessBlockImpl$null10/GPortImpl$b_data_in" class="sprotty-edge thick edge" style="fill:none;stroke:rgb(112, 112, 112);stroke-linejoin:round;stroke-width:3px;"><g><path d="M 0 69 L 118.09375 69 "/><path d="M 0 69 L 118.09375 69 " class="clickable"/></g></g><g id="sprotty_ArchitectureBlockImpl$work.tdpRAM(RTL)/ProcessBlockImpl$null11/GPortImpl$a_data_out_to_ArchitectureBlockImpl$work.tdpRAM(RTL)/GPortImpl$a_data_out" class="sprotty-edge thick edge" style="fill:none;stroke:rgb(112, 112, 112);stroke-linejoin:round;stroke-width:3px;"><g><path d="M 133.4375 220 L 221.203125 220 "/><path d="M 133.4375 220 L 221.203125 220 " class="clickable"/></g></g><g id="sprotty_ArchitectureBlockImpl$work.tdpRAM(RTL)/ProcessBlockImpl$null10/GPortImpl$b_data_out_to_ArchitectureBlockImpl$work.tdpRAM(RTL)/GPortImpl$b_data_out" class="sprotty-edge thick edge" style="fill:none;stroke:rgb(112, 112, 112);stroke-linejoin:round;stroke-width:3px;"><g><path d="M 133.09375 74 L 221.203125 74 "/><path d="M 133.09375 74 L 221.203125 74 " class="clickable"/></g></g><g id="sprotty_ArchitectureBlockImpl$work.tdpRAM(RTL)/ProcessBlockImpl$null10" transform="translate(118.09375, 49)" class="statement"><rect x="0" y="0" rx="10" ry="5" width="15" height="50" class="sprotty-node" style="fill:rgb(245, 245, 245);stroke:rgb(112, 112, 112);"/><g id="sprotty_ArchitectureBlockImpl$work.tdpRAM(RTL)/ProcessBlockImpl$null10/GPortImpl$b_data_in" transform="translate(0, 20)" class="sprotty-hidden hidden" style="display:block;"/><g id="sprotty_ArchitectureBlockImpl$work.tdpRAM(RTL)/ProcessBlockImpl$null10/GPortImpl$b_addr_in" transform="translate(0, 30)" class="sprotty-hidden hidden" style="display:block;"/><g id="sprotty_ArchitectureBlockImpl$work.tdpRAM(RTL)/ProcessBlockImpl$null10/GPortImpl$b_wr_en_in" transform="translate(0, 40)" class="sprotty-hidden hidden" style="display:block;"/><g id="sprotty_ArchitectureBlockImpl$work.tdpRAM(RTL)/ProcessBlockImpl$null10/GPortImpl$b_clk" transform="translate(0, 10)" class="sprotty-hidden hidden" style="display:block;"/><g id="sprotty_ArchitectureBlockImpl$work.tdpRAM(RTL)/ProcessBlockImpl$null10/GPortImpl$b_data_out" transform="translate(15, 25)" class="sprotty-hidden hidden" style="display:block;"/></g><g id="sprotty_ArchitectureBlockImpl$work.tdpRAM(RTL)/ProcessBlockImpl$null11" transform="translate(118.4375, 195)" class="statement"><rect x="0" y="0" rx="10" ry="5" width="15" height="50" class="sprotty-node" style="fill:rgb(245, 245, 245);stroke:rgb(112, 112, 112);"/><g id="sprotty_ArchitectureBlockImpl$work.tdpRAM(RTL)/ProcessBlockImpl$null11/GPortImpl$a_data_in" transform="translate(0, 40)" class="sprotty-hidden hidden" style="display:block;"/><g id="sprotty_ArchitectureBlockImpl$work.tdpRAM(RTL)/ProcessBlockImpl$null11/GPortImpl$a_addr_in" transform="translate(0, 20)" class="sprotty-hidden hidden" style="display:block;"/><g id="sprotty_ArchitectureBlockImpl$work.tdpRAM(RTL)/ProcessBlockImpl$null11/GPortImpl$a_wr_en_in" transform="translate(0, 10)" class="sprotty-hidden hidden" style="display:block;"/><g id="sprotty_ArchitectureBlockImpl$work.tdpRAM(RTL)/ProcessBlockImpl$null11/GPortImpl$a_clk" transform="translate(0, 30)" class="sprotty-hidden hidden" style="display:block;"/><g id="sprotty_ArchitectureBlockImpl$work.tdpRAM(RTL)/ProcessBlockImpl$null11/GPortImpl$a_data_out" transform="translate(15, 25)" class="sprotty-hidden hidden" style="display:block;"/></g><g id="sprotty_ArchitectureBlockImpl$work.tdpRAM(RTL)/GPortImpl$b_data_in" transform="translate(0, 69)" class="triangle"><path d="M 0,0 L 5,2.5 L 0,5 Z" transform="translate(-1.67, -2.5)" class="sprotty-port" style="fill:rgb(48, 48, 48);stroke:rgb(48, 48, 48);"/><text class="clickable sprotty-label port" id="sprotty_ArchitectureBlockImpl$work.tdpRAM(RTL)/GPortImpl$b_data_in/label" transform="translate(6, 6) translate(28.234375, 14)" style="cursor:default;font-size:12px;perspective-origin:0.34375px 0px;fill:rgb(48, 48, 48);text-anchor:middle;">b_data_in</text></g><g id="sprotty_ArchitectureBlockImpl$work.tdpRAM(RTL)/GPortImpl$b_addr_in" transform="translate(0, 103)" class="triangle"><path d="M 0,0 L 5,2.5 L 0,5 Z" transform="translate(-1.67, -2.5)" class="sprotty-port" style="fill:rgb(48, 48, 48);stroke:rgb(48, 48, 48);"/><text class="clickable sprotty-label port" id="sprotty_ArchitectureBlockImpl$work.tdpRAM(RTL)/GPortImpl$b_addr_in/label" transform="translate(6, 6) translate(28.875, 14)" style="cursor:default;font-size:12px;perspective-origin:0.328125px 0px;fill:rgb(48, 48, 48);text-anchor:middle;">b_addr_in</text></g><g id="sprotty_ArchitectureBlockImpl$work.tdpRAM(RTL)/GPortImpl$b_wr_en_in" transform="translate(0, 137)" class="triangle"><path d="M 0,0 L 5,2.5 L 0,5 Z" transform="translate(-1.67, -2.5)" class="sprotty-port" style="fill:rgb(48, 48, 48);stroke:rgb(48, 48, 48);"/><text class="clickable sprotty-label port" id="sprotty_ArchitectureBlockImpl$work.tdpRAM(RTL)/GPortImpl$b_wr_en_in/label" transform="translate(6, 6) translate(33.203125, 14)" style="cursor:default;font-size:12px;perspective-origin:0.34375px 0px;fill:rgb(48, 48, 48);text-anchor:middle;">b_wr_en_in</text></g><g id="sprotty_ArchitectureBlockImpl$work.tdpRAM(RTL)/GPortImpl$b_clk" transform="translate(0, 35)" class="triangle"><path d="M 0,0 L 5,2.5 L 0,5 Z" transform="translate(-1.67, -2.5)" class="sprotty-port" style="fill:rgb(48, 48, 48);stroke:rgb(48, 48, 48);"/><text class="clickable sprotty-label port" id="sprotty_ArchitectureBlockImpl$work.tdpRAM(RTL)/GPortImpl$b_clk/label" transform="translate(6, 6) translate(15.125, 14)" style="cursor:default;font-size:12px;perspective-origin:0.6875px 0px;fill:rgb(48, 48, 48);text-anchor:middle;">b_clk</text></g><g id="sprotty_ArchitectureBlockImpl$work.tdpRAM(RTL)/GPortImpl$a_data_in" transform="translate(0, 283)" class="triangle"><path d="M 0,0 L 5,2.5 L 0,5 Z" transform="translate(-1.67, -2.5)" class="sprotty-port" style="fill:rgb(48, 48, 48);stroke:rgb(48, 48, 48);"/><text class="clickable sprotty-label port" id="sprotty_ArchitectureBlockImpl$work.tdpRAM(RTL)/GPortImpl$a_data_in/label" transform="translate(6, 6) translate(28.921875, 14)" style="cursor:default;font-size:12px;perspective-origin:-0.15625px 0px;fill:rgb(48, 48, 48);text-anchor:middle;">a_data_in</text></g><g id="sprotty_ArchitectureBlockImpl$work.tdpRAM(RTL)/GPortImpl$a_addr_in" transform="translate(0, 215)" class="triangle"><path d="M 0,0 L 5,2.5 L 0,5 Z" transform="translate(-1.67, -2.5)" class="sprotty-port" style="fill:rgb(48, 48, 48);stroke:rgb(48, 48, 48);"/><text class="clickable sprotty-label port" id="sprotty_ArchitectureBlockImpl$work.tdpRAM(RTL)/GPortImpl$a_addr_in/label" transform="translate(6, 6) translate(29.546875, 14)" style="cursor:default;font-size:12px;perspective-origin:-0.15625px 0px;fill:rgb(48, 48, 48);text-anchor:middle;">a_addr_in</text></g><g id="sprotty_ArchitectureBlockImpl$work.tdpRAM(RTL)/GPortImpl$a_wr_en_in" transform="translate(0, 181)" class="triangle"><path d="M 0,0 L 5,2.5 L 0,5 Z" transform="translate(-1.67, -2.5)" class="sprotty-port" style="fill:rgb(48, 48, 48);stroke:rgb(48, 48, 48);"/><text class="clickable sprotty-label port" id="sprotty_ArchitectureBlockImpl$work.tdpRAM(RTL)/GPortImpl$a_wr_en_in/label" transform="translate(6, 6) translate(33.890625, 14)" style="cursor:default;font-size:12px;perspective-origin:-0.171875px 0px;fill:rgb(48, 48, 48);text-anchor:middle;">a_wr_en_in</text></g><g id="sprotty_ArchitectureBlockImpl$work.tdpRAM(RTL)/GPortImpl$a_clk" transform="translate(0, 249)" class="triangle"><path d="M 0,0 L 5,2.5 L 0,5 Z" transform="translate(-1.67, -2.5)" class="sprotty-port" style="fill:rgb(48, 48, 48);stroke:rgb(48, 48, 48);"/><text class="clickable sprotty-label port" id="sprotty_ArchitectureBlockImpl$work.tdpRAM(RTL)/GPortImpl$a_clk/label" transform="translate(6, 6) translate(15.8125, 14)" style="cursor:default;font-size:12px;perspective-origin:0.1875px 0px;fill:rgb(48, 48, 48);text-anchor:middle;">a_clk</text></g><g id="sprotty_ArchitectureBlockImpl$work.tdpRAM(RTL)/GPortImpl$a_data_out" transform="translate(221.203125, 220)" class="triangle"><path d="M 0,0 L 5,2.5 L 0,5 Z" transform="translate(-1.67, -2.5)" class="sprotty-port" style="fill:rgb(48, 48, 48);stroke:rgb(48, 48, 48);"/><text class="clickable sprotty-label port" id="sprotty_ArchitectureBlockImpl$work.tdpRAM(RTL)/GPortImpl$a_data_out/label" transform="translate(-72.765625, 6) translate(33.140625, 14)" style="cursor:default;font-size:12px;perspective-origin:0.234375px 0px;fill:rgb(48, 48, 48);text-anchor:middle;">a_data_out</text></g><g id="sprotty_ArchitectureBlockImpl$work.tdpRAM(RTL)/GPortImpl$b_data_out" transform="translate(221.203125, 74)" class="triangle"><path d="M 0,0 L 5,2.5 L 0,5 Z" transform="translate(-1.67, -2.5)" class="sprotty-port" style="fill:rgb(48, 48, 48);stroke:rgb(48, 48, 48);"/><text class="clickable sprotty-label port" id="sprotty_ArchitectureBlockImpl$work.tdpRAM(RTL)/GPortImpl$b_data_out/label" transform="translate(-72.40625, 6) translate(32.46875, 14)" style="cursor:default;font-size:12px;perspective-origin:0.734375px 0px;fill:rgb(48, 48, 48);text-anchor:middle;">b_data_out</text></g></g></g></svg>