<svg xmlns="http://www.w3.org/2000/svg" id="sprotty_work.inlCorrectionControl.behavioral" class="sprotty-graph sprotty-block-diagram blockdiagram" style="font-family:&quot;Noto Sans&quot;, Helvetica, Arial, sans-serif;perspective-origin:0px 0px;transform-origin:0px 0px;" version="1.1" viewBox="7 7 617.515625 258.33333333333337" width="617.515625" height="258.33333333333337"><g transform="scale(1) translate(0,0)"><g id="sprotty_ArchitectureBlockImpl$work.inlCorrectionControl(behavioral)" transform="translate(12, 12)" class="architecture"><g class="sprotty-block" style="fill:rgb(255, 255, 255);stroke:rgb(48, 48, 48);stroke-dasharray:0px;"><rect x="0" y="0" rx="1" ry="1" width="607.515625" height="248.33333333333334"/><text x="303.7578125" y="12" class="sprotty-block-name" style="cursor:pointer;font-weight:bold;perspective-origin:303.234px 0px;fill:rgb(48, 48, 48);stroke:rgba(0, 0, 0, 0);dominant-baseline:middle;text-anchor:middle;">work.inlCorrectionControl(behavioral)</text><line x1="0" y1="20" x2="607.515625" y2="20"/></g><g id="sprotty_ArchitectureBlockImpl$work.inlCorrectionControl(behavioral)/GPortImpl$start_in_to_ArchitectureBlockImpl$work.inlCorrectionControl(behavioral)/ProcessBlockImpl$nextStateLogic/GPortImpl$start_in" class="sprotty-edge edge" style="fill:none;stroke:rgb(112, 112, 112);stroke-linejoin:round;"><g><path d="M 0 141.33333333333334 L 136.421875 141.33333333333334 "/><path d="M 0 141.33333333333334 L 136.421875 141.33333333333334 " class="clickable"/></g></g><g id="sprotty_ArchitectureBlockImpl$work.inlCorrectionControl(behavioral)/GPortImpl$histRunning_in_to_ArchitectureBlockImpl$work.inlCorrectionControl(behavioral)/ProcessBlockImpl$nextStateLogic/GPortImpl$histRunning_in" class="sprotty-edge edge" style="fill:none;stroke:rgb(112, 112, 112);stroke-linejoin:round;"><g><path d="M 0 107.33333333333334 L 114.421875 107.33333333333334 C 115.421875 107.33333333333334 116.421875 108.33333333333334 116.421875 109.33333333333334 L 116.421875 129.33333333333334 C 116.421875 130.33333333333334 117.421875 131.33333333333334 118.421875 131.33333333333334 L 136.421875 131.33333333333334 "/><path d="M 0 107.33333333333334 L 114.421875 107.33333333333334 C 115.421875 107.33333333333334 116.421875 108.33333333333334 116.421875 109.33333333333334 L 116.421875 129.33333333333334 C 116.421875 130.33333333333334 117.421875 131.33333333333334 118.421875 131.33333333333334 L 136.421875 131.33333333333334 " class="clickable"/></g></g><g id="sprotty_ArchitectureBlockImpl$work.inlCorrectionControl(behavioral)/GPortImpl$dnlRunning_in_to_ArchitectureBlockImpl$work.inlCorrectionControl(behavioral)/ProcessBlockImpl$nextStateLogic/GPortImpl$dnlRunning_in" class="sprotty-edge edge" style="fill:none;stroke:rgb(112, 112, 112);stroke-linejoin:round;"><g><path d="M 0 175.33333333333334 L 114.421875 175.33333333333334 C 115.421875 175.33333333333334 116.421875 174.33333333333334 116.421875 173.33333333333334 L 116.421875 153.33333333333334 C 116.421875 152.33333333333334 117.421875 151.33333333333334 118.421875 151.33333333333334 L 136.421875 151.33333333333334 "/><path d="M 0 175.33333333333334 L 114.421875 175.33333333333334 C 115.421875 175.33333333333334 116.421875 174.33333333333334 116.421875 173.33333333333334 L 116.421875 153.33333333333334 C 116.421875 152.33333333333334 117.421875 151.33333333333334 118.421875 151.33333333333334 L 136.421875 151.33333333333334 " class="clickable"/></g></g><g id="sprotty_ArchitectureBlockImpl$work.inlCorrectionControl(behavioral)/GPortImpl$inlRunning_in_to_ArchitectureBlockImpl$work.inlCorrectionControl(behavioral)/ProcessBlockImpl$nextStateLogic/GPortImpl$inlRunning_in" class="sprotty-edge edge" style="fill:none;stroke:rgb(112, 112, 112);stroke-linejoin:round;"><g><path d="M 0 73.33333333333334 L 124.421875 73.33333333333334 C 125.421875 73.33333333333334 126.421875 74.33333333333334 126.421875 75.33333333333334 L 126.421875 119.33333333333334 C 126.421875 120.33333333333334 127.421875 121.33333333333334 128.421875 121.33333333333334 L 136.421875 121.33333333333334 "/><path d="M 0 73.33333333333334 L 124.421875 73.33333333333334 C 125.421875 73.33333333333334 126.421875 74.33333333333334 126.421875 75.33333333333334 L 126.421875 119.33333333333334 C 126.421875 120.33333333333334 127.421875 121.33333333333334 128.421875 121.33333333333334 L 136.421875 121.33333333333334 " class="clickable"/></g></g><g id="sprotty_ArchitectureBlockImpl$work.inlCorrectionControl(behavioral)/GPortImpl$clk_to_ArchitectureBlockImpl$work.inlCorrectionControl(behavioral)/ProcessBlockImpl$stateRegister/GPortImpl$clk" class="sprotty-edge edge" style="fill:none;stroke:rgb(112, 112, 112);stroke-linejoin:round;"><g><path d="M 0 209.33333333333334 L 272.046875 209.33333333333334 C 273.046875 209.33333333333334 274.046875 208.33333333333334 274.046875 207.33333333333334 L 274.046875 174.66666666666669 C 274.046875 173.66666666666669 275.046875 172.66666666666669 276.046875 172.66666666666669 L 314.046875 172.66666666666666 "/><path d="M 0 209.33333333333334 L 272.046875 209.33333333333334 C 273.046875 209.33333333333334 274.046875 208.33333333333334 274.046875 207.33333333333334 L 274.046875 174.66666666666669 C 274.046875 173.66666666666669 275.046875 172.66666666666669 276.046875 172.66666666666669 L 314.046875 172.66666666666666 " class="clickable"/></g></g><g id="sprotty_ArchitectureBlockImpl$work.inlCorrectionControl(behavioral)/ProcessBlockImpl$nextStateLogic/GPortImpl$calculationRunning_out_to_ArchitectureBlockImpl$work.inlCorrectionControl(behavioral)/GPortImpl$calculationRunning_out" class="sprotty-edge edge" style="fill:none;stroke:rgb(112, 112, 112);stroke-linejoin:round;"><g><path d="M 264.046875 121.33333333333334 L 272.046875 121.33333333333334 C 273.046875 121.33333333333334 274.046875 120.33333333333334 274.046875 119.33333333333334 L 274.046875 38 C 274.046875 37 275.046875 36 276.046875 36 L 607.515625 36 "/><path d="M 264.046875 121.33333333333334 L 272.046875 121.33333333333334 C 273.046875 121.33333333333334 274.046875 120.33333333333334 274.046875 119.33333333333334 L 274.046875 38 C 274.046875 37 275.046875 36 276.046875 36 L 607.515625 36 " class="clickable"/></g></g><g id="sprotty_ArchitectureBlockImpl$work.inlCorrectionControl(behavioral)/ProcessBlockImpl$nextStateLogic/GPortImpl$histStart_out_to_ArchitectureBlockImpl$work.inlCorrectionControl(behavioral)/GPortImpl$histStart_out" class="sprotty-edge edge" style="fill:none;stroke:rgb(112, 112, 112);stroke-linejoin:round;"><g><path d="M 264.046875 131.33333333333334 L 282.046875 131.33333333333334 C 283.046875 131.33333333333334 284.046875 130.33333333333334 284.046875 129.33333333333334 L 284.046875 72 C 284.046875 71 285.046875 70 286.046875 70 L 607.515625 70 "/><path d="M 264.046875 131.33333333333334 L 282.046875 131.33333333333334 C 283.046875 131.33333333333334 284.046875 130.33333333333334 284.046875 129.33333333333334 L 284.046875 72 C 284.046875 71 285.046875 70 286.046875 70 L 607.515625 70 " class="clickable"/></g></g><g id="sprotty_ArchitectureBlockImpl$work.inlCorrectionControl(behavioral)/ProcessBlockImpl$nextStateLogic/GPortImpl$dnlStart_out_to_ArchitectureBlockImpl$work.inlCorrectionControl(behavioral)/GPortImpl$dnlStart_out" class="sprotty-edge edge" style="fill:none;stroke:rgb(112, 112, 112);stroke-linejoin:round;"><g><path d="M 264.046875 151.33333333333334 L 302.046875 151.33333333333334 C 303.046875 151.33333333333334 304.046875 150.33333333333334 304.046875 149.33333333333334 L 304.046875 140 C 304.046875 139 305.046875 138 306.046875 138 L 607.515625 138 "/><path d="M 264.046875 151.33333333333334 L 302.046875 151.33333333333334 C 303.046875 151.33333333333334 304.046875 150.33333333333334 304.046875 149.33333333333334 L 304.046875 140 C 304.046875 139 305.046875 138 306.046875 138 L 607.515625 138 " class="clickable"/></g></g><g id="sprotty_ArchitectureBlockImpl$work.inlCorrectionControl(behavioral)/ProcessBlockImpl$nextStateLogic/GPortImpl$inlStart_out_to_ArchitectureBlockImpl$work.inlCorrectionControl(behavioral)/GPortImpl$inlStart_out" class="sprotty-edge edge" style="fill:none;stroke:rgb(112, 112, 112);stroke-linejoin:round;"><g><path d="M 264.046875 141.33333333333334 L 292.046875 141.33333333333334 C 293.046875 141.33333333333334 294.046875 140.33333333333334 294.046875 139.33333333333334 L 294.046875 106 C 294.046875 105 295.046875 104 296.046875 104 L 607.515625 104 "/><path d="M 264.046875 141.33333333333334 L 292.046875 141.33333333333334 C 293.046875 141.33333333333334 294.046875 140.33333333333334 294.046875 139.33333333333334 L 294.046875 106 C 294.046875 105 295.046875 104 296.046875 104 L 607.515625 104 " class="clickable"/></g></g><g id="sprotty_ArchitectureBlockImpl$work.inlCorrectionControl(behavioral)/ProcessBlockImpl$nextStateLogic/GPortImpl$fsmState_next_to_ArchitectureBlockImpl$work.inlCorrectionControl(behavioral)/ProcessBlockImpl$stateRegister/GPortImpl$fsmState_next" class="sprotty-edge thick edge" style="fill:none;stroke:rgb(112, 112, 112);stroke-linejoin:round;stroke-width:3px;"><g><path d="M 264.046875 161.33333333333334 L 314.046875 161.33333333333334 "/><path d="M 264.046875 161.33333333333334 L 314.046875 161.33333333333334 " class="clickable"/></g></g><g id="sprotty_ArchitectureBlockImpl$work.inlCorrectionControl(behavioral)/ProcessBlockImpl$stateRegister/GPortImpl$fsmState_pres_to_ArchitectureBlockImpl$work.inlCorrectionControl(behavioral)/ProcessBlockImpl$nextStateLogic/GPortImpl$fsmState_pres" class="sprotty-edge thick edge" style="fill:none;stroke:rgb(112, 112, 112);stroke-linejoin:round;stroke-width:3px;"><g><path d="M 429.3125 167 L 437.3125 167 C 438.3125 167 439.3125 168 439.3125 169 L 439.3125 192 C 439.3125 193 438.3125 194 437.3125 194 L 128.421875 194 C 127.421875 194 126.421875 193 126.421875 192 L 126.421875 163.33333333333334 C 126.421875 162.33333333333334 127.421875 161.33333333333334 128.421875 161.33333333333334 L 136.421875 161.33333333333334 "/><path d="M 429.3125 167 L 437.3125 167 C 438.3125 167 439.3125 168 439.3125 169 L 439.3125 192 C 439.3125 193 438.3125 194 437.3125 194 L 128.421875 194 C 127.421875 194 126.421875 193 126.421875 192 L 126.421875 163.33333333333334 C 126.421875 162.33333333333334 127.421875 161.33333333333334 128.421875 161.33333333333334 L 136.421875 161.33333333333334 " class="clickable"/></g></g><g id="sprotty_ArchitectureBlockImpl$work.inlCorrectionControl(behavioral)/ProcessBlockImpl$stateRegister" transform="translate(314.046875, 150)" class="statement"><rect x="0" y="0" rx="10" ry="5" width="115.265625" height="34" class="sprotty-node" style="fill:rgb(245, 245, 245);stroke:rgb(112, 112, 112);"/><text class="clickable sprotty-label statementtext" id="sprotty_ArchitectureBlockImpl$work.inlCorrectionControl(behavioral)/ProcessBlockImpl$stateRegister/labeltext" transform="translate(5, 5) translate(52.609375, 19)" style="cursor:default;font-weight:bold;perspective-origin:0.015625px 0px;fill:rgb(112, 112, 112);text-anchor:middle;">stateRegister</text><g id="sprotty_ArchitectureBlockImpl$work.inlCorrectionControl(behavioral)/ProcessBlockImpl$stateRegister/GPortImpl$fsmState_next" transform="translate(0, 11.333333333333334)" class="sprotty-hidden hidden" style="display:block;"/><g id="sprotty_ArchitectureBlockImpl$work.inlCorrectionControl(behavioral)/ProcessBlockImpl$stateRegister/GPortImpl$clk" transform="translate(0, 22.666666666666668)" class="sprotty-hidden hidden" style="display:block;"/><g id="sprotty_ArchitectureBlockImpl$work.inlCorrectionControl(behavioral)/ProcessBlockImpl$stateRegister/GPortImpl$fsmState_pres" transform="translate(115.265625, 17)" class="sprotty-hidden hidden" style="display:block;"/></g><g id="sprotty_ArchitectureBlockImpl$work.inlCorrectionControl(behavioral)/ProcessBlockImpl$nextStateLogic" transform="translate(136.421875, 111.33333333333334)" class="statement"><rect x="0" y="0" rx="10" ry="5" width="127.625" height="60" class="sprotty-node" style="fill:rgb(245, 245, 245);stroke:rgb(112, 112, 112);"/><text class="clickable sprotty-label statementtext" id="sprotty_ArchitectureBlockImpl$work.inlCorrectionControl(behavioral)/ProcessBlockImpl$nextStateLogic/labeltext" transform="translate(5, 18) translate(58.53125, 19)" style="cursor:default;font-weight:bold;perspective-origin:0.28125px 0px;fill:rgb(112, 112, 112);text-anchor:middle;">nextStateLogic</text><g id="sprotty_ArchitectureBlockImpl$work.inlCorrectionControl(behavioral)/ProcessBlockImpl$nextStateLogic/GPortImpl$fsmState_pres" transform="translate(0, 50)" class="sprotty-hidden hidden" style="display:block;"/><g id="sprotty_ArchitectureBlockImpl$work.inlCorrectionControl(behavioral)/ProcessBlockImpl$nextStateLogic/GPortImpl$inlRunning_in" transform="translate(0, 10)" class="sprotty-hidden hidden" style="display:block;"/><g id="sprotty_ArchitectureBlockImpl$work.inlCorrectionControl(behavioral)/ProcessBlockImpl$nextStateLogic/GPortImpl$dnlRunning_in" transform="translate(0, 40)" class="sprotty-hidden hidden" style="display:block;"/><g id="sprotty_ArchitectureBlockImpl$work.inlCorrectionControl(behavioral)/ProcessBlockImpl$nextStateLogic/GPortImpl$histRunning_in" transform="translate(0, 20)" class="sprotty-hidden hidden" style="display:block;"/><g id="sprotty_ArchitectureBlockImpl$work.inlCorrectionControl(behavioral)/ProcessBlockImpl$nextStateLogic/GPortImpl$start_in" transform="translate(0, 30)" class="sprotty-hidden hidden" style="display:block;"/><g id="sprotty_ArchitectureBlockImpl$work.inlCorrectionControl(behavioral)/ProcessBlockImpl$nextStateLogic/GPortImpl$calculationRunning_out" transform="translate(127.625, 10)" class="sprotty-hidden hidden" style="display:block;"/><g id="sprotty_ArchitectureBlockImpl$work.inlCorrectionControl(behavioral)/ProcessBlockImpl$nextStateLogic/GPortImpl$histStart_out" transform="translate(127.625, 20)" class="sprotty-hidden hidden" style="display:block;"/><g id="sprotty_ArchitectureBlockImpl$work.inlCorrectionControl(behavioral)/ProcessBlockImpl$nextStateLogic/GPortImpl$dnlStart_out" transform="translate(127.625, 40)" class="sprotty-hidden hidden" style="display:block;"/><g id="sprotty_ArchitectureBlockImpl$work.inlCorrectionControl(behavioral)/ProcessBlockImpl$nextStateLogic/GPortImpl$inlStart_out" transform="translate(127.625, 30)" class="sprotty-hidden hidden" style="display:block;"/><g id="sprotty_ArchitectureBlockImpl$work.inlCorrectionControl(behavioral)/ProcessBlockImpl$nextStateLogic/GPortImpl$fsmState_next" transform="translate(127.625, 50)" class="sprotty-hidden hidden" style="display:block;"/></g><g id="sprotty_ArchitectureBlockImpl$work.inlCorrectionControl(behavioral)/GPortImpl$clk" transform="translate(0, 209.33333333333334)" class="triangle"><path d="M 0,0 L 5,2.5 L 0,5 Z" transform="translate(-1.67, -2.5)" class="sprotty-port" style="fill:rgb(48, 48, 48);stroke:rgb(48, 48, 48);"/><text class="clickable sprotty-label port" id="sprotty_ArchitectureBlockImpl$work.inlCorrectionControl(behavioral)/GPortImpl$clk/label" transform="translate(6, 6) translate(9.0625, 14)" style="cursor:default;font-size:12px;perspective-origin:0.1875px 0px;fill:rgb(48, 48, 48);text-anchor:middle;">clk</text></g><g id="sprotty_ArchitectureBlockImpl$work.inlCorrectionControl(behavioral)/GPortImpl$inlRunning_in" transform="translate(0, 73.33333333333334)" class="triangle"><path d="M 0,0 L 5,2.5 L 0,5 Z" transform="translate(-1.67, -2.5)" class="sprotty-port" style="fill:rgb(48, 48, 48);stroke:rgb(48, 48, 48);"/><text class="clickable sprotty-label port" id="sprotty_ArchitectureBlockImpl$work.inlCorrectionControl(behavioral)/GPortImpl$inlRunning_in/label" transform="translate(6, 6) translate(39.171875, 14)" style="cursor:default;font-size:12px;perspective-origin:0.328125px 0px;fill:rgb(48, 48, 48);text-anchor:middle;">inlRunning_in</text></g><g id="sprotty_ArchitectureBlockImpl$work.inlCorrectionControl(behavioral)/GPortImpl$dnlRunning_in" transform="translate(0, 175.33333333333334)" class="triangle"><path d="M 0,0 L 5,2.5 L 0,5 Z" transform="translate(-1.67, -2.5)" class="sprotty-port" style="fill:rgb(48, 48, 48);stroke:rgb(48, 48, 48);"/><text class="clickable sprotty-label port" id="sprotty_ArchitectureBlockImpl$work.inlCorrectionControl(behavioral)/GPortImpl$dnlRunning_in/label" transform="translate(6, 6) translate(42.234375, 14)" style="cursor:default;font-size:12px;perspective-origin:-0.15625px 0px;fill:rgb(48, 48, 48);text-anchor:middle;">dnlRunning_in</text></g><g id="sprotty_ArchitectureBlockImpl$work.inlCorrectionControl(behavioral)/GPortImpl$histRunning_in" transform="translate(0, 107.33333333333334)" class="triangle"><path d="M 0,0 L 5,2.5 L 0,5 Z" transform="translate(-1.67, -2.5)" class="sprotty-port" style="fill:rgb(48, 48, 48);stroke:rgb(48, 48, 48);"/><text class="clickable sprotty-label port" id="sprotty_ArchitectureBlockImpl$work.inlCorrectionControl(behavioral)/GPortImpl$histRunning_in/label" transform="translate(6, 6) translate(42.375, 14)" style="cursor:default;font-size:12px;perspective-origin:0.328125px 0px;fill:rgb(48, 48, 48);text-anchor:middle;">histRunning_in</text></g><g id="sprotty_ArchitectureBlockImpl$work.inlCorrectionControl(behavioral)/GPortImpl$start_in" transform="translate(0, 141.33333333333334)" class="triangle"><path d="M 0,0 L 5,2.5 L 0,5 Z" transform="translate(-1.67, -2.5)" class="sprotty-port" style="fill:rgb(48, 48, 48);stroke:rgb(48, 48, 48);"/><text class="clickable sprotty-label port" id="sprotty_ArchitectureBlockImpl$work.inlCorrectionControl(behavioral)/GPortImpl$start_in/label" transform="translate(6, 6) translate(22.4375, 14)" style="cursor:default;font-size:12px;perspective-origin:-0.171875px 0px;fill:rgb(48, 48, 48);text-anchor:middle;">start_in</text></g><g id="sprotty_ArchitectureBlockImpl$work.inlCorrectionControl(behavioral)/GPortImpl$calculationRunning_out" transform="translate(607.515625, 36)" class="triangle"><path d="M 0,0 L 5,2.5 L 0,5 Z" transform="translate(-1.67, -2.5)" class="sprotty-port" style="fill:rgb(48, 48, 48);stroke:rgb(48, 48, 48);"/><text class="clickable sprotty-label port" id="sprotty_ArchitectureBlockImpl$work.inlCorrectionControl(behavioral)/GPortImpl$calculationRunning_out/label" transform="translate(-143.203125, 6) translate(68.359375, 14)" style="cursor:default;font-size:12px;perspective-origin:0.234375px 0px;fill:rgb(48, 48, 48);text-anchor:middle;">calculationRunning_out</text></g><g id="sprotty_ArchitectureBlockImpl$work.inlCorrectionControl(behavioral)/GPortImpl$histStart_out" transform="translate(607.515625, 70)" class="triangle"><path d="M 0,0 L 5,2.5 L 0,5 Z" transform="translate(-1.67, -2.5)" class="sprotty-port" style="fill:rgb(48, 48, 48);stroke:rgb(48, 48, 48);"/><text class="clickable sprotty-label port" id="sprotty_ArchitectureBlockImpl$work.inlCorrectionControl(behavioral)/GPortImpl$histStart_out/label" transform="translate(-80.734375, 6) translate(36.625, 14)" style="cursor:default;font-size:12px;perspective-origin:0.734375px 0px;fill:rgb(48, 48, 48);text-anchor:middle;">histStart_out</text></g><g id="sprotty_ArchitectureBlockImpl$work.inlCorrectionControl(behavioral)/GPortImpl$dnlStart_out" transform="translate(607.515625, 138)" class="triangle"><path d="M 0,0 L 5,2.5 L 0,5 Z" transform="translate(-1.67, -2.5)" class="sprotty-port" style="fill:rgb(48, 48, 48);stroke:rgb(48, 48, 48);"/><text class="clickable sprotty-label port" id="sprotty_ArchitectureBlockImpl$work.inlCorrectionControl(behavioral)/GPortImpl$dnlStart_out/label" transform="translate(-79.46875, 6) translate(36.5, 14)" style="cursor:default;font-size:12px;perspective-origin:0.234375px 0px;fill:rgb(48, 48, 48);text-anchor:middle;">dnlStart_out</text></g><g id="sprotty_ArchitectureBlockImpl$work.inlCorrectionControl(behavioral)/GPortImpl$inlStart_out" transform="translate(607.515625, 104)" class="triangle"><path d="M 0,0 L 5,2.5 L 0,5 Z" transform="translate(-1.67, -2.5)" class="sprotty-port" style="fill:rgb(48, 48, 48);stroke:rgb(48, 48, 48);"/><text class="clickable sprotty-label port" id="sprotty_ArchitectureBlockImpl$work.inlCorrectionControl(behavioral)/GPortImpl$inlStart_out/label" transform="translate(-74.328125, 6) translate(33.421875, 14)" style="cursor:default;font-size:12px;perspective-origin:0.734375px 0px;fill:rgb(48, 48, 48);text-anchor:middle;">inlStart_out</text></g></g></g></svg>