<svg xmlns="http://www.w3.org/2000/svg" id="sprotty_work.transitionDetector.behavioral" class="sprotty-graph sprotty-block-diagram blockdiagram" style="font-family:&quot;Noto Sans&quot;, Helvetica, Arial, sans-serif;perspective-origin:0px 0px;transform-origin:0px 0px;" version="1.1" viewBox="7 7 489.640625 152" width="489.640625" height="152"><g transform="scale(1) translate(0,0)"><g id="sprotty_ArchitectureBlockImpl$work.transitionDetector(behavioral)" transform="translate(12, 12)" class="architecture"><g class="sprotty-block" style="fill:rgb(255, 255, 255);stroke:rgb(48, 48, 48);stroke-dasharray:0px;"><rect x="0" y="0" rx="1" ry="1" width="479.640625" height="142"/><text x="239.8203125" y="12" class="sprotty-block-name" style="cursor:pointer;font-weight:bold;perspective-origin:239.297px 0px;fill:rgb(48, 48, 48);stroke:rgba(0, 0, 0, 0);dominant-baseline:middle;text-anchor:middle;">work.transitionDetector(behavioral)</text><line x1="0" y1="20" x2="479.640625" y2="20"/></g><g id="sprotty_ArchitectureBlockImpl$work.transitionDetector(behavioral)/GPortImpl$carry_chain_in_to_ArchitectureBlockImpl$work.transitionDetector(behavioral)/ProcessBlockImpl$proc_sumAndTransition/GPortImpl$carry_chain_in" class="sprotty-edge thick edge" style="fill:none;stroke:rgb(112, 112, 112);stroke-linejoin:round;stroke-width:3px;"><g><path d="M 0 65.66666666666667 L 114.15625 65.66666666666667 C 115.15625 65.66666666666667 116.15625 66.66666666666667 116.15625 67.66666666666667 L 116.15625 84.33333333333334 C 116.15625 85.33333333333334 117.15625 86.33333333333334 118.15625 86.33333333333334 L 126.15625 86.33333333333333 "/><path d="M 0 65.66666666666667 L 114.15625 65.66666666666667 C 115.15625 65.66666666666667 116.15625 66.66666666666667 116.15625 67.66666666666667 L 116.15625 84.33333333333334 C 116.15625 85.33333333333334 117.15625 86.33333333333334 118.15625 86.33333333333334 L 126.15625 86.33333333333333 " class="clickable"/></g></g><g id="sprotty_ArchitectureBlockImpl$work.transitionDetector(behavioral)/GPortImpl$clk_to_ArchitectureBlockImpl$work.transitionDetector(behavioral)/ProcessBlockImpl$proc_sumAndTransition/GPortImpl$clk" class="sprotty-edge edge" style="fill:none;stroke:rgb(112, 112, 112);stroke-linejoin:round;"><g><path d="M 0 99.66666666666667 L 126.15625 99.66666666666667 "/><path d="M 0 99.66666666666667 L 126.15625 99.66666666666667 " class="clickable"/></g></g><g id="sprotty_ArchitectureBlockImpl$work.transitionDetector(behavioral)/ProcessBlockImpl$proc_sumAndTransition/GPortImpl$fallTransition_out_to_ArchitectureBlockImpl$work.transitionDetector(behavioral)/GPortImpl$fallTransition_out" class="sprotty-edge thick edge" style="fill:none;stroke:rgb(112, 112, 112);stroke-linejoin:round;stroke-width:3px;"><g><path d="M 325.15625 93 L 343.15625 93 C 344.15625 93 345.15625 92 345.15625 91 L 345.15625 71 C 345.15625 70 346.15625 69 347.15625 69 L 479.640625 69 "/><path d="M 325.15625 93 L 343.15625 93 C 344.15625 93 345.15625 92 345.15625 91 L 345.15625 71 C 345.15625 70 346.15625 69 347.15625 69 L 479.640625 69 " class="clickable"/></g></g><g id="sprotty_ArchitectureBlockImpl$work.transitionDetector(behavioral)/ProcessBlockImpl$proc_sumAndTransition/GPortImpl$riseTransition_out_to_ArchitectureBlockImpl$work.transitionDetector(behavioral)/GPortImpl$riseTransition_out" class="sprotty-edge thick edge" style="fill:none;stroke:rgb(112, 112, 112);stroke-linejoin:round;stroke-width:3px;"><g><path d="M 325.15625 103 L 479.640625 103 "/><path d="M 325.15625 103 L 479.640625 103 " class="clickable"/></g></g><g id="sprotty_ArchitectureBlockImpl$work.transitionDetector(behavioral)/ProcessBlockImpl$proc_sumAndTransition/GPortImpl$sumOnes_out_to_ArchitectureBlockImpl$work.transitionDetector(behavioral)/GPortImpl$sumOnes_out" class="sprotty-edge thick edge" style="fill:none;stroke:rgb(112, 112, 112);stroke-linejoin:round;stroke-width:3px;"><g><path d="M 325.15625 83 L 333.15625 83 C 334.15625 83 335.15625 82 335.15625 81 L 335.15625 37 C 335.15625 36 336.15625 35 337.15625 35 L 479.640625 35 "/><path d="M 325.15625 83 L 333.15625 83 C 334.15625 83 335.15625 82 335.15625 81 L 335.15625 37 C 335.15625 36 336.15625 35 337.15625 35 L 479.640625 35 " class="clickable"/></g></g><g id="sprotty_ArchitectureBlockImpl$work.transitionDetector(behavioral)/ProcessBlockImpl$proc_sumAndTransition" transform="translate(126.15625, 73)" class="statement"><rect x="0" y="0" rx="10" ry="5" width="199" height="40" class="sprotty-node" style="fill:rgb(245, 245, 245);stroke:rgb(112, 112, 112);"/><text class="clickable sprotty-label statementtext" id="sprotty_ArchitectureBlockImpl$work.transitionDetector(behavioral)/ProcessBlockImpl$proc_sumAndTransition/labeltext" transform="translate(5, 8) translate(94.5, 19)" style="cursor:default;font-weight:bold;perspective-origin:0px 0px;fill:rgb(112, 112, 112);text-anchor:middle;">proc_sumAndTransition</text><g id="sprotty_ArchitectureBlockImpl$work.transitionDetector(behavioral)/ProcessBlockImpl$proc_sumAndTransition/GPortImpl$clk" transform="translate(0, 26.666666666666668)" class="sprotty-hidden hidden" style="display:block;"/><g id="sprotty_ArchitectureBlockImpl$work.transitionDetector(behavioral)/ProcessBlockImpl$proc_sumAndTransition/GPortImpl$carry_chain_in" transform="translate(0, 13.333333333333334)" class="sprotty-hidden hidden" style="display:block;"/><g id="sprotty_ArchitectureBlockImpl$work.transitionDetector(behavioral)/ProcessBlockImpl$proc_sumAndTransition/GPortImpl$fallTransition_out" transform="translate(199, 20)" class="sprotty-hidden hidden" style="display:block;"/><g id="sprotty_ArchitectureBlockImpl$work.transitionDetector(behavioral)/ProcessBlockImpl$proc_sumAndTransition/GPortImpl$riseTransition_out" transform="translate(199, 30)" class="sprotty-hidden hidden" style="display:block;"/><g id="sprotty_ArchitectureBlockImpl$work.transitionDetector(behavioral)/ProcessBlockImpl$proc_sumAndTransition/GPortImpl$sumOnes_out" transform="translate(199, 10)" class="sprotty-hidden hidden" style="display:block;"/></g><g id="sprotty_ArchitectureBlockImpl$work.transitionDetector(behavioral)/GPortImpl$clk" transform="translate(0, 99.66666666666667)" class="triangle"><path d="M 0,0 L 5,2.5 L 0,5 Z" transform="translate(-1.67, -2.5)" class="sprotty-port" style="fill:rgb(48, 48, 48);stroke:rgb(48, 48, 48);"/><text class="clickable sprotty-label port" id="sprotty_ArchitectureBlockImpl$work.transitionDetector(behavioral)/GPortImpl$clk/label" transform="translate(6, 6) translate(9.0625, 14)" style="cursor:default;font-size:12px;perspective-origin:0.1875px 0px;fill:rgb(48, 48, 48);text-anchor:middle;">clk</text></g><g id="sprotty_ArchitectureBlockImpl$work.transitionDetector(behavioral)/GPortImpl$carry_chain_in" transform="translate(0, 65.66666666666667)" class="triangle"><path d="M 0,0 L 5,2.5 L 0,5 Z" transform="translate(-1.67, -2.5)" class="sprotty-port" style="fill:rgb(48, 48, 48);stroke:rgb(48, 48, 48);"/><text class="clickable sprotty-label port" id="sprotty_ArchitectureBlockImpl$work.transitionDetector(behavioral)/GPortImpl$carry_chain_in/label" transform="translate(6, 6) translate(42.734375, 14)" style="cursor:default;font-size:12px;perspective-origin:-0.15625px 0px;fill:rgb(48, 48, 48);text-anchor:middle;">carry_chain_in</text></g><g id="sprotty_ArchitectureBlockImpl$work.transitionDetector(behavioral)/GPortImpl$fallTransition_out" transform="translate(479.640625, 69)" class="triangle"><path d="M 0,0 L 5,2.5 L 0,5 Z" transform="translate(-1.67, -2.5)" class="sprotty-port" style="fill:rgb(48, 48, 48);stroke:rgb(48, 48, 48);"/><text class="clickable sprotty-label port" id="sprotty_ArchitectureBlockImpl$work.transitionDetector(behavioral)/GPortImpl$fallTransition_out/label" transform="translate(-107.84375, 6) translate(50.671875, 14)" style="cursor:default;font-size:12px;perspective-origin:0.25px 0px;fill:rgb(48, 48, 48);text-anchor:middle;">fallTransition_out</text></g><g id="sprotty_ArchitectureBlockImpl$work.transitionDetector(behavioral)/GPortImpl$riseTransition_out" transform="translate(479.640625, 103)" class="triangle"><path d="M 0,0 L 5,2.5 L 0,5 Z" transform="translate(-1.67, -2.5)" class="sprotty-port" style="fill:rgb(48, 48, 48);stroke:rgb(48, 48, 48);"/><text class="clickable sprotty-label port" id="sprotty_ArchitectureBlockImpl$work.transitionDetector(behavioral)/GPortImpl$riseTransition_out/label" transform="translate(-109.484375, 6) translate(51, 14)" style="cursor:default;font-size:12px;perspective-origin:0.734375px 0px;fill:rgb(48, 48, 48);text-anchor:middle;">riseTransition_out</text></g><g id="sprotty_ArchitectureBlockImpl$work.transitionDetector(behavioral)/GPortImpl$sumOnes_out" transform="translate(479.640625, 35)" class="triangle"><path d="M 0,0 L 5,2.5 L 0,5 Z" transform="translate(-1.67, -2.5)" class="sprotty-port" style="fill:rgb(48, 48, 48);stroke:rgb(48, 48, 48);"/><text class="clickable sprotty-label port" id="sprotty_ArchitectureBlockImpl$work.transitionDetector(behavioral)/GPortImpl$sumOnes_out/label" transform="translate(-86.765625, 6) translate(40.140625, 14)" style="cursor:default;font-size:12px;perspective-origin:0.234375px 0px;fill:rgb(48, 48, 48);text-anchor:middle;">sumOnes_out</text></g></g></g></svg>